<svg width="238" height="49" viewBox="0 0 238 49" fill="none" xmlns="http://www.w3.org/2000/svg">
<g clip-path="url(#clip0_71_106)">
<path d="M65.0001 25.3448L61.0099 18.1807H59.8894V25.3448H55.2159V6.3666H63.0597C64.572 6.3666 65.8565 6.62793 66.9132 7.1506C67.9882 7.67326 68.7899 8.39418 69.3183 9.31336C69.8467 10.2145 70.1109 11.2238 70.1109 12.3412C70.1109 13.6028 69.7465 14.7293 69.0177 15.7205C68.3071 16.7118 67.2503 17.4147 65.8474 17.8292L70.2749 25.3448H65.0001ZM59.8894 14.9095H62.7864C63.6427 14.9095 64.2804 14.7022 64.6995 14.2877C65.1368 13.8732 65.3554 13.2874 65.3554 12.5305C65.3554 11.8095 65.1368 11.2418 64.6995 10.8273C64.2804 10.4128 63.6427 10.2055 62.7864 10.2055H59.8894V14.9095ZM82.1185 25.534C80.3147 25.534 78.6567 25.1195 77.1444 24.2905C75.6503 23.4614 74.4569 22.3079 73.5642 20.83C72.689 19.3341 72.2517 17.658 72.2517 15.8016C72.2517 13.9453 72.689 12.2781 73.5642 10.8003C74.4569 9.32237 75.6503 8.1689 77.1444 7.33984C78.6567 6.51078 80.3147 6.09625 82.1185 6.09625C83.9223 6.09625 85.5712 6.51078 87.0652 7.33984C88.5775 8.1689 89.7618 9.32237 90.6182 10.8003C91.4927 12.2781 91.93 13.9453 91.93 15.8016C91.93 17.658 91.4927 19.3341 90.6182 20.83C89.7436 22.3079 88.5593 23.4614 87.0652 24.2905C85.5712 25.1195 83.9223 25.534 82.1185 25.534ZM82.1185 21.3167C83.649 21.3167 84.8697 20.812 85.7802 19.8027C86.71 18.7934 87.1746 17.4597 87.1746 15.8016C87.1746 14.1255 86.71 12.7918 85.7802 11.8005C84.8697 10.7912 83.649 10.2866 82.1185 10.2866C80.5698 10.2866 79.3308 10.7822 78.4016 11.7735C77.4906 12.7648 77.0351 14.1075 77.0351 15.8016C77.0351 17.4778 77.4906 18.8205 78.4016 19.8298C79.3308 20.821 80.5698 21.3167 82.1185 21.3167ZM99.1213 6.3666V17.7211C99.1213 18.8565 99.4037 19.7306 99.9685 20.3434C100.533 20.9562 101.362 21.2626 102.456 21.2626C103.549 21.2626 104.387 20.9562 104.97 20.3434C105.553 19.7306 105.844 18.8565 105.844 17.7211V6.3666H110.518V17.694C110.518 19.3882 110.154 20.821 109.425 21.9925C108.696 23.164 107.712 24.0471 106.473 24.6419C105.252 25.2367 103.886 25.534 102.374 25.534C100.861 25.534 99.5039 25.2457 98.3013 24.6689C97.117 24.0742 96.1787 23.1911 95.4863 22.0196C94.794 20.83 94.4478 19.3882 94.4478 17.694V6.3666H99.1213ZM130.963 25.3448H126.29L118.473 13.6389V25.3448H113.8V6.3666H118.473L126.29 18.1266V6.3666H130.963V25.3448ZM141.538 6.3666C143.561 6.3666 145.328 6.7631 146.84 7.55611C148.353 8.34913 149.519 9.46655 150.339 10.9084C151.177 12.3322 151.596 13.9813 151.596 15.8557C151.596 17.7121 151.177 19.3612 150.339 20.803C149.519 22.2449 148.343 23.3623 146.813 24.1553C145.301 24.9483 143.542 25.3448 141.538 25.3448H134.35V6.3666H141.538ZM141.238 21.3437C143.005 21.3437 144.381 20.8661 145.364 19.9109C146.348 18.9557 146.84 17.6039 146.84 15.8557C146.84 14.1075 146.348 12.7467 145.364 11.7735C144.381 10.8003 143.005 10.3136 141.238 10.3136H139.024V21.3437H141.238ZM169.783 25.3448L165.793 18.1807H164.673V25.3448H159.999V6.3666H167.843C169.355 6.3666 170.64 6.62793 171.696 7.1506C172.771 7.67326 173.573 8.39418 174.101 9.31336C174.63 10.2145 174.894 11.2238 174.894 12.3412C174.894 13.6028 174.53 14.7293 173.801 15.7205C173.09 16.7118 172.034 17.4147 170.631 17.8292L175.058 25.3448H169.783ZM164.673 14.9095H167.57C168.426 14.9095 169.064 14.7022 169.483 14.2877C169.92 13.8732 170.139 13.2874 170.139 12.5305C170.139 11.8095 169.92 11.2418 169.483 10.8273C169.064 10.4128 168.426 10.2055 167.57 10.2055H164.673V14.9095ZM186.902 25.534C185.098 25.534 183.44 25.1195 181.928 24.2905C180.434 23.4614 179.24 22.3079 178.347 20.83C177.473 19.3341 177.035 17.658 177.035 15.8016C177.035 13.9453 177.473 12.2781 178.347 10.8003C179.24 9.32237 180.434 8.1689 181.928 7.33984C183.44 6.51078 185.098 6.09625 186.902 6.09625C188.705 6.09625 190.354 6.51078 191.848 7.33984C193.361 8.1689 194.545 9.32237 195.401 10.8003C196.276 12.2781 196.713 13.9453 196.713 15.8016C196.713 17.658 196.276 19.3341 195.401 20.83C194.527 22.3079 193.342 23.4614 191.848 24.2905C190.354 25.1195 188.705 25.534 186.902 25.534ZM186.902 21.3167C188.432 21.3167 189.653 20.812 190.564 19.8027C191.493 18.7934 191.958 17.4597 191.958 15.8016C191.958 14.1255 191.493 12.7918 190.564 11.8005C189.653 10.7912 188.432 10.2866 186.902 10.2866C185.353 10.2866 184.114 10.7822 183.185 11.7735C182.274 12.7648 181.818 14.1075 181.818 15.8016C181.818 17.4778 182.274 18.8205 183.185 19.8298C184.114 20.821 185.353 21.3167 186.902 21.3167ZM198.52 15.8287C198.52 13.9543 198.93 12.2871 199.75 10.8273C200.57 9.3494 201.709 8.20494 203.167 7.39391C204.642 6.56485 206.309 6.15032 208.168 6.15032C210.445 6.15032 212.395 6.74508 214.017 7.9346C215.638 9.12411 216.722 10.7462 217.269 12.8008H212.131C211.748 12.0078 211.202 11.404 210.491 10.9895C209.799 10.575 209.006 10.3677 208.113 10.3677C206.674 10.3677 205.508 10.8633 204.615 11.8546C203.722 12.8459 203.276 14.1706 203.276 15.8287C203.276 17.4868 203.722 18.8115 204.615 19.8027C205.508 20.794 206.674 21.2896 208.113 21.2896C209.006 21.2896 209.799 21.0824 210.491 20.6678C211.202 20.2533 211.748 19.6495 212.131 18.8565H217.269C216.722 20.9111 215.638 22.5332 214.017 23.7227C212.395 24.8942 210.445 25.48 208.168 25.48C206.309 25.48 204.642 25.0745 203.167 24.2634C201.709 23.4344 200.57 22.2899 199.75 20.83C198.93 19.3702 198.52 17.7031 198.52 15.8287ZM231.255 25.3448L224.805 16.9641V25.3448H220.131V6.3666H224.805V14.6932L231.2 6.3666H236.693L229.259 15.6665L236.967 25.3448H231.255ZM64.3989 35.3521C64.3989 36.085 64.2286 36.7579 63.8887 37.3706C63.5488 37.9714 63.0261 38.458 62.3218 38.8305C61.6175 39.203 60.7429 39.3892 59.6981 39.3892H57.7668V43.931H54.6511V31.2789H59.6981C60.7184 31.2789 61.581 31.4531 62.2853 31.8015C62.9897 32.15 63.518 32.6306 63.8705 33.2434C64.2229 33.8562 64.3989 34.5591 64.3989 35.3521ZM59.4612 36.9381C60.0562 36.9381 60.4998 36.7999 60.7913 36.5236C61.0828 36.2472 61.2286 35.8567 61.2286 35.3521C61.2286 34.8474 61.0828 34.4569 60.7913 34.1806C60.4998 33.9042 60.0562 33.766 59.4612 33.766H57.7668V36.9381H59.4612ZM81.8907 41.552H85.972V43.931H78.7751V31.2789H81.8907V41.552ZM103.273 31.2789V38.8485C103.273 39.6055 103.461 40.1883 103.838 40.5968C104.214 41.0053 104.767 41.2095 105.496 41.2095C106.225 41.2095 106.783 41.0053 107.172 40.5968C107.561 40.1883 107.755 39.6055 107.755 38.8485V31.2789H110.871V38.8305C110.871 39.9599 110.628 40.9151 110.142 41.6962C109.656 42.4772 109 43.0659 108.174 43.4624C107.36 43.8589 106.449 44.0572 105.441 44.0572C104.433 44.0572 103.528 43.8649 102.727 43.4804C101.937 43.0839 101.311 42.4952 100.85 41.7142C100.388 40.9212 100.158 39.9599 100.158 38.8305V31.2789H103.273ZM140.298 31.2789V43.931H137.182V36.3433L134.321 43.931H131.807L128.928 36.3253V43.931H125.813V31.2789H129.493L133.082 40.038L136.635 31.2789H140.298ZM163.036 37.4427C163.777 37.5989 164.372 37.9654 164.821 38.5421C165.271 39.1069 165.495 39.7557 165.495 40.4886C165.495 41.546 165.119 42.3871 164.366 43.0118C163.625 43.6246 162.586 43.931 161.25 43.931H155.292V31.2789H161.05C162.35 31.2789 163.364 31.5733 164.092 32.162C164.834 32.7507 165.204 33.5498 165.204 34.5591C165.204 35.304 165.003 35.9228 164.603 36.4154C164.214 36.9081 163.692 37.2505 163.036 37.4427ZM158.408 36.3974H160.448C160.959 36.3974 161.347 36.2893 161.614 36.073C161.894 35.8447 162.034 35.5143 162.034 35.0817C162.034 34.6492 161.894 34.3187 161.614 34.0905C161.347 33.8622 160.959 33.748 160.448 33.748H158.408V36.3974ZM160.703 41.4438C161.226 41.4438 161.627 41.3297 161.906 41.1014C162.197 40.8611 162.343 40.5186 162.343 40.0741C162.343 39.6295 162.192 39.2811 161.888 39.0288C161.596 38.7764 161.19 38.6503 160.667 38.6503H158.408V41.4438H160.703ZM183.172 31.2789V43.931H180.057V31.2789H183.172ZM209.626 43.931H206.51L201.3 36.1271V43.931H198.184V31.2789H201.3L206.51 39.1189V31.2789H209.626V43.931ZM233.129 35.28C232.899 34.8594 232.565 34.541 232.127 34.3248C231.702 34.0965 231.198 33.9823 230.615 33.9823C229.607 33.9823 228.799 34.3128 228.192 34.9736C227.584 35.6224 227.281 36.4935 227.281 37.5869C227.281 38.7524 227.597 39.6656 228.228 40.3264C228.872 40.9752 229.752 41.2997 230.87 41.2997C231.635 41.2997 232.279 41.1074 232.802 40.7229C233.336 40.3384 233.724 39.7857 233.968 39.0648H230.014V36.7939H236.792V39.6596C236.561 40.4285 236.166 41.1435 235.607 41.8043C235.061 42.4651 234.362 42.9998 233.512 43.4083C232.662 43.8168 231.702 44.0211 230.633 44.0211C229.37 44.0211 228.24 43.7508 227.244 43.2101C226.26 42.6574 225.489 41.8944 224.93 40.9212C224.384 39.9479 224.111 38.8365 224.111 37.5869C224.111 36.3373 224.384 35.2259 224.93 34.2527C225.489 33.2674 226.26 32.5044 227.244 31.9637C228.228 31.4111 229.352 31.1347 230.615 31.1347C232.146 31.1347 233.433 31.5012 234.478 32.2341C235.535 32.967 236.233 33.9823 236.573 35.28H233.129Z" fill="#7C4032"/>
<path d="M1.7398 8.62732H3.45333V10.3198C3.45383 10.7757 3.63739 11.2127 3.96374 11.535C4.29008 11.8573 4.73256 12.0386 5.19408 12.0391H6.99395C7.45544 12.0386 7.89796 11.8573 8.22427 11.535C8.55063 11.2127 8.7342 10.7757 8.73471 10.3198V8.62732H10.4482C10.9097 8.62659 11.352 8.44518 11.6783 8.1229C12.0046 7.80063 12.1882 7.36374 12.189 6.90799V5.13023C12.1882 4.67446 12.0046 4.23756 11.6783 3.91529C11.352 3.59301 10.9097 3.41162 10.4482 3.41089H8.73471V1.71935C8.7342 1.2635 8.55063 0.826461 8.22427 0.504127C7.89796 0.181793 7.45544 0.000490688 6.99395 0H5.19408C4.73256 0.000490688 4.29008 0.181793 3.96374 0.504127C3.63739 0.826461 3.45383 1.2635 3.45333 1.71935V3.41089H1.7398C1.27845 3.41162 0.836211 3.59303 0.510069 3.91534C0.183926 4.23765 0.000496285 4.67455 0 5.13023V6.90799C0.000496285 7.36369 0.183926 7.80057 0.510069 8.12285C0.836211 8.44518 1.27845 8.62659 1.7398 8.62732ZM1.32972 5.13023C1.33022 5.02313 1.37364 4.92059 1.4505 4.84502C1.52735 4.76946 1.63137 4.72705 1.7398 4.72705H4.78587V1.71935C4.78587 1.61184 4.82905 1.50872 4.90593 1.43261C4.9828 1.3565 5.08711 1.31362 5.19596 1.31337H6.99395C7.10276 1.31362 7.20707 1.3565 7.284 1.43261C7.36086 1.50872 7.40402 1.61184 7.40402 1.71935V4.72705H10.4482C10.5021 4.72705 10.5554 4.73752 10.6051 4.75788C10.6549 4.77823 10.7001 4.80807 10.7382 4.84568C10.7763 4.88329 10.8065 4.92794 10.8271 4.97709C10.8477 5.02623 10.8583 5.07889 10.8583 5.13209V6.90799C10.8583 7.0155 10.8151 7.11863 10.7382 7.19472C10.6614 7.27081 10.5571 7.31367 10.4482 7.31395H7.40402V10.3198C7.40402 10.373 7.39343 10.4257 7.37282 10.4748C7.35221 10.524 7.32197 10.5686 7.28394 10.6062C7.24585 10.6438 7.20064 10.6737 7.15088 10.694C7.10111 10.7143 7.04782 10.7248 6.99395 10.7248H5.19408C5.08564 10.7244 4.98182 10.6814 4.90532 10.6056C4.82882 10.5296 4.78587 10.4269 4.78587 10.3198V7.31395H1.7398C1.63096 7.31367 1.52666 7.27081 1.44977 7.19472C1.3729 7.11863 1.32972 7.0155 1.32972 6.90799V5.13023Z" fill="#7C4032"/>
<path d="M45.5503 20.5951L39.8964 18.2519V20.2911C39.8659 20.2818 39.8344 20.2769 39.8025 20.2762H36.0076V16.0015C36.0074 15.6296 35.8577 15.2731 35.5915 15.0101C35.3253 14.7472 34.9643 14.5994 34.5878 14.5991H31.8177C31.4413 14.5996 31.0804 14.7475 30.8143 15.0104C30.5481 15.2733 30.3983 15.6297 30.3978 16.0015V16.02H27.3621C24.3922 16.0234 21.5451 17.1903 19.4451 19.2644C17.3451 21.3386 16.1638 24.1508 16.1603 27.0841V32.3932H16.1406C15.7642 32.3937 15.4034 32.5416 15.1372 32.8045C14.871 33.0674 14.7213 33.4238 14.7208 33.7956V36.4974C14.7213 36.8692 14.871 37.2256 15.1372 37.4885C15.4034 37.7514 15.7642 37.8993 16.1406 37.8998H16.1566V37.9359C16.1561 38.4363 15.9546 38.916 15.5964 39.2698C15.2382 39.6236 14.7526 39.8225 14.246 39.823H12.6507C12.1441 39.8225 11.6584 39.6236 11.3003 39.2698C10.9421 38.916 10.7406 38.4363 10.7401 37.9359H10.7551C11.1315 37.9354 11.4924 37.7875 11.7585 37.5246C12.0247 37.2617 12.1744 36.9053 12.1749 36.5335V33.8308C12.1744 33.459 12.0247 33.1026 11.7585 32.8397C11.4924 32.5768 11.1315 32.4289 10.7551 32.4285H10.7401V19.7831H10.7551C11.1315 19.7826 11.4924 19.6347 11.7585 19.3718C12.0247 19.109 12.1744 18.7526 12.1749 18.3808V15.6447C12.1747 15.2728 12.025 14.9163 11.7588 14.6533C11.4926 14.3904 11.1316 14.2425 10.7551 14.2423H1.43299C1.05651 14.2425 0.695524 14.3904 0.42931 14.6533C0.163098 14.9163 0.0134321 15.2728 0.0131836 15.6447V18.3808C0.0136801 18.7526 0.163426 19.109 0.429584 19.3718C0.695741 19.6347 1.05659 19.7826 1.43299 19.7831H1.44801V32.4285H1.43299C1.05659 32.4289 0.695741 32.5768 0.429584 32.8397C0.163426 33.1026 0.0136801 33.459 0.0131836 33.8308V36.5326C0.0136801 36.9044 0.163426 37.2608 0.429584 37.5237C0.695741 37.7866 1.05659 37.9345 1.43299 37.935H1.44801C1.45124 40.8686 2.63255 43.6812 4.73277 45.7556C6.83297 47.83 9.68054 48.9968 12.6507 49H14.246C17.2165 48.9975 20.0646 47.8312 22.1654 45.7569C24.2662 43.6826 25.448 40.8699 25.4515 37.9359V37.8998H25.4656C25.8421 37.8995 26.203 37.7517 26.4693 37.4888C26.7355 37.2258 26.8852 36.8693 26.8854 36.4974V33.7956C26.8852 33.4237 26.7355 33.0672 26.4693 32.8042C26.203 32.5413 25.8421 32.3935 25.4656 32.3932H25.4515V27.0841C25.4523 26.5838 25.6538 26.1043 26.0119 25.7505C26.3701 25.3968 26.8556 25.1977 27.3621 25.197H30.3978V25.2109C30.3976 25.2707 30.4017 25.3305 30.4101 25.3898C30.4542 25.7277 30.6215 26.0383 30.8805 26.2634C31.1395 26.4885 31.4726 26.6129 31.8177 26.6132H34.5878C34.9643 26.613 35.3253 26.4652 35.5915 26.2023C35.8577 25.9393 36.0074 25.5827 36.0076 25.2109V20.9371H39.7979C39.8297 20.9364 39.8613 20.9315 39.8917 20.9223V22.9382L45.5503 20.5951ZM17.492 27.0832C17.4949 24.4983 18.5357 22.0202 20.386 20.1923C22.2364 18.3644 24.7451 17.3359 27.3621 17.3325H30.3978V20.28H27.3621C25.5357 20.2819 23.7846 20.9994 22.4931 22.275C21.2017 23.5506 20.4753 25.2801 20.4733 27.0841V32.3932H17.4901L17.492 27.0832ZM12.6507 41.1364H14.246C15.1051 41.1354 15.9287 40.7979 16.5361 40.1979C17.1436 39.5979 17.4853 38.7844 17.4863 37.9359V37.8998H20.4695V37.9359C20.4678 39.5657 19.8115 41.1282 18.6448 42.2806C17.478 43.433 15.896 44.0812 14.246 44.0829H12.6507C11.0006 44.0812 9.41852 43.4331 8.25157 42.2807C7.08469 41.1283 6.42826 39.5657 6.42626 37.9359H9.40946C9.41043 38.7846 9.75228 39.5982 10.3599 40.1982C10.9676 40.7983 11.7915 41.1357 12.6507 41.1364ZM9.40946 32.4285H6.42626V19.7831H9.40946V32.4285ZM1.34384 18.3808V15.6447C1.34381 15.6208 1.35305 15.5979 1.36965 15.5807C1.38625 15.5635 1.40893 15.5531 1.43299 15.552H10.7551C10.78 15.552 10.8039 15.5617 10.8215 15.5791C10.8391 15.5965 10.849 15.6201 10.849 15.6447V18.3808C10.8478 18.4046 10.8373 18.427 10.8199 18.4434C10.8024 18.4597 10.7792 18.4689 10.7551 18.4688H1.43299C1.40972 18.4677 1.38769 18.4581 1.37122 18.4418C1.35474 18.4255 1.34498 18.4038 1.34384 18.3808ZM2.77867 19.7831H5.76186V32.4285H2.77867V19.7831ZM1.43299 36.6207C1.40893 36.6195 1.38625 36.6092 1.36965 36.5919C1.35305 36.5747 1.34381 36.5518 1.34384 36.528V33.8308C1.34498 33.8078 1.35474 33.786 1.37122 33.7698C1.38769 33.7535 1.40972 33.7439 1.43299 33.7427H10.7551C10.7792 33.7427 10.8024 33.7519 10.8199 33.7683C10.8373 33.7846 10.8478 33.8071 10.849 33.8308V36.5326C10.849 36.5572 10.8391 36.5808 10.8215 36.5982C10.8039 36.6155 10.78 36.6253 10.7551 36.6253H1.43299V36.6207ZM24.1218 37.9359C24.1188 40.5211 23.0778 42.9995 21.227 44.8274C19.3763 46.6554 16.8671 47.6837 14.2497 47.6866H12.6545C10.0371 47.6837 7.5279 46.6554 5.67717 44.8274C3.82644 42.9995 2.7854 40.5211 2.78242 37.9359H5.76186C5.76385 39.7399 6.49026 41.4694 7.78172 42.745C9.07324 44.0206 10.8243 44.7381 12.6507 44.7401H14.246C16.0724 44.7381 17.8234 44.0206 19.115 42.745C20.4064 41.4694 21.1328 39.7399 21.1348 37.9359V37.8998H24.118L24.1218 37.9359ZM25.4656 33.7075C25.4897 33.7075 25.5128 33.7166 25.5303 33.733C25.5478 33.7494 25.5582 33.7718 25.5594 33.7956V36.4974C25.5594 36.522 25.5495 36.5456 25.5319 36.5629C25.5143 36.5803 25.4905 36.5901 25.4656 36.5901H16.1406C16.1166 36.5889 16.0939 36.5786 16.0773 36.5614C16.0607 36.5441 16.0515 36.5212 16.0515 36.4974V33.7956C16.0526 33.7726 16.0624 33.7508 16.0789 33.7346C16.0953 33.7183 16.1174 33.7087 16.1406 33.7075H25.4618H25.4656ZM27.3621 23.8827C26.503 23.8837 25.6794 24.2212 25.072 24.8212C24.4645 25.4212 24.1228 26.2346 24.1218 27.0832V32.3923H21.1386V27.0841C21.1403 25.4544 21.7966 23.8918 22.9633 22.7394C24.1301 21.587 25.7121 20.9388 27.3621 20.9371H30.3978V23.8836L27.3621 23.8827ZM34.6816 25.2072C34.6816 25.2318 34.6718 25.2553 34.6542 25.2727C34.6366 25.2901 34.6127 25.2999 34.5878 25.2999H31.8177C31.7936 25.2987 31.7709 25.2884 31.7543 25.2711C31.7377 25.2539 31.7285 25.231 31.7285 25.2072V16.0015C31.7296 15.9785 31.7394 15.9567 31.7559 15.9405C31.7724 15.9242 31.7944 15.9146 31.8177 15.9134H34.5878C34.6119 15.9134 34.6351 15.9225 34.6526 15.9389C34.67 15.9553 34.6805 15.9777 34.6816 16.0015V25.2109V25.2072ZM41.2298 20.2271L42.1157 20.5978L41.2298 20.9686V20.2271Z" fill="#7C4032"/>
<path d="M6.0942 17.7032C6.13787 17.7032 6.18114 17.6947 6.22151 17.6782C6.26188 17.6616 6.29855 17.6374 6.32941 17.6068C6.36027 17.5762 6.38469 17.5399 6.40138 17.5C6.418 17.4601 6.42648 17.4173 6.42637 17.3742V16.6577C6.42637 16.5707 6.39135 16.4872 6.32906 16.4257C6.26677 16.3642 6.18228 16.3296 6.0942 16.3296C6.00606 16.3296 5.92156 16.3642 5.85927 16.4257C5.79698 16.4872 5.76196 16.5707 5.76196 16.6577V17.3742C5.76185 17.4173 5.77033 17.4601 5.78702 17.5C5.80364 17.5399 5.82807 17.5762 5.85893 17.6068C5.88979 17.6374 5.92646 17.6616 5.96683 17.6782C6.00719 17.6947 6.05047 17.7032 6.0942 17.7032Z" fill="#7C4032"/>
<path d="M3.41964 17.7033C3.46378 17.7034 3.50751 17.6949 3.54828 17.6781C3.58906 17.6614 3.62606 17.6369 3.65715 17.6059C3.68823 17.575 3.71277 17.5382 3.72935 17.4978C3.74592 17.4574 3.75421 17.4141 3.75371 17.3705V16.654C3.74919 16.5699 3.71216 16.4907 3.65028 16.4328C3.58838 16.3747 3.50634 16.3425 3.42104 16.3425C3.33575 16.3425 3.25371 16.3747 3.19182 16.4328C3.12993 16.4907 3.09291 16.5699 3.08838 16.654V17.3705C3.08842 17.4557 3.12209 17.5375 3.18222 17.5985C3.2127 17.6308 3.24941 17.6566 3.29019 17.6747C3.33097 17.6926 3.37499 17.7024 3.41964 17.7033Z" fill="#7C4032"/>
<path d="M8.76854 17.7033C8.81364 17.7028 8.85822 17.6932 8.8995 17.6752C8.94078 17.6572 8.97796 17.6311 9.00876 17.5985C9.06889 17.5375 9.10254 17.4557 9.1026 17.3705V16.654C9.0981 16.5699 9.06109 16.4907 8.9992 16.4328C8.93731 16.3747 8.85526 16.3425 8.76997 16.3425C8.68467 16.3425 8.60263 16.3747 8.54073 16.4328C8.47884 16.4907 8.44178 16.5699 8.43728 16.654V17.3705C8.43677 17.4139 8.44496 17.4569 8.46136 17.4971C8.47776 17.5374 8.50207 17.574 8.53288 17.6049C8.56362 17.6358 8.60029 17.6605 8.64077 17.6774C8.6812 17.6942 8.72464 17.703 8.76854 17.7033Z" fill="#7C4032"/>
<path d="M6.0942 35.8328C6.13781 35.833 6.18108 35.8245 6.22145 35.8081C6.26182 35.7916 6.29849 35.7675 6.32935 35.737C6.36021 35.7065 6.38469 35.6703 6.40132 35.6305C6.418 35.5906 6.42648 35.5478 6.42637 35.5047V34.7883C6.42637 34.7013 6.39135 34.6178 6.32906 34.5563C6.26677 34.4947 6.18228 34.4601 6.0942 34.4601C6.00606 34.4601 5.92156 34.4947 5.85927 34.5563C5.79698 34.6178 5.76196 34.7013 5.76196 34.7883V35.5047C5.76185 35.5478 5.77039 35.5906 5.78702 35.6305C5.80364 35.6703 5.82813 35.7065 5.85899 35.737C5.8899 35.7675 5.92657 35.7916 5.96688 35.8081C6.00725 35.8245 6.05052 35.833 6.0942 35.8328Z" fill="#7C4032"/>
<path d="M3.41964 35.8329C3.46342 35.8331 3.50682 35.8248 3.54734 35.8084C3.58786 35.792 3.6247 35.7679 3.65575 35.7374C3.6868 35.7069 3.71143 35.6707 3.72825 35.6307C3.74505 35.5908 3.75371 35.548 3.75371 35.5047V34.7883C3.74919 34.7041 3.71216 34.6249 3.65028 34.567C3.58838 34.509 3.50634 34.4767 3.42104 34.4767C3.33575 34.4767 3.25371 34.509 3.19182 34.567C3.12993 34.6249 3.09291 34.7041 3.08838 34.7883V35.5047C3.08838 35.5916 3.12325 35.6749 3.18534 35.7364C3.24744 35.7979 3.3317 35.8326 3.41964 35.8329Z" fill="#7C4032"/>
<path d="M8.76846 35.8329C8.81225 35.8331 8.85569 35.8248 8.89617 35.8084C8.93671 35.792 8.97355 35.7679 9.00458 35.7374C9.03567 35.7069 9.06027 35.6707 9.07712 35.6307C9.09392 35.5908 9.10257 35.548 9.10257 35.5047V34.7883C9.09802 34.7041 9.06101 34.6249 8.99912 34.567C8.93723 34.509 8.85518 34.4767 8.76989 34.4767C8.68459 34.4767 8.60255 34.509 8.54065 34.567C8.47876 34.6249 8.44175 34.7041 8.43726 34.7883V35.5047C8.43726 35.5916 8.4721 35.6749 8.53422 35.7364C8.59628 35.7979 8.68055 35.8326 8.76846 35.8329Z" fill="#7C4032"/>
<path d="M20.8052 34.4602C20.7199 34.4599 20.6377 34.4921 20.5759 34.5501C20.514 34.6081 20.4771 34.6875 20.473 34.7716C20.4725 34.7772 20.4725 34.7828 20.473 34.7883V35.5048C20.4725 35.5103 20.4725 35.5159 20.473 35.5215C20.4753 35.6085 20.5124 35.6911 20.5763 35.751C20.6402 35.811 20.7256 35.8435 20.8136 35.8412C20.9018 35.839 20.9854 35.8024 21.0461 35.7392C21.1068 35.6761 21.1397 35.5918 21.1374 35.5048V34.7883C21.1374 34.7452 21.1288 34.7026 21.1121 34.6627C21.0954 34.6229 21.0709 34.5868 21.0401 34.5563C21.0093 34.5258 20.9726 34.5017 20.9324 34.4852C20.892 34.4687 20.8488 34.4602 20.8052 34.4602Z" fill="#7C4032"/>
<path d="M18.1303 34.4601C18.0867 34.4601 18.0435 34.4686 18.0032 34.4852C17.9629 34.5017 17.9263 34.5258 17.8954 34.5563C17.8645 34.5868 17.8401 34.6229 17.8234 34.6627C17.8067 34.7025 17.7981 34.7452 17.7981 34.7883V35.5047C17.8026 35.5889 17.8397 35.6681 17.9016 35.726C17.9634 35.784 18.0455 35.8163 18.1308 35.8163C18.2161 35.8163 18.2981 35.784 18.36 35.726C18.4219 35.6681 18.4589 35.5889 18.4634 35.5047V34.7883C18.4634 34.7451 18.4548 34.7024 18.4381 34.6625C18.4213 34.6226 18.3967 34.5864 18.3658 34.5559C18.3349 34.5255 18.2981 34.5013 18.2577 34.4849C18.2173 34.4684 18.174 34.46 18.1303 34.4601Z" fill="#7C4032"/>
<path d="M23.4799 34.4601C23.4363 34.4601 23.393 34.4686 23.3528 34.4852C23.3125 34.5017 23.2759 34.5258 23.245 34.5563C23.2142 34.5868 23.1897 34.6229 23.173 34.6627C23.1563 34.7025 23.1477 34.7452 23.1477 34.7883V35.5047C23.1522 35.5889 23.1893 35.6681 23.2512 35.726C23.3131 35.784 23.3951 35.8163 23.4804 35.8163C23.5657 35.8163 23.6477 35.784 23.7096 35.726C23.7715 35.6681 23.8085 35.5889 23.813 35.5047V34.7883C23.813 34.7451 23.8044 34.7024 23.7876 34.6625C23.7709 34.6226 23.7463 34.5864 23.7154 34.5559C23.6845 34.5255 23.6477 34.5013 23.6073 34.4849C23.5669 34.4684 23.5236 34.46 23.4799 34.4601Z" fill="#7C4032"/>
<path d="M33.6129 20.28C33.5973 20.2785 33.5815 20.2785 33.5659 20.28H32.8443C32.8287 20.2785 32.813 20.2785 32.7974 20.28C32.7186 20.296 32.6483 20.3398 32.5998 20.4033C32.5512 20.4667 32.5276 20.5453 32.5333 20.6247C32.5391 20.704 32.5737 20.7785 32.631 20.8344C32.6881 20.8904 32.764 20.9239 32.8443 20.9287H33.5697C33.65 20.9239 33.7259 20.8904 33.7831 20.8344C33.8403 20.7785 33.875 20.704 33.8807 20.6247C33.8865 20.5453 33.8628 20.4667 33.8143 20.4033C33.7657 20.3398 33.6955 20.296 33.6166 20.28H33.6129Z" fill="#7C4032"/>
<path d="M33.6951 22.9438C33.6542 22.9266 33.6101 22.9178 33.5656 22.9178H32.844C32.7988 22.9155 32.7536 22.9222 32.7112 22.9376C32.6687 22.9531 32.6299 22.9769 32.5971 23.0077C32.5643 23.0384 32.5381 23.0754 32.5203 23.1165C32.5024 23.1575 32.4932 23.2017 32.4932 23.2464C32.4932 23.2911 32.5024 23.3353 32.5203 23.3763C32.5381 23.4174 32.5643 23.4545 32.5971 23.4851C32.6299 23.5159 32.6687 23.5397 32.7112 23.5552C32.7536 23.5706 32.7988 23.5773 32.844 23.575H33.5694C33.6131 23.575 33.6564 23.5665 33.6967 23.5499C33.7371 23.5334 33.7738 23.5091 33.8046 23.4786C33.8355 23.448 33.8599 23.4117 33.8766 23.3718C33.8932 23.3319 33.9017 23.2891 33.9016 23.2459C33.9015 23.2145 33.8968 23.1833 33.8875 23.1532C33.8732 23.1064 33.8485 23.0633 33.8153 23.0271C33.782 22.9908 33.741 22.9624 33.6951 22.9438Z" fill="#7C4032"/>
<path d="M33.5658 17.6338H32.8441C32.7853 17.6337 32.7276 17.6494 32.6771 17.6792C32.6273 17.7073 32.5857 17.7477 32.5567 17.7964C32.5275 17.8452 32.5118 17.9006 32.511 17.9572C32.511 18.0445 32.5461 18.1282 32.6085 18.1899C32.671 18.2516 32.7558 18.2863 32.8441 18.2863H33.5695C33.6546 18.2818 33.7349 18.2453 33.7936 18.1841C33.8522 18.123 33.885 18.0419 33.885 17.9577C33.885 17.8735 33.8522 17.7924 33.7936 17.7313C33.7349 17.6702 33.6546 17.6336 33.5695 17.6292L33.5658 17.6338Z" fill="#7C4032"/>
</g>
<defs>
<clipPath id="clip0_71_106">
<rect width="238" height="49" fill="white"/>
</clipPath>
</defs>
</svg>
