<svg width="260" height="37" viewBox="0 0 260 37" fill="none" xmlns="http://www.w3.org/2000/svg">
<g clip-path="url(#clip0_71_29)">
<path d="M54.59 31.422L54.4113 31.3317C54.0848 31.168 53.8156 30.9121 53.6382 30.5969C53.4608 30.2818 53.3832 29.9217 53.4155 29.5628C53.531 28.2667 53.5443 26.9638 53.4553 25.6657C53.4284 25.3099 53.5089 24.9541 53.6868 24.643C53.8646 24.3319 54.1319 24.0794 54.4552 23.9169L54.7085 23.7905C55.0682 23.611 55.3583 23.3207 55.5342 22.964C55.7102 22.6071 55.7624 22.2035 55.6828 21.8148C55.5691 21.2606 55.4366 20.7065 55.2855 20.1523C55.1742 19.7377 55.0506 19.3272 54.9219 18.9216C54.7978 18.5394 54.5484 18.2085 54.2126 17.9805C53.8769 17.7526 53.4737 17.6404 53.0662 17.6617L52.8456 17.6727C52.4796 17.6933 52.1158 17.6058 51.8007 17.4215C51.4857 17.2373 51.2339 16.9647 51.0777 16.6387C50.5124 15.4519 49.853 14.3106 49.1056 13.2254C48.9048 12.9305 48.7969 12.5839 48.7953 12.229C48.7936 11.874 48.8983 11.5265 49.0964 11.2297L49.2404 11.0129C49.4617 10.6783 49.5648 10.2814 49.5338 9.88355C49.5028 9.48565 49.3394 9.10885 49.0688 8.81134C48.3955 8.06903 47.6819 7.36294 46.9312 6.69615C46.6291 6.42696 46.2451 6.26349 45.8387 6.23122C45.4323 6.19889 45.0265 6.29952 44.6843 6.51746L44.4903 6.64095C44.1861 6.83711 43.8295 6.93992 43.4657 6.93616C43.1019 6.9324 42.7475 6.82231 42.4477 6.61984C41.3568 5.87886 40.2092 5.22202 39.0151 4.65522C38.6913 4.49809 38.4219 4.25074 38.2402 3.94403C38.0586 3.63732 37.9729 3.28483 37.9937 2.93054L38.006 2.67956C38.0279 2.28086 37.9154 1.8862 37.6859 1.55676C37.4563 1.22733 37.1227 0.981536 36.7365 0.857495C35.7688 0.54247 34.7845 0.278736 33.7881 0.0674309C33.3894 -0.0177711 32.9733 0.0293221 32.6048 0.201342C32.2363 0.373361 31.9362 0.6606 31.7516 1.01812L31.6402 1.22894C31.476 1.54723 31.2197 1.81061 30.9034 1.98587C30.5871 2.16114 30.2252 2.24043 29.8632 2.21376C28.5644 2.11418 27.2598 2.11251 25.9608 2.20874C25.5994 2.23392 25.2385 2.15359 24.9234 1.97784C24.6083 1.8021 24.3531 1.53876 24.1898 1.2209L24.0723 0.994025C23.8889 0.637812 23.591 0.35112 23.2247 0.17848C22.8585 0.00584032 22.4445 -0.043079 22.0471 0.0393218C21.58 0.135695 21.1122 0.24445 20.6438 0.365587L20.5417 0.392692C20.0399 0.526545 19.5456 0.670099 19.0587 0.823364C18.672 0.946956 18.3375 1.19247 18.107 1.52188C17.8766 1.85129 17.7631 2.2462 17.7842 2.64543L17.7974 2.89741C17.8172 3.2535 17.7293 3.60737 17.5448 3.91445C17.3603 4.22153 17.0876 4.4681 16.7608 4.6231C15.6114 5.16322 14.5052 5.78808 13.4518 6.49235C13.1514 6.69154 12.7979 6.79908 12.4356 6.80139C12.0732 6.80369 11.7183 6.70076 11.4153 6.50539L11.2008 6.36988C10.8595 6.15085 10.454 6.04892 10.0477 6.07995C9.6413 6.111 9.25674 6.27332 8.95397 6.54154C8.17632 7.22707 7.4378 7.95433 6.7418 8.71999C6.4714 9.01751 6.30785 9.39406 6.27628 9.79178C6.24471 10.1895 6.34691 10.5864 6.56717 10.9215L6.70608 11.1314C6.90548 11.4302 7.01028 11.7804 7.00719 12.1378C7.00409 12.4952 6.89328 12.8437 6.68869 13.1391C5.98511 14.1487 5.35772 15.2077 4.81154 16.3074C4.65175 16.6254 4.40027 16.8903 4.08844 17.0688C3.77661 17.2473 3.41823 17.3316 3.05795 17.3113L2.79038 17.2973C2.38535 17.2767 1.98467 17.3875 1.64995 17.6125C1.31522 17.8376 1.06499 18.1646 0.937729 18.5431C0.603814 19.5285 0.325258 20.5312 0.103319 21.5467C0.0167792 21.9394 0.0646957 22.3492 0.239613 22.7123C0.414531 23.0754 0.706638 23.3715 1.0705 23.5545L1.28804 23.663C1.612 23.8246 1.87997 24.077 2.05811 24.3882C2.23624 24.6995 2.31656 25.0557 2.28891 25.4117C2.19474 26.6168 2.18894 27.8269 2.27155 29.0328C2.29472 29.3864 2.21161 29.7389 2.03256 30.0464C1.85352 30.3539 1.58644 30.603 1.26454 30.7625L1.01432 30.888C0.65553 31.067 0.36595 31.3562 0.189552 31.7117C0.0131541 32.0671 -0.0404301 32.4695 0.0369339 32.8576C0.153363 33.4198 0.287494 33.9806 0.439328 34.5402C0.563928 34.9979 0.700101 35.4503 0.847849 35.8974C0.993356 36.3472 1.31282 36.7229 1.73741 36.9435H6.57837C6.02779 35.7612 5.57955 34.5355 5.23844 33.2793C1.91103 21.0217 9.34818 8.38268 21.8183 5.112L21.9031 5.09091C34.3477 1.87845 47.1518 9.18176 50.4731 21.4102C51.8862 26.5835 51.4095 32.08 49.126 36.9435H54.351C54.519 36.7621 54.647 36.5485 54.7268 36.316C55.0547 35.3705 55.3308 34.4084 55.5541 33.4339C55.6433 33.0409 55.597 32.6299 55.4225 32.2657C55.2479 31.9015 54.955 31.6047 54.59 31.422Z" fill="#7C4032"/>
<path d="M16.7796 36.9534C15.5555 36.9535 14.3487 36.6693 13.2575 36.124C12.1663 35.5787 11.2217 34.7877 10.5005 33.8155C9.7793 32.8433 9.30201 31.7173 9.10751 30.5294C8.913 29.3415 9.00679 28.1251 9.38119 26.9796C9.75559 25.834 10.4001 24.7917 11.2621 23.9373C12.1241 23.0831 13.1792 22.441 14.3416 22.0636C15.5039 21.6861 16.7404 21.584 17.9505 21.7654C19.1607 21.9469 20.31 22.4068 21.305 23.1077C21.4608 23.2176 21.5659 23.384 21.597 23.5701C21.6282 23.7561 21.5828 23.9468 21.4709 24.1C21.3591 24.2532 21.1899 24.3565 21.0005 24.3871C20.8112 24.4177 20.6173 24.3731 20.4614 24.2632C19.238 23.4038 17.7426 23.002 16.2446 23.1299C14.7465 23.2579 13.3441 23.9073 12.2898 24.9613C11.2356 26.0152 10.5987 27.4045 10.4938 28.8789C10.3889 30.3534 10.823 31.8162 11.7178 33.0041C12.6126 34.192 13.9094 35.0269 15.3748 35.3586C16.8402 35.6902 18.3779 35.4967 19.7111 34.8131C21.0442 34.1294 22.0853 33.0004 22.647 31.6293C23.2086 30.2582 23.2539 28.7351 22.7747 27.3341C22.7149 27.1555 22.7293 26.961 22.815 26.7929C22.9006 26.6248 23.0504 26.4968 23.2316 26.4369C23.4129 26.377 23.6109 26.39 23.7825 26.473C23.954 26.5561 24.0852 26.7025 24.1473 26.8803C24.5391 28.0293 24.6474 29.2533 24.4632 30.4516C24.2791 31.6498 23.8077 32.7878 23.0881 33.7717C22.3684 34.7556 21.4211 35.5572 20.3242 36.1104C19.2274 36.6636 18.0124 36.9525 16.7796 36.9534Z" fill="#7C4032"/>
<path d="M38.2631 36.9533C36.9506 36.9527 35.6563 36.6509 34.4832 36.0721C33.3102 35.4933 32.2908 34.6533 31.5062 33.619C30.7215 32.5848 30.1933 31.3848 29.9635 30.1144C29.7337 28.8442 29.8087 27.5388 30.1826 26.302C30.243 26.1285 30.3692 25.9847 30.5349 25.9004C30.7007 25.8162 30.8931 25.7981 31.072 25.8499C31.2511 25.9017 31.4028 26.0193 31.4956 26.1784C31.5885 26.3374 31.6153 26.5256 31.5705 26.7036C31.0887 28.2806 31.1995 29.9752 31.8829 31.4785C32.5663 32.9818 33.7766 34.1936 35.2932 34.8929C36.8097 35.5922 38.5314 35.7323 40.1444 35.2878C41.7573 34.8433 43.1539 33.8438 44.0796 32.4715C45.0052 31.0992 45.3983 29.4455 45.187 27.8121C44.9757 26.1787 44.1741 24.6744 42.9285 23.5735C41.6828 22.4725 40.0761 21.8485 38.4014 21.8149C36.7266 21.7813 35.0953 22.3406 33.8051 23.3908C33.6559 23.4949 33.4721 23.5397 33.2907 23.5161C33.1093 23.4924 32.9437 23.4022 32.8272 23.2634C32.7108 23.1246 32.6521 22.9477 32.663 22.7681C32.6739 22.5885 32.7535 22.4197 32.886 22.2955C33.9271 21.4458 35.1612 20.855 36.4837 20.5732C37.8063 20.2913 39.1785 20.3267 40.4842 20.6762C41.7898 21.0258 42.9907 21.6792 43.9852 22.5814C44.9797 23.4835 45.7386 24.6078 46.1976 25.8591C46.6567 27.1105 46.8024 28.4521 46.6225 29.7705C46.4426 31.0888 45.9424 32.3452 45.1641 33.4335C44.3858 34.5217 43.3524 35.4096 42.1512 36.0223C40.95 36.635 39.6164 36.9543 38.2631 36.9533Z" fill="#7C4032"/>
<path d="M18.1795 29.4813C18.0317 29.4813 17.8875 29.4369 17.7661 29.354C17.6448 29.271 17.5521 29.1536 17.5006 29.0175C17.4492 28.8813 17.4413 28.7329 17.4782 28.5922C17.5149 28.4516 17.5947 28.3253 17.7066 28.2305L24.7679 22.2503L21.8388 21.3237C21.7452 21.2977 21.6579 21.2534 21.5821 21.1935C21.5063 21.1336 21.4435 21.0593 21.3976 20.975C21.3517 20.8907 21.3234 20.7982 21.3147 20.703C21.3059 20.6078 21.3167 20.5118 21.3465 20.4208C21.3763 20.3298 21.4244 20.2456 21.488 20.1732C21.5517 20.1009 21.6294 20.042 21.7168 19.9998C21.8041 19.9577 21.8992 19.9333 21.9963 19.9281C22.0934 19.9228 22.1906 19.9369 22.2821 19.9694L27.6664 21.676L18.6503 29.3137C18.5187 29.423 18.3518 29.4824 18.1795 29.4813Z" fill="#7C4032"/>
<path d="M36.9708 26.7427C36.8992 26.7426 36.828 26.7321 36.7594 26.7116L27.1765 23.8405L32.7835 18.6935C32.9251 18.5722 33.109 18.5097 33.2965 18.5193C33.484 18.5287 33.6604 18.6095 33.7886 18.7444C33.9167 18.8793 33.9865 19.0579 33.9833 19.2424C33.98 19.427 33.9039 19.6031 33.7711 19.7335L29.9923 23.1979L37.1761 25.3503C37.3415 25.4 37.4834 25.5063 37.576 25.6498C37.6686 25.7934 37.7058 25.9648 37.6811 26.1331C37.6563 26.3013 37.571 26.4553 37.4408 26.5671C37.3104 26.6789 37.1438 26.7412 36.9708 26.7427Z" fill="#7C4032"/>
<path d="M17.704 20.643C17.5409 20.6429 17.3826 20.5888 17.2548 20.4892C17.1269 20.3898 17.0371 20.2508 16.9996 20.0948C16.9621 19.9388 16.9793 19.775 17.0484 19.6297C17.1175 19.4845 17.2344 19.3666 17.3802 19.2948C19.9263 18.049 26.141 16.0241 30.7174 15.6205C30.812 15.6125 30.9074 15.6227 30.9979 15.6509C31.0885 15.6789 31.1726 15.7243 31.2453 15.7844C31.318 15.8443 31.378 15.9179 31.4219 16.0007C31.4657 16.0836 31.4925 16.1741 31.5008 16.2671C31.509 16.36 31.4986 16.4538 31.47 16.5428C31.4414 16.6318 31.3952 16.7145 31.3341 16.786C31.273 16.8575 31.1983 16.9164 31.114 16.9595C31.0298 17.0026 30.9376 17.029 30.8431 17.037C26.4412 17.4256 20.4676 19.3721 18.0216 20.5688C17.923 20.6173 17.8142 20.6427 17.704 20.643Z" fill="#7C4032"/>
<path d="M14.3932 19.0951C14.2296 19.0948 14.071 19.04 13.9431 18.9398C13.8152 18.8396 13.7256 18.6998 13.6889 18.5431C13.6522 18.3864 13.6705 18.2221 13.7409 18.077C13.8113 17.9319 13.9296 17.8144 14.0765 17.7438C19.6069 15.1016 26.036 14.0686 30.4552 13.6681C30.5499 13.6595 30.6453 13.6693 30.736 13.697C30.8268 13.7247 30.9111 13.7696 30.9842 13.8293C31.0573 13.889 31.1176 13.9623 31.1619 14.045C31.2062 14.1276 31.2334 14.218 31.2422 14.311C31.2509 14.4041 31.2409 14.4978 31.2127 14.5871C31.1845 14.6762 31.1388 14.7591 31.0781 14.831C31.0173 14.9028 30.9428 14.9622 30.8587 15.0056C30.7746 15.0491 30.6826 15.0759 30.588 15.0846C26.2894 15.4751 20.044 16.4749 14.7067 19.0238C14.6089 19.0703 14.5018 19.0946 14.3932 19.0951Z" fill="#7C4032"/>
<path d="M37.8949 12.6631C37.5976 12.3122 37.2209 12.0344 36.795 11.852C35.9565 11.5077 35.1353 11.1994 32.5882 11.1162C31.7028 11.0929 30.817 11.1419 29.9399 11.2627C29.7615 11.2993 29.6037 11.4009 29.4983 11.547C29.3927 11.6931 29.3472 11.8729 29.3709 12.0506C29.3945 12.2282 29.4855 12.3905 29.6257 12.5051C29.7658 12.6196 29.9448 12.6778 30.1268 12.6682C31.1978 12.5145 32.2835 12.4862 33.3613 12.5838C32.9912 12.9911 32.7436 13.4916 32.646 14.0292C32.5485 14.5668 32.605 15.1205 32.8092 15.6285C33.0133 16.1364 33.3572 16.5785 33.8022 16.9054C34.2472 17.2323 34.776 17.4312 35.3294 17.4798C35.4203 17.4879 35.5112 17.4919 35.601 17.4919C36.3484 17.4904 37.0683 17.2144 37.6194 16.7181C38.1706 16.2219 38.5132 15.5412 38.5802 14.8095C38.6159 14.4249 38.5737 14.0373 38.4561 13.6689C38.3384 13.3005 38.1477 12.9586 37.8949 12.6631ZM37.1381 14.687C37.1114 14.981 36.9983 15.2609 36.8125 15.4928C36.6268 15.7248 36.3765 15.8986 36.092 15.9931C35.8076 16.0877 35.5013 16.0989 35.2105 16.0255C34.9198 15.952 34.6569 15.797 34.4541 15.5793C34.2514 15.3617 34.1173 15.0907 34.0684 14.7995C34.0194 14.5084 34.0577 14.2095 34.1784 13.9393C34.2992 13.669 34.4974 13.4392 34.7486 13.2777C35 13.1162 35.2937 13.03 35.5939 13.0295C35.6398 13.0295 35.6868 13.0295 35.7338 13.0356C36.1426 13.0721 36.52 13.2663 36.7833 13.5759C37.0466 13.8855 37.1741 14.2851 37.1381 14.687Z" fill="#7C4032"/>
<path d="M68.0952 0.272949H77.7746C81.6431 0.272949 84.6857 2.99087 84.6857 7.20237C84.6857 10.7353 82.6106 12.7746 80.1233 13.5897L84.963 19.2984H78.0489L73.9031 13.8626V19.2984H68.0952V0.272949ZM77.3543 8.83238C77.7672 8.79374 78.1504 8.60534 78.429 8.30394C78.7082 8.00248 78.8623 7.60974 78.8623 7.20237C78.8623 6.79495 78.7082 6.4022 78.429 6.1008C78.1504 5.79939 77.7672 5.61097 77.3543 5.57235H73.9031V8.83238H77.3543Z" fill="#7C4032"/>
<path d="M87.0374 9.78377C87.0374 4.07872 91.1645 0 96.5744 0C101.984 0 106.115 4.07872 106.115 9.78377C106.115 15.4888 101.966 19.5675 96.5744 19.5675C91.1831 19.5675 87.0374 15.4925 87.0374 9.78377ZM100.307 9.78377C100.307 7.20232 98.6495 5.57229 96.5558 5.57229C94.4622 5.57229 92.8038 7.20232 92.8038 9.78377C92.8038 12.3652 94.4622 13.9989 96.5558 13.9989C98.6495 13.9989 100.307 12.3652 100.307 9.78377Z" fill="#7C4032"/>
<path d="M109.016 11.1446V0.272949H114.823V11.1446C114.823 12.9111 115.93 13.999 117.45 13.999C118.969 13.999 120.076 12.9111 120.076 11.1446V0.272949H125.88V11.1446C125.88 16.3076 122.563 19.5676 117.446 19.5676C112.328 19.5676 109.016 16.3076 109.016 11.1446Z" fill="#7C4032"/>
<path d="M129.478 0.272949H135.976L140.264 8.56319H140.815V0.272949H146.623V19.2984H140.125L135.841 11.0193H135.285V19.3094H129.478V0.272949Z" fill="#7C4032"/>
<path d="M150.356 0.272949H157.819C163.352 0.272949 167.498 4.34799 167.498 9.78382C167.498 15.2197 163.371 19.2984 157.819 19.2984H150.356V0.272949ZM157.957 13.7261C160.033 13.7261 161.71 12.0961 161.71 9.78382C161.71 7.47156 160.051 5.84524 157.957 5.84524H156.16V13.7261H157.957Z" fill="#7C4032"/>
<path d="M179.25 0.272949H188.929C192.798 0.272949 195.84 2.99087 195.84 7.20237C195.84 10.7353 193.765 12.7746 191.278 13.5897L196.118 19.2984H189.203L185.058 13.8626V19.2984H179.25V0.272949ZM188.513 8.83238C188.925 8.79374 189.309 8.60534 189.587 8.30394C189.866 8.00248 190.021 7.60974 190.021 7.20237C190.021 6.79495 189.866 6.4022 189.587 6.1008C189.309 5.79939 188.925 5.61097 188.513 5.57235H185.058V8.83238H188.513Z" fill="#7C4032"/>
<path d="M198.192 9.78377C198.192 4.07872 202.337 0 207.729 0C213.12 0 217.269 4.07872 217.269 9.78377C217.269 15.4888 213.12 19.5675 207.729 19.5675C202.337 19.5675 198.192 15.4925 198.192 9.78377ZM211.462 9.78377C211.462 7.20232 209.804 5.57229 207.729 5.57229C205.654 5.57229 203.996 7.20232 203.996 9.78377C203.996 12.3652 205.654 13.9989 207.729 13.9989C209.804 13.9989 211.462 12.3652 211.462 9.78377Z" fill="#7C4032"/>
<path d="M219.619 9.78377C219.619 4.07872 223.768 0 229.159 0C234.138 0 237.593 3.39648 238.284 8.01729H232.476C232.288 7.30004 231.857 6.6671 231.254 6.22267C230.651 5.77825 229.913 5.54887 229.159 5.5723C227.085 5.5723 225.427 7.20232 225.427 9.78377C225.427 12.3653 227.085 13.9989 229.159 13.9989C230.956 13.9989 232.063 12.9111 232.476 11.4175H238.284C237.593 16.1748 234.138 19.5712 229.159 19.5712C223.768 19.5675 219.619 15.4925 219.619 9.78377Z" fill="#7C4032"/>
<path d="M241.326 0.272949H247.13V8.01734L251.28 0.272949H257.916L252.664 9.64741L258.472 19.2984H251.831L247.13 11.1446V19.2984H241.326V0.272949Z" fill="#7C4032"/>
<path d="M68.0952 27.903H71.7309C72.0522 27.8922 72.3728 27.9465 72.6725 28.0626C72.9721 28.1787 73.2438 28.3541 73.4716 28.5778C73.6995 28.8015 73.8777 29.0689 73.996 29.3632C74.1136 29.6577 74.1693 29.9727 74.1582 30.289C74.178 30.6798 74.0876 31.0685 73.8957 31.4116C73.7044 31.7548 73.4196 32.0389 73.0736 32.2324V32.2952C73.4593 32.4692 73.7812 32.7544 73.9978 33.1127C74.2139 33.471 74.3148 33.8856 74.2857 34.3013C74.2968 34.6174 74.2411 34.9323 74.1235 35.2265C74.0053 35.5207 73.8264 35.7878 73.5992 36.0113C73.3714 36.2347 73.099 36.4098 72.8 36.5255C72.5004 36.6411 72.1797 36.6949 71.8584 36.6837H68.1064L68.0952 27.903ZM71.7309 31.919C71.9556 31.9295 72.1797 31.8951 72.3908 31.8178C72.6013 31.7405 72.7938 31.622 72.9566 31.4695C73.1194 31.3169 73.2488 31.1334 73.3373 30.9302C73.4258 30.727 73.4716 30.5082 73.4716 30.2871C73.4716 30.0661 73.4258 29.8473 73.3373 29.6441C73.2488 29.4408 73.1194 29.2574 72.9566 29.1048C72.7938 28.9522 72.6013 28.8338 72.3908 28.7565C72.1797 28.6792 71.9556 28.6448 71.7309 28.6553H68.8604V31.919H71.7309ZM71.8584 35.9313C72.0782 35.9385 72.2973 35.9013 72.5022 35.8219C72.7065 35.7426 72.8928 35.6229 73.0482 35.4701C73.2042 35.3173 73.3262 35.1348 73.4073 34.9337C73.489 34.7327 73.5274 34.5175 73.5205 34.3013C73.5379 34.0826 73.5069 33.8626 73.4295 33.6568C73.3522 33.451 73.2302 33.2641 73.0724 33.109C72.9139 32.9541 72.7238 32.8346 72.514 32.7591C72.3047 32.6835 72.0806 32.6535 71.8584 32.6713H68.8566V35.9313H71.8584Z" fill="#7C4032"/>
<path d="M83.5764 27.9016H84.3267V36.6823H83.5764V27.9016Z" fill="#7C4032"/>
<path d="M93.6121 32.4192C93.6121 29.7197 95.4618 27.9016 97.8216 27.9016C98.7081 27.9081 99.5679 28.2002 100.269 28.7331C100.971 29.266 101.475 30.0103 101.704 30.8518H100.875C100.669 30.212 100.261 29.6532 99.7109 29.2555C99.1612 28.8579 98.497 28.6421 97.8141 28.6392C95.9007 28.6392 94.3698 30.1438 94.3698 32.4045C94.3698 34.6651 95.9007 36.166 97.8141 36.166C98.5031 36.1637 99.1736 35.9427 99.7251 35.5362C100.277 35.1296 100.68 34.5589 100.875 33.9091H101.704C101.481 34.7604 100.979 35.516 100.276 36.0596C99.5735 36.6033 98.7081 36.905 97.8141 36.9183C95.4618 36.9331 93.6121 35.115 93.6121 32.4192Z" fill="#7C4032"/>
<path d="M114.307 33.3854L110.99 27.9016H111.846L114.573 32.4192H114.828L117.548 27.9016H118.404L115.084 33.3854V36.6823H114.333L114.307 33.3854Z" fill="#7C4032"/>
<path d="M127.69 32.4192C127.69 29.7197 129.54 27.9016 131.899 27.9016C132.788 27.9057 133.65 28.1967 134.354 28.7297C135.058 29.2628 135.564 30.0085 135.794 30.8518H134.965C134.758 30.2118 134.349 29.6527 133.799 29.2551C133.248 28.8575 132.583 28.6419 131.899 28.6392C129.986 28.6392 128.455 30.1438 128.455 32.4045C128.455 34.6651 129.986 36.166 131.899 36.166C132.59 36.1644 133.261 35.9439 133.813 35.5373C134.365 35.1306 134.769 34.5596 134.965 33.9091H135.794C135.57 34.7607 135.067 35.5163 134.363 36.06C133.66 36.6036 132.794 36.9052 131.899 36.9183C129.54 36.9331 127.69 35.115 127.69 32.4192Z" fill="#7C4032"/>
<path d="M145.079 27.9016H145.829V35.9299H150.425V36.6675H145.079V27.9016Z" fill="#7C4032"/>
<path d="M159.723 27.9016H165.35V28.6392H160.488V31.9029H165.084V32.6405H160.488V35.9005H165.339V36.638H159.711L159.723 27.9016Z" fill="#7C4032"/>
<path d="M179.524 27.9016H183.223C184.754 27.9016 185.849 28.9674 185.849 30.5384C185.849 32.1684 184.702 33.2342 183.223 33.2342H182.33L186.029 36.6823H185.009L181.31 33.2342H180.289V36.6823H179.539L179.524 27.9016ZM183.223 32.4819C184.307 32.4819 185.073 31.7443 185.073 30.5384C185.09 30.2921 185.055 30.045 184.969 29.8131C184.883 29.5811 184.749 29.3694 184.575 29.1918C184.4 29.0141 184.19 28.8745 183.957 28.7818C183.724 28.6892 183.474 28.6456 183.223 28.6539H180.289V32.4819H183.223Z" fill="#7C4032"/>
<path d="M195.326 27.9016H200.954V28.6392H196.092V31.9029H200.687V32.6405H196.092V35.9005H200.942V36.638H195.315L195.326 27.9016Z" fill="#7C4032"/>
<path d="M210.24 27.9016H213.939C214.295 27.9012 214.646 27.9717 214.973 28.1088C215.299 28.2458 215.595 28.4466 215.84 28.6989C216.086 28.9513 216.276 29.25 216.401 29.5769C216.526 29.9039 216.582 30.2523 216.565 30.6011C216.587 30.9479 216.534 31.2953 216.41 31.6208C216.286 31.9463 216.094 32.2426 215.847 32.4907C215.6 32.7388 215.302 32.9332 214.973 33.0613C214.645 33.1893 214.292 33.2482 213.939 33.2342H211.006V36.6823H210.255L210.24 27.9016ZM213.939 32.4819C214.19 32.4907 214.44 32.4476 214.674 32.3554C214.906 32.2632 215.117 32.124 215.291 31.9467C215.467 31.7694 215.601 31.558 215.688 31.3262C215.774 31.0944 215.81 30.8474 215.793 30.6011C215.793 29.4062 215.023 28.6539 213.939 28.6539H211.006V32.4819H213.939Z" fill="#7C4032"/>
<path d="M229.221 27.9016H230.369L233.746 36.6823H232.995L232.076 34.2999H227.526L226.606 36.6823H225.856L229.221 27.9016ZM231.776 33.5476L229.922 28.7166H229.667L227.818 33.5476H231.776Z" fill="#7C4032"/>
<path d="M243.031 27.9016H243.781V36.6823H243.031V27.9016Z" fill="#7C4032"/>
<path d="M253.067 27.9016H256.767C258.298 27.9016 259.393 28.9674 259.393 30.5384C259.393 32.1684 258.245 33.2342 256.767 33.2342H255.874L259.573 36.6823H258.568L254.868 33.2342H253.848V36.6823H253.098L253.067 27.9016ZM256.767 32.4819C257.851 32.4819 258.617 31.7443 258.617 30.5384C258.634 30.2921 258.599 30.045 258.513 29.8131C258.427 29.5811 258.292 29.3694 258.118 29.1918C257.944 29.0141 257.733 28.8745 257.5 28.7818C257.268 28.6892 257.018 28.6456 256.767 28.6539H253.833V32.4819H256.767Z" fill="#7C4032"/>
</g>
<defs>
<clipPath id="clip0_71_29">
<rect width="260" height="37" fill="white"/>
</clipPath>
</defs>
</svg>
