<svg width="244" height="54" viewBox="0 0 244 54" fill="none" xmlns="http://www.w3.org/2000/svg">
<g clip-path="url(#clip0_71_88)">
<path d="M67.3547 11.2665V18.8768H71.5903C72.8291 18.8768 73.79 18.5404 74.4745 17.8677C75.1695 17.1949 75.5173 16.2629 75.5173 15.0717C75.5173 13.9136 75.1586 12.9927 74.4417 12.3088C73.7248 11.614 72.7582 11.2665 71.5418 11.2665H67.3547ZM67.3547 22.5V31.2353H62.4341V7.36212H72.0632C74.7462 7.36212 76.8316 8.04046 78.3196 9.39707C79.8186 10.7427 80.5678 12.6011 80.5678 14.9724C80.5678 16.5276 80.1877 17.9173 79.4275 19.1415C78.6778 20.3548 77.6351 21.2261 76.2993 21.7556L81.2523 31.2353H75.6799L71.2973 22.5H67.3547ZM97.5774 29.1673C96.0242 30.7997 93.9169 31.6159 91.2558 31.6159C88.5947 31.6159 86.4874 30.7942 84.9342 29.1508C83.3811 27.5074 82.6047 25.2408 82.6047 22.3511C82.6047 19.4945 83.3868 17.2445 84.9509 15.6011C86.5254 13.9467 88.6276 13.1195 91.2558 13.1195C93.8955 13.1195 95.9971 13.9467 97.5612 15.6011C99.1253 17.2445 99.9074 19.4945 99.9074 22.3511C99.9074 25.2518 99.1305 27.5239 97.5774 29.1673ZM91.2558 27.9265C92.4289 27.9265 93.3574 27.4412 94.042 26.4706C94.7265 25.5 95.0686 24.1324 95.0686 22.3677C95.0686 20.625 94.7265 19.2629 94.042 18.2812C93.3574 17.2997 92.4289 16.8088 91.2558 16.8088C90.0827 16.8088 89.149 17.2997 88.4535 18.2812C87.7694 19.2629 87.4274 20.625 87.4274 22.3677C87.4274 24.1324 87.7694 25.5 88.4535 26.4706C89.138 27.4412 90.0718 27.9265 91.2558 27.9265ZM118.497 13.5V31.2353H113.903V28.0423H113.805C112.893 30.3915 111.15 31.5662 108.575 31.5662C106.663 31.5662 105.137 30.9761 103.997 29.7959C102.856 28.6048 102.286 26.9835 102.286 24.932V13.5H107.043V23.9228C107.043 25.103 107.321 26.0019 107.874 26.6195C108.44 27.2371 109.249 27.5459 110.302 27.5459C111.356 27.5459 112.192 27.193 112.811 26.4871C113.43 25.7813 113.74 24.8383 113.74 23.6581V13.5H118.497ZM121.593 31.2353V13.5H126.187V16.66H126.285C126.763 15.535 127.459 14.6747 128.371 14.0791C129.294 13.4724 130.418 13.1691 131.744 13.1691C133.677 13.1691 135.17 13.7537 136.224 14.9228C137.277 16.0919 137.804 17.7188 137.804 19.8033V31.2353H133.047V20.8125C133.047 19.6434 132.775 18.7445 132.232 18.1159C131.689 17.4871 130.891 17.1728 129.837 17.1728C128.783 17.1728 127.936 17.5313 127.295 18.2482C126.666 18.9651 126.351 19.9026 126.351 21.0607V31.2353H121.593ZM147.303 31.5165C145.12 31.5165 143.387 30.6949 142.105 29.0515C140.824 27.4081 140.183 25.1692 140.183 22.3346C140.183 19.5221 140.824 17.2997 142.105 15.6673C143.398 14.0349 145.141 13.2188 147.336 13.2188C148.574 13.2188 149.66 13.5221 150.594 14.1287C151.539 14.7353 152.229 15.5405 152.663 16.5441H152.761V7.36212H157.518V31.2353H152.826V28.1912H152.745C152.31 29.1949 151.61 30 150.643 30.6066C149.676 31.2132 148.563 31.5165 147.303 31.5165ZM148.916 17.0901C147.721 17.0901 146.776 17.5644 146.081 18.5129C145.397 19.4614 145.055 20.7463 145.055 22.3677C145.055 24 145.397 25.2849 146.081 26.2224C146.776 27.16 147.721 27.6287 148.916 27.6287C150.1 27.6287 151.039 27.16 151.734 26.2224C152.44 25.2739 152.793 23.989 152.793 22.3677C152.793 20.7574 152.44 19.478 151.734 18.5294C151.039 17.5699 150.1 17.0901 148.916 17.0901ZM172.638 11.2665V18.8768H176.874C178.113 18.8768 179.074 18.5404 179.758 17.8677C180.453 17.1949 180.801 16.2629 180.801 15.0717C180.801 13.9136 180.443 12.9927 179.726 12.3088C179.009 11.614 178.042 11.2665 176.825 11.2665H172.638ZM172.638 22.5V31.2353H167.718V7.36212H177.347C180.03 7.36212 182.115 8.04046 183.603 9.39707C185.102 10.7427 185.852 12.6011 185.852 14.9724C185.852 16.5276 185.472 17.9173 184.711 19.1415C183.962 20.3548 182.919 21.2261 181.583 21.7556L186.536 31.2353H180.964L176.581 22.5H172.638ZM202.861 29.1673C201.308 30.7997 199.201 31.6159 196.54 31.6159C193.879 31.6159 191.771 30.7942 190.218 29.1508C188.665 27.5074 187.888 25.2408 187.888 22.3511C187.888 19.4945 188.67 17.2445 190.234 15.6011C191.809 13.9467 193.911 13.1195 196.54 13.1195C199.179 13.1195 201.281 13.9467 202.845 15.6011C204.409 17.2445 205.191 19.4945 205.191 22.3511C205.191 25.2518 204.414 27.5239 202.861 29.1673ZM196.54 27.9265C197.713 27.9265 198.641 27.4412 199.325 26.4706C200.01 25.5 200.352 24.1324 200.352 22.3677C200.352 20.625 200.01 19.2629 199.325 18.2812C198.641 17.2997 197.713 16.8088 196.54 16.8088C195.367 16.8088 194.432 17.2997 193.737 18.2812C193.053 19.2629 192.711 20.625 192.711 22.3677C192.711 24.1324 193.053 25.5 193.737 26.4706C194.421 27.4412 195.356 27.9265 196.54 27.9265ZM223.521 20.1011H219.105C218.964 19.1415 218.589 18.3695 217.981 17.785C217.383 17.2004 216.607 16.9081 215.651 16.9081C214.467 16.9081 213.533 17.3934 212.849 18.364C212.175 19.3235 211.838 20.6526 211.838 22.3511C211.838 24.0827 212.175 25.4283 212.849 26.3879C213.533 27.3474 214.473 27.8272 215.667 27.8272C216.612 27.8272 217.383 27.557 217.981 27.0165C218.578 26.4651 218.953 25.7041 219.105 24.7335H223.537C223.417 26.8291 222.64 28.5 221.207 29.7463C219.773 30.9927 217.91 31.6159 215.618 31.6159C212.968 31.6159 210.872 30.7942 209.329 29.1508C207.787 27.4963 207.016 25.2298 207.016 22.3511C207.016 19.5166 207.787 17.2721 209.329 15.6177C210.883 13.9522 212.968 13.1195 215.586 13.1195C217.91 13.1195 219.784 13.7702 221.207 15.0717C222.64 16.3732 223.412 18.0497 223.521 20.1011ZM230.771 20.614L236.701 13.5H242.094L235.43 21.1103L242.42 31.2353H236.946L231.944 24.0221L230.705 25.3787V31.2353H225.948V7.36212H230.705V20.614H230.771ZM67.3938 46.2522V47.1177H61.407V37.0462H67.3938V37.9116H62.3418V41.534H67.1394V42.3855H62.3418V46.2522H67.3938ZM74.473 47.1177V37.0462H75.3807V47.1177H74.473ZM85.3946 40.5499C84.758 40.5499 84.233 40.7756 83.8206 41.2269C83.4129 41.6736 83.1908 42.2576 83.1543 42.9788H87.5666C87.5577 42.2576 87.3539 41.6736 86.955 41.2269C86.5567 40.7756 86.0364 40.5499 85.3946 40.5499ZM87.5119 45.0587H88.4123C88.3022 45.6961 87.9769 46.2196 87.4363 46.6291C86.9003 47.0339 86.2423 47.2363 85.4634 47.2363C84.4603 47.2363 83.6673 46.9036 83.0854 46.2383C82.5036 45.5682 82.2122 44.6585 82.2122 43.5092C82.2122 42.3785 82.5036 41.4689 83.0854 40.7802C83.6673 40.0869 84.4415 39.7403 85.4087 39.7403C86.3523 39.7403 87.1041 40.066 87.6631 40.7174C88.222 41.3688 88.5014 42.2366 88.5014 43.3208V43.7116H83.147V43.7675C83.147 44.5864 83.3581 45.2355 83.7794 45.7148C84.2012 46.1894 84.7695 46.4267 85.4843 46.4267C86.0114 46.4267 86.4556 46.3011 86.8174 46.0498C87.1798 45.7985 87.4112 45.4682 87.5119 45.0587ZM101.093 42.1552H100.2C100.099 41.6853 99.8677 41.3014 99.5059 41.0036C99.1483 40.7058 98.6994 40.5569 98.1587 40.5569C97.4575 40.5569 96.896 40.8221 96.4747 41.3526C96.0576 41.883 95.849 42.5949 95.849 43.4883C95.849 44.391 96.0597 45.1052 96.4815 45.631C96.9033 46.1568 97.4642 46.4197 98.1655 46.4197C98.6973 46.4197 99.1415 46.2801 99.4991 46.0009C99.861 45.7218 100.095 45.3449 100.2 44.8703H101.1C101 45.5682 100.679 46.1382 100.138 46.5803C99.6018 47.0176 98.9423 47.2363 98.1587 47.2363C97.178 47.2363 96.3923 46.9013 95.8011 46.2313C95.2145 45.5566 94.921 44.6422 94.921 43.4883C94.921 42.3483 95.2145 41.4386 95.8011 40.7593C96.3923 40.0799 97.1759 39.7403 98.1519 39.7403C98.9627 39.7403 99.6321 39.9729 100.159 40.4382C100.69 40.9035 101.002 41.4759 101.093 42.1552ZM108.187 38.0442H109.094V39.859H110.503V40.6267H109.094V45.289C109.094 45.6613 109.169 45.9335 109.321 46.1056C109.472 46.2732 109.713 46.3569 110.043 46.3569C110.299 46.3569 110.464 46.3476 110.538 46.329V47.1177C110.409 47.1456 110.185 47.1595 109.864 47.1595C109.264 47.1595 108.833 47.0199 108.571 46.7408C108.315 46.457 108.187 45.987 108.187 45.3309V40.6267H107.122V39.859H108.187V38.0442ZM117.356 47.1177V39.859H118.215V41.1501H118.236C118.368 40.7081 118.593 40.3638 118.909 40.1172C119.226 39.8659 119.604 39.7403 120.043 39.7403C120.217 39.7403 120.405 39.7659 120.607 39.8171V40.7244C120.46 40.6546 120.233 40.6197 119.926 40.6197C119.422 40.6197 119.019 40.8011 118.717 41.1641C118.414 41.527 118.263 42.004 118.263 42.5949V47.1177H117.356ZM127.212 47.1177V39.859H128.12V47.1177H127.212ZM127.666 38.3932C127.501 38.3932 127.359 38.335 127.24 38.2187C127.121 38.0978 127.061 37.9512 127.061 37.7791C127.061 37.6115 127.121 37.4696 127.24 37.3533C127.359 37.2323 127.501 37.1718 127.666 37.1718C127.835 37.1718 127.98 37.2323 128.099 37.3533C128.218 37.4696 128.278 37.6115 128.278 37.7791C128.278 37.9512 128.218 38.0978 128.099 38.2187C127.98 38.335 127.835 38.3932 127.666 38.3932ZM141.124 42.1552H140.23C140.129 41.6853 139.898 41.3014 139.536 41.0036C139.178 40.7058 138.729 40.5569 138.189 40.5569C137.488 40.5569 136.927 40.8221 136.505 41.3526C136.088 41.883 135.879 42.5949 135.879 43.4883C135.879 44.391 136.09 45.1052 136.512 45.631C136.933 46.1568 137.494 46.4197 138.196 46.4197C138.727 46.4197 139.172 46.2801 139.529 46.0009C139.891 45.7218 140.125 45.3449 140.23 44.8703H141.131C141.03 45.5682 140.709 46.1382 140.168 46.5803C139.632 47.0176 138.972 47.2363 138.189 47.2363C137.208 47.2363 136.422 46.9013 135.831 46.2313C135.245 45.5566 134.952 44.6422 134.952 43.4883C134.952 42.3483 135.245 41.4386 135.831 40.7593C136.422 40.0799 137.206 39.7403 138.182 39.7403C138.993 39.7403 139.662 39.9729 140.189 40.4382C140.721 40.9035 141.032 41.4759 141.124 42.1552ZM155.936 44.3817H156.877C156.928 44.9866 157.209 45.4775 157.723 45.8544C158.236 46.2266 158.88 46.4128 159.654 46.4128C160.396 46.4128 161.006 46.2289 161.482 45.8614C161.964 45.4937 162.204 45.0261 162.204 44.4585C162.204 43.9885 162.037 43.607 161.702 43.3138C161.368 43.016 160.832 42.7717 160.094 42.581L158.864 42.2599C157.943 42.0226 157.269 41.6969 156.843 41.2827C156.422 40.8686 156.21 40.3312 156.21 39.6705C156.21 38.8609 156.532 38.1955 157.173 37.6743C157.815 37.1485 158.625 36.8857 159.606 36.8857C160.568 36.8857 161.368 37.1462 162.005 37.6673C162.647 38.1838 162.981 38.8423 163.008 39.6426H162.067C162.021 39.0749 161.771 38.6189 161.318 38.2746C160.864 37.9256 160.284 37.7511 159.578 37.7511C158.887 37.7511 158.314 37.9279 157.86 38.2816C157.411 38.6306 157.186 39.0819 157.186 39.6356C157.186 40.0683 157.349 40.4219 157.674 40.6965C158 40.9664 158.529 41.1967 159.262 41.3875L160.335 41.6666C161.334 41.9225 162.055 42.2599 162.5 42.6787C162.944 43.0974 163.166 43.6558 163.166 44.3538C163.166 45.2378 162.841 45.9475 162.19 46.4825C161.54 47.013 160.667 47.2782 159.572 47.2782C158.536 47.2782 157.684 47.013 157.015 46.4825C156.346 45.9475 155.986 45.2471 155.936 44.3817ZM172.782 40.5499C172.145 40.5499 171.62 40.7756 171.208 41.2269C170.8 41.6736 170.578 42.2576 170.542 42.9788H174.954C174.945 42.2576 174.741 41.6736 174.343 41.2269C173.944 40.7756 173.424 40.5499 172.782 40.5499ZM174.899 45.0587H175.8C175.69 45.6961 175.364 46.2196 174.824 46.6291C174.288 47.0339 173.63 47.2363 172.851 47.2363C171.847 47.2363 171.055 46.9036 170.473 46.2383C169.891 45.5682 169.6 44.6585 169.6 43.5092C169.6 42.3785 169.891 41.4689 170.473 40.7802C171.055 40.0869 171.829 39.7403 172.796 39.7403C173.74 39.7403 174.492 40.066 175.051 40.7174C175.609 41.3688 175.889 42.2366 175.889 43.3208V43.7116H170.534V43.7675C170.534 44.5864 170.746 45.2355 171.167 45.7148C171.589 46.1894 172.157 46.4267 172.872 46.4267C173.399 46.4267 173.843 46.3011 174.205 46.0498C174.567 45.7985 174.799 45.4682 174.899 45.0587ZM182.666 47.1177V39.859H183.525V41.1501H183.546C183.679 40.7081 183.903 40.3638 184.219 40.1172C184.536 39.8659 184.914 39.7403 185.354 39.7403C185.528 39.7403 185.716 39.7659 185.917 39.8171V40.7244C185.771 40.6546 185.544 40.6197 185.237 40.6197C184.733 40.6197 184.329 40.8011 184.027 41.1641C183.725 41.527 183.573 42.004 183.573 42.5949V47.1177H182.666ZM198.069 39.859L195.416 47.1177H194.447L191.787 39.859H192.749L194.921 46.1475H194.942L197.121 39.859H198.069ZM204.585 47.1177V39.859H205.493V47.1177H204.585ZM205.039 38.3932C204.874 38.3932 204.732 38.335 204.613 38.2187C204.494 38.0978 204.434 37.9512 204.434 37.7791C204.434 37.6115 204.494 37.4696 204.613 37.3533C204.732 37.2323 204.874 37.1718 205.039 37.1718C205.209 37.1718 205.353 37.2323 205.472 37.3533C205.591 37.4696 205.651 37.6115 205.651 37.7791C205.651 37.9512 205.591 38.0978 205.472 38.2187C205.353 38.335 205.209 38.3932 205.039 38.3932ZM218.497 42.1552H217.604C217.502 41.6853 217.271 41.3014 216.909 41.0036C216.551 40.7058 216.102 40.5569 215.562 40.5569C214.861 40.5569 214.3 40.8221 213.878 41.3526C213.461 41.883 213.252 42.5949 213.252 43.4883C213.252 44.391 213.463 45.1052 213.885 45.631C214.306 46.1568 214.867 46.4197 215.569 46.4197C216.1 46.4197 216.545 46.2801 216.902 46.0009C217.264 45.7218 217.498 45.3449 217.604 44.8703H218.504C218.403 45.5682 218.082 46.1382 217.541 46.5803C217.005 47.0176 216.345 47.2363 215.562 47.2363C214.581 47.2363 213.795 46.9013 213.204 46.2313C212.618 45.5566 212.325 44.6422 212.325 43.4883C212.325 42.3483 212.618 41.4386 213.204 40.7593C213.795 40.0799 214.579 39.7403 215.555 39.7403C216.366 39.7403 217.035 39.9729 217.562 40.4382C218.094 40.9035 218.405 41.4759 218.497 42.1552ZM228.023 40.5499C227.386 40.5499 226.861 40.7756 226.449 41.2269C226.041 41.6736 225.819 42.2576 225.783 42.9788H230.195C230.186 42.2576 229.982 41.6736 229.583 41.2269C229.185 40.7756 228.665 40.5499 228.023 40.5499ZM230.14 45.0587H231.041C230.931 45.6961 230.605 46.2196 230.065 46.6291C229.529 47.0339 228.871 47.2363 228.092 47.2363C227.088 47.2363 226.296 46.9036 225.714 46.2383C225.132 45.5682 224.841 44.6585 224.841 43.5092C224.841 42.3785 225.132 41.4689 225.714 40.7802C226.296 40.0869 227.07 39.7403 228.037 39.7403C228.981 39.7403 229.733 40.066 230.292 40.7174C230.85 41.3688 231.13 42.2366 231.13 43.3208V43.7116H225.775V43.7675C225.775 44.5864 225.987 45.2355 226.408 45.7148C226.83 46.1894 227.398 46.4267 228.113 46.4267C228.64 46.4267 229.084 46.3011 229.446 46.0498C229.808 45.7985 230.04 45.4682 230.14 45.0587ZM237.763 41.7992C237.763 41.199 238.001 40.7058 238.478 40.3196C238.959 39.9334 239.577 39.7403 240.334 39.7403C241.062 39.7403 241.665 39.9404 242.141 40.3405C242.622 40.736 242.886 41.2525 242.932 41.89H242.059C242.004 41.4572 241.821 41.1176 241.509 40.871C241.202 40.6244 240.801 40.5011 240.306 40.5011C239.82 40.5011 239.424 40.6197 239.117 40.857C238.814 41.0897 238.663 41.3875 238.663 41.7504C238.663 42.0482 238.773 42.2924 238.993 42.4832C239.213 42.6694 239.561 42.8229 240.038 42.9439L241.096 43.2021C241.811 43.3836 242.317 43.6209 242.616 43.914C242.913 44.2072 243.062 44.6143 243.062 45.1355C243.062 45.7497 242.805 46.2545 242.292 46.65C241.779 47.0409 241.119 47.2363 240.313 47.2363C239.547 47.2363 238.911 47.0386 238.402 46.643C237.898 46.2475 237.616 45.7288 237.557 45.0866H238.464C238.528 45.5194 238.727 45.859 239.062 46.1056C239.401 46.3522 239.836 46.4755 240.368 46.4755C240.904 46.4755 241.335 46.3592 241.66 46.1265C241.985 45.8939 242.148 45.5868 242.148 45.2053C242.148 44.8888 242.047 44.6399 241.846 44.4585C241.648 44.2723 241.312 44.1211 240.835 44.0048L239.674 43.7116C239.028 43.5488 238.546 43.3115 238.23 42.9997C237.919 42.6833 237.763 42.2832 237.763 41.7992Z" fill="#7C4032"/>
<path d="M20.5138 21.7191C20.5218 21.7257 20.5284 21.734 20.533 21.7434C20.5376 21.7528 20.5403 21.7632 20.5407 21.7736L20.8743 25.3577C20.9229 25.9058 21.1722 26.4156 21.5732 26.7861C21.9742 27.1566 22.4976 27.361 23.0399 27.3588H27.0157C27.558 27.361 28.0814 27.1566 28.4823 26.7861C28.8833 26.4156 29.1327 25.9058 29.1812 25.3577L29.5149 21.7726C29.5158 21.7618 29.5189 21.7513 29.5239 21.7417C29.5288 21.7321 29.5357 21.7237 29.5439 21.7169C30.6646 20.7742 31.4715 19.5036 31.8544 18.0783C32.2374 16.6531 32.1778 15.1427 31.6838 13.7531C31.1898 12.3635 30.2854 11.1624 29.094 10.3137C27.9026 9.46503 26.4823 9.01 25.0267 9.01074H25.0009C23.5474 9.01572 22.1307 9.47509 20.9435 10.3262C19.7564 11.1774 18.8564 12.3791 18.366 13.7678C17.8757 15.1565 17.8188 16.6649 18.2031 18.0876C18.5874 19.5102 19.3942 20.7782 20.5138 21.7191ZM19.4816 16.0006C19.5785 13.0109 22.0572 10.5695 25.0073 10.5596H25.0267C26.1682 10.5599 27.2819 10.9174 28.2159 11.5835C29.1499 12.2495 29.8588 13.1917 30.246 14.2815C30.6331 15.3714 30.6797 16.5559 30.3794 17.6736C30.0791 18.7913 29.4464 19.7878 28.5677 20.5273C28.405 20.6632 28.2705 20.8305 28.1718 21.0195C28.0732 21.2084 28.0124 21.4154 27.993 21.6284L27.6615 25.2134C27.6469 25.3769 27.5725 25.5288 27.453 25.6392C27.3334 25.7496 27.1774 25.8106 27.0157 25.8099H23.0399C22.8781 25.8105 22.7218 25.7495 22.6022 25.6388C22.4826 25.5282 22.4084 25.376 22.3941 25.2124L22.0647 21.6284C22.0455 21.4155 21.9849 21.2086 21.8864 21.0196C21.7879 20.8306 21.6536 20.6633 21.4911 20.5273C20.836 19.9802 20.3139 19.2872 19.9654 18.5021C19.6169 17.7171 19.4514 16.8611 19.4816 16.0006Z" fill="#7C4032"/>
<path d="M20.6036 15.7812C20.6283 15.7863 20.6536 15.7889 20.6789 15.7888C20.7669 15.7885 20.8522 15.7574 20.9203 15.7007C20.9884 15.6439 21.035 15.5651 21.0524 15.4775C21.2676 14.4015 21.9037 12.9945 23.7539 12.4003C23.804 12.387 23.851 12.3635 23.8919 12.3312C23.9328 12.299 23.9668 12.2586 23.9919 12.2125C24.0169 12.1665 24.0325 12.1158 24.0376 12.0634C24.0428 12.0111 24.0373 11.9582 24.0217 11.9081C24.006 11.8579 23.9805 11.8115 23.9467 11.7717C23.9128 11.7319 23.8713 11.6995 23.8247 11.6765C23.7781 11.6534 23.7274 11.6403 23.6756 11.6378C23.6238 11.6353 23.5721 11.6435 23.5236 11.6619C21.8015 12.2146 20.6606 13.5189 20.3043 15.3256C20.2945 15.3755 20.2944 15.4268 20.3041 15.4767C20.3138 15.5266 20.3331 15.574 20.3609 15.6163C20.3886 15.6587 20.4244 15.695 20.466 15.7233C20.5077 15.7516 20.5544 15.7712 20.6036 15.7812Z" fill="#7C4032"/>
<path d="M50.048 22.6585L36.6621 0H13.3892L10.3325 5.17443V3.45399H4.90579V14.3567L0 22.6585H4.29445L6.9454 44.3251H22.2666C22.4638 44.3176 22.6505 44.2328 22.7875 44.0885C22.9245 43.9441 23.001 43.7515 23.001 43.5512C23.001 43.3508 22.9245 43.1582 22.7875 43.0139C22.6505 42.8696 22.4638 42.7848 22.2666 42.7773H8.29292L5.83139 22.6585H18.4317C18.5343 22.6624 18.6365 22.6453 18.7324 22.6082C18.8282 22.571 18.9158 22.5146 18.9897 22.4424C19.0636 22.3701 19.1224 22.2835 19.1625 22.1876C19.2027 22.0918 19.2234 21.9887 19.2234 21.8846C19.2234 21.7804 19.2027 21.6773 19.1625 21.5815C19.1224 21.4856 19.0636 21.399 18.9897 21.3267C18.9158 21.2545 18.8282 21.1981 18.7324 21.161C18.6365 21.1238 18.5343 21.1067 18.4317 21.1106H2.69076L14.2535 1.54785H35.7978L47.3573 21.1106H31.6185C31.4213 21.1181 31.2345 21.203 31.0975 21.3473C30.9606 21.4916 30.8841 21.6842 30.8841 21.8846C30.8841 22.0849 30.9606 22.2775 31.0975 22.4218C31.2345 22.5661 31.4213 22.6509 31.6185 22.6585H35.885V24.9163C35.7781 24.9826 35.6898 25.0756 35.6285 25.1864C35.5672 25.2973 35.5351 25.4222 35.5351 25.5494C35.5351 25.6765 35.5672 25.8014 35.6285 25.9123C35.6898 26.0231 35.7781 26.1161 35.885 26.1824V27.8417C35.7781 27.9079 35.6898 28.0009 35.6285 28.1118C35.5672 28.2226 35.5351 28.3476 35.5351 28.4747C35.5351 28.6018 35.5672 28.7267 35.6285 28.8376C35.6898 28.9484 35.7781 29.0414 35.885 29.1077V30.768C35.7485 30.8525 35.643 30.9799 35.5845 31.1309C35.5259 31.2818 35.5176 31.4481 35.5609 31.6043C35.6041 31.7605 35.6964 31.8981 35.8238 31.9961C35.9512 32.0941 36.1067 32.147 36.2665 32.147C36.4264 32.147 36.5819 32.0941 36.7093 31.9961C36.8366 31.8981 36.929 31.7605 36.9722 31.6043C37.0154 31.4481 37.0071 31.2818 36.9486 31.1309C36.8901 30.9799 36.7846 30.8525 36.6481 30.768V29.1077C36.7552 29.0416 36.8438 28.9487 36.9053 28.8379C36.9667 28.7269 36.999 28.6019 36.999 28.4747C36.999 28.3475 36.9667 28.2224 36.9053 28.1115C36.8438 28.0006 36.7552 27.9077 36.6481 27.8417V26.1824C36.7552 26.1164 36.8438 26.0234 36.9053 25.9125C36.9667 25.8017 36.999 25.6766 36.999 25.5494C36.999 25.4221 36.9667 25.2971 36.9053 25.1862C36.8438 25.0753 36.7552 24.9824 36.6481 24.9163V22.6585H44.2188L41.7605 42.7773H27.7847C27.6822 42.7733 27.5799 42.7904 27.484 42.8276C27.3882 42.8647 27.3006 42.9211 27.2267 42.9934C27.1528 43.0656 27.094 43.1522 27.0539 43.2481C27.0137 43.3439 26.993 43.447 26.993 43.5512C26.993 43.6553 27.0137 43.7584 27.0539 43.8542C27.094 43.9501 27.1528 44.0367 27.2267 44.109C27.3006 44.1813 27.3882 44.2376 27.484 44.2748C27.5799 44.3119 27.6822 44.329 27.7847 44.3251H43.1059L45.7557 22.6585H50.048ZM6.43091 5.00184H8.80631V7.75562L6.43091 11.7744V5.00184Z" fill="#7C4032"/>
<path d="M24.2625 34.2712V46.8331C24.2586 46.9372 24.2755 47.041 24.3121 47.1383C24.3487 47.2356 24.4042 47.3245 24.4754 47.3995C24.5466 47.4745 24.632 47.5342 24.7264 47.5749C24.8208 47.6157 24.9224 47.6367 25.0251 47.6367C25.1277 47.6367 25.2292 47.6157 25.3237 47.5749C25.4181 47.5342 25.5035 47.4745 25.5747 47.3995C25.6458 47.3245 25.7014 47.2356 25.738 47.1383C25.7746 47.041 25.7915 46.9372 25.7876 46.8331V34.2712C25.7915 34.1671 25.7746 34.0633 25.738 33.966C25.7014 33.8687 25.6458 33.7799 25.5747 33.7049C25.5035 33.6299 25.4181 33.5701 25.3237 33.5294C25.2292 33.4887 25.1277 33.4677 25.0251 33.4677C24.9224 33.4677 24.8208 33.4887 24.7264 33.5294C24.632 33.5701 24.5466 33.6299 24.4754 33.7049C24.4042 33.7799 24.3487 33.8687 24.3121 33.966C24.2755 34.0633 24.2586 34.1671 24.2625 34.2712Z" fill="#7C4032"/>
<path d="M22.2205 29.9203H27.8313C28.0286 29.9128 28.2153 29.828 28.3523 29.6837C28.4893 29.5394 28.5657 29.3468 28.5657 29.1464C28.5657 28.9461 28.4893 28.7535 28.3523 28.6092C28.2153 28.4649 28.0286 28.38 27.8313 28.3725H22.2205C22.0232 28.38 21.8365 28.4649 21.6996 28.6092C21.5626 28.7535 21.4861 28.9461 21.4861 29.1464C21.4861 29.3468 21.5626 29.5394 21.6996 29.6837C21.8365 29.828 22.0232 29.9128 22.2205 29.9203Z" fill="#7C4032"/>
<path d="M23.2013 32.483H26.8479C26.9504 32.4869 27.0526 32.4698 27.1485 32.4327C27.2444 32.3956 27.3319 32.3392 27.4059 32.2669C27.4798 32.1946 27.5386 32.108 27.5787 32.0122C27.6189 31.9163 27.6396 31.8133 27.6396 31.7091C27.6396 31.6049 27.6189 31.5019 27.5787 31.406C27.5386 31.3102 27.4798 31.2235 27.4059 31.1513C27.3319 31.079 27.2444 31.0226 27.1485 30.9855C27.0526 30.9484 26.9504 30.9313 26.8479 30.9352H23.2013C22.999 30.9352 22.8049 31.0168 22.6617 31.162C22.5186 31.3072 22.4382 31.5042 22.4382 31.7097C22.4382 31.9151 22.5186 32.1121 22.6617 32.2573C22.8049 32.4025 22.999 32.4841 23.2013 32.4841V32.483Z" fill="#7C4032"/>
<path d="M33.0877 17.7877C33.0495 17.9892 33.0916 18.1978 33.2048 18.3678C33.3181 18.5378 33.4931 18.6552 33.6915 18.6943L35.8947 19.1313C36.0926 19.1683 36.2969 19.1247 36.4631 19.0096C36.6294 18.8946 36.7442 18.7176 36.7825 18.5172C36.8208 18.3167 36.7795 18.109 36.6677 17.9392C36.5559 17.7695 36.3825 17.6514 36.1853 17.6107L33.9821 17.1738C33.7833 17.135 33.5775 17.1779 33.4098 17.293C33.2422 17.4081 33.1263 17.586 33.0877 17.7877Z" fill="#7C4032"/>
<path d="M35.1369 11.1922L33.0575 12.0486C32.8894 12.1131 32.7492 12.2359 32.6617 12.3953C32.5741 12.5546 32.5449 12.7402 32.5791 12.9193C32.6134 13.0984 32.709 13.2594 32.8489 13.3739C32.9888 13.4884 33.1641 13.549 33.3438 13.545C33.442 13.5455 33.5393 13.5261 33.6301 13.4882L35.7106 12.633C35.8972 12.5551 36.046 12.4054 36.1241 12.2166C36.2023 12.0278 36.2036 11.8152 36.1278 11.6254C36.0519 11.4357 35.9051 11.2841 35.7194 11.2039C35.5337 11.1237 35.3243 11.1214 35.1369 11.1976V11.1922Z" fill="#7C4032"/>
<path d="M29.9623 9.35809C30.0887 9.35851 30.2133 9.32696 30.3247 9.26629C30.4361 9.20567 30.5309 9.11784 30.6005 9.01074L31.8361 7.11005C31.9357 6.93936 31.9669 6.73639 31.9232 6.54299C31.8795 6.3496 31.7643 6.18072 31.6013 6.07113C31.4384 5.96159 31.2401 5.91977 31.0476 5.95434C30.8552 5.98891 30.6832 6.09728 30.5672 6.25695L29.3305 8.15765C29.2752 8.24235 29.2368 8.33738 29.2177 8.43718C29.1985 8.53697 29.1989 8.63962 29.219 8.73926C29.2389 8.83889 29.2781 8.93355 29.3342 9.01784C29.3902 9.10206 29.4621 9.17428 29.5457 9.23029C29.6692 9.31356 29.814 9.35803 29.9623 9.35809Z" fill="#7C4032"/>
<path d="M25.7876 7.08491V4.8063C25.7915 4.70222 25.7746 4.59842 25.738 4.50111C25.7014 4.4038 25.6458 4.31498 25.5747 4.23997C25.5035 4.16495 25.4181 4.10527 25.3237 4.06451C25.2292 4.02375 25.1277 4.00275 25.0251 4.00275C24.9224 4.00275 24.8208 4.02375 24.7264 4.06451C24.632 4.10527 24.5466 4.16495 24.4754 4.23997C24.4042 4.31498 24.3487 4.4038 24.3121 4.50111C24.2755 4.59842 24.2586 4.70222 24.2625 4.8063V7.08491C24.2699 7.28514 24.3535 7.47467 24.4957 7.61369C24.6379 7.75266 24.8276 7.83032 25.0251 7.83032C25.2225 7.83032 25.4122 7.75266 25.5544 7.61369C25.6966 7.47467 25.7802 7.28514 25.7876 7.08491Z" fill="#7C4032"/>
<path d="M20.0885 9.35919C20.2262 9.35871 20.3613 9.32054 20.4793 9.2486C20.5973 9.1767 20.6941 9.07378 20.7593 8.9507C20.8244 8.82761 20.8556 8.6889 20.8495 8.5493C20.8434 8.40969 20.8002 8.27437 20.7246 8.15758L19.488 6.258C19.3732 6.095 19.2006 5.98345 19.0065 5.94687C18.8124 5.91028 18.6119 5.95142 18.4471 6.06175C18.2823 6.17202 18.1659 6.34287 18.1226 6.53832C18.0793 6.73384 18.1123 6.93872 18.2147 7.11004L19.4514 9.01073C19.5207 9.11794 19.6153 9.20593 19.7265 9.26676C19.8378 9.32758 19.9622 9.35935 20.0885 9.35919Z" fill="#7C4032"/>
<path d="M17.4134 13.0568C17.4512 12.9627 17.4703 12.8619 17.4696 12.7602C17.4689 12.6585 17.4485 12.558 17.4095 12.4644C17.3705 12.3707 17.3137 12.2858 17.2424 12.2144C17.171 12.1431 17.0865 12.0867 16.9937 12.0486L14.9143 11.1922C14.7269 11.116 14.5175 11.1183 14.3318 11.1985C14.1461 11.2787 13.9993 11.4302 13.9234 11.62C13.8475 11.8098 13.8488 12.0224 13.927 12.2112C14.0052 12.4 14.1539 12.5497 14.3406 12.6275L16.42 13.4828C16.5108 13.5205 16.6081 13.5398 16.7063 13.5396C16.8581 13.5398 17.0066 13.494 17.1326 13.4079C17.2586 13.3219 17.3563 13.1996 17.4134 13.0568Z" fill="#7C4032"/>
<path d="M16.0699 17.1749L13.8667 17.6118C13.6805 17.6485 13.5145 17.7542 13.401 17.9084C13.2874 18.0625 13.2345 18.254 13.2525 18.4456C13.2705 18.6372 13.3581 18.8152 13.4983 18.9447C13.6385 19.0743 13.8213 19.1463 14.0109 19.1466C14.0597 19.1467 14.1083 19.142 14.1562 19.1324L16.3594 18.6955C16.5579 18.6565 16.7331 18.5391 16.8463 18.369C16.9595 18.199 17.0016 17.9903 16.9632 17.7888C16.9248 17.5873 16.8091 17.4095 16.6416 17.2946C16.474 17.1797 16.2684 17.137 16.0699 17.176V17.1749Z" fill="#7C4032"/>
<path d="M27.3134 45.6664C27.1608 45.8013 27.0673 45.9922 27.0534 46.197C27.0395 46.4019 27.1063 46.6039 27.2391 46.7588L32.1201 52.451H17.9313L22.8177 46.7588C22.8834 46.6821 22.9336 46.5931 22.9654 46.4967C22.9972 46.4003 23.01 46.2986 23.003 46.1972C22.9961 46.0958 22.9695 45.9968 22.9249 45.9058C22.8802 45.8148 22.8184 45.7337 22.7429 45.667C22.6673 45.6003 22.5796 45.5493 22.4846 45.517C22.3896 45.4848 22.2894 45.4718 22.1895 45.4788C22.0896 45.4859 21.992 45.5129 21.9024 45.5582C21.8128 45.6034 21.7328 45.6662 21.6671 45.7429L14.5872 54H35.4685L28.3897 45.7429C28.324 45.6661 28.2441 45.6031 28.1544 45.5577C28.0647 45.5122 27.9671 45.4852 27.8672 45.4781C27.7672 45.471 27.6668 45.484 27.5718 45.5163C27.4767 45.5486 27.3889 45.5996 27.3134 45.6664Z" fill="#7C4032"/>
<path d="M37.0247 35.8594V33.5491C37.0285 33.4451 37.0117 33.3412 36.9751 33.2439C36.9385 33.1466 36.883 33.0579 36.8117 32.9828C36.7406 32.9078 36.6552 32.8481 36.5608 32.8074C36.4663 32.7666 36.3648 32.7456 36.2621 32.7456C36.1595 32.7456 36.0579 32.7666 35.9635 32.8074C35.8691 32.8481 35.7837 32.9078 35.7125 32.9828C35.6413 33.0579 35.5857 33.1466 35.5491 33.2439C35.5126 33.3412 35.4957 33.4451 35.4996 33.5491V35.8594C35.4957 35.9635 35.5126 36.0673 35.5491 36.1647C35.5857 36.262 35.6413 36.3508 35.7125 36.4258C35.7837 36.5008 35.8691 36.5605 35.9635 36.6013C36.0579 36.642 36.1595 36.663 36.2621 36.663C36.3648 36.663 36.4663 36.642 36.5608 36.6013C36.6552 36.5605 36.7406 36.5008 36.8117 36.4258C36.883 36.3508 36.9385 36.262 36.9751 36.1647C37.0117 36.0673 37.0285 35.9635 37.0247 35.8594Z" fill="#7C4032"/>
<path d="M20.6034 16.3786C20.5024 16.3789 20.4057 16.4197 20.3343 16.4922C20.2629 16.5646 20.2227 16.6628 20.2224 16.7653V16.7773C20.2276 16.8765 20.2701 16.9698 20.341 17.0381C20.412 17.1064 20.5061 17.1445 20.6039 17.1445C20.7018 17.1445 20.7959 17.1064 20.8669 17.0381C20.9378 16.9698 20.9803 16.8765 20.9855 16.7773V16.7653C20.9852 16.6626 20.9448 16.5643 20.8732 16.4918C20.8016 16.4193 20.7046 16.3786 20.6034 16.3786Z" fill="#7C4032"/>
</g>
<defs>
<clipPath id="clip0_71_88">
<rect width="244" height="54" fill="white"/>
</clipPath>
</defs>
</svg>
