<svg width="244" height="43" viewBox="0 0 244 43" fill="none" xmlns="http://www.w3.org/2000/svg">
<g clip-path="url(#clip0_71_122)">
<path d="M58.5569 22.4085C57.9255 22.4085 57.4792 22.2801 57.218 22.0233C56.9785 21.7665 56.8588 21.3599 56.8588 20.8035V2.21845C56.8588 1.66207 56.9894 1.25549 57.2506 0.998703C57.5119 0.720517 57.9473 0.581421 58.5569 0.581421H66.5904C69.6164 0.581421 71.8481 1.202 73.285 2.44314C74.7219 3.68428 75.4403 5.53531 75.4403 7.99619C75.4403 11.0563 74.2431 13.1641 71.8481 14.3196L75.0811 21.2208C75.168 21.392 75.2117 21.5632 75.2117 21.7344C75.2117 21.927 75.1353 22.0875 74.9831 22.2159C74.8525 22.3443 74.6677 22.4085 74.428 22.4085H69.8561C69.5295 22.4085 69.2682 22.3656 69.0723 22.2801C68.8979 22.1945 68.7673 22.034 68.6804 21.7986L65.9699 15.2826H63.4554V20.8035C63.4554 21.3599 63.3248 21.7665 63.0635 22.0233C62.8022 22.2801 62.3561 22.4085 61.7246 22.4085H58.5569ZM65.872 10.6925C67.8529 10.6925 68.8437 9.79372 68.8437 7.99619C68.8437 6.1773 67.9078 5.26781 66.0352 5.26781H63.4554V10.6925H65.872ZM84.9058 22.8899C81.923 22.8899 79.6044 22.1624 77.95 20.7072C76.295 19.2307 75.4681 17.2299 75.4681 14.7048C75.4681 12.1797 76.295 10.1896 77.95 8.73446C79.6044 7.25793 81.923 6.51966 84.9058 6.51966C87.888 6.51966 90.2067 7.25793 91.8617 8.73446C93.5376 10.1896 94.3762 12.1797 94.3762 14.7048C94.3762 17.2299 93.5376 19.2307 91.8617 20.7072C90.2067 22.1624 87.888 22.8899 84.9058 22.8899ZM84.9058 18.2998C86.8215 18.2998 87.7796 17.1015 87.7796 14.7048C87.7796 12.3509 86.8215 11.174 84.9058 11.174C82.9896 11.174 82.032 12.3509 82.032 14.7048C82.032 15.9032 82.2822 16.8019 82.7831 17.4011C83.2835 18.0002 83.9914 18.2998 84.9058 18.2998ZM102.377 22.8899C100.483 22.8899 99.0024 22.4085 97.9358 21.4455C96.8908 20.4612 96.3683 18.9632 96.3683 16.9517V8.63817C96.3683 8.08177 96.4989 7.67521 96.7602 7.41842C97.0214 7.14025 97.4564 7.00114 98.0664 7.00114H101.234C101.865 7.00114 102.312 7.14025 102.573 7.41842C102.834 7.67521 102.965 8.08177 102.965 8.63817V16.6949C102.965 17.9147 103.563 18.5245 104.761 18.5245C105.414 18.5245 105.914 18.3533 106.263 18.011C106.611 17.6686 106.786 17.1871 106.786 16.5665V8.63817C106.786 8.08177 106.916 7.67521 107.178 7.41842C107.439 7.14025 107.885 7.00114 108.517 7.00114H111.684C112.315 7.00114 112.762 7.14025 113.023 7.41842C113.284 7.67521 113.415 8.08177 113.415 8.63817V21.4134C113.415 21.82 113.339 22.0875 113.186 22.2159C113.056 22.3443 112.762 22.4085 112.305 22.4085H108.941C108.68 22.4085 108.473 22.3764 108.321 22.3122C108.19 22.248 108.114 22.1196 108.092 21.927L107.929 20.9319C107.297 21.5311 106.513 22.0126 105.577 22.3764C104.641 22.7187 103.574 22.8899 102.377 22.8899ZM117.939 22.4085C117.308 22.4085 116.861 22.2801 116.6 22.0233C116.339 21.7665 116.208 21.3599 116.208 20.8035V7.99619C116.208 7.61101 116.273 7.35422 116.404 7.22583C116.557 7.07606 116.861 7.00114 117.318 7.00114H120.682C120.943 7.00114 121.139 7.04396 121.27 7.12953C121.423 7.19373 121.51 7.32212 121.531 7.51472L121.694 8.47767C122.304 7.87852 123.099 7.4077 124.078 7.06534C125.08 6.70153 126.19 6.51966 127.409 6.51966C129.173 6.51966 130.599 7.01186 131.687 7.99619C132.776 8.95915 133.32 10.3929 133.32 12.2974V20.8035C133.32 21.3599 133.189 21.7665 132.928 22.0233C132.689 22.2801 132.254 22.4085 131.622 22.4085H128.454C127.823 22.4085 127.366 22.2801 127.083 22.0233C126.821 21.7665 126.691 21.3599 126.691 20.8035V12.7147C126.691 12.0727 126.55 11.6126 126.266 11.3344C125.983 11.0563 125.537 10.9172 124.927 10.9172C124.274 10.9172 123.752 11.0884 123.36 11.4307C122.99 11.7731 122.805 12.2439 122.805 12.8431V20.8035C122.805 21.3599 122.674 21.7665 122.413 22.0233C122.174 22.2801 121.738 22.4085 121.107 22.4085H117.939ZM145.092 22.8899C141.848 22.8899 139.41 22.1945 137.777 20.8035C136.144 19.4126 135.328 17.3476 135.328 14.6085C135.328 12.1476 136.024 10.1896 137.418 8.73446C138.811 7.25793 140.781 6.51966 143.328 6.51966C144.047 6.51966 144.744 6.60524 145.418 6.77645C146.093 6.92622 146.627 7.12953 147.019 7.38632V2.21845C147.019 1.66207 147.149 1.25549 147.41 0.998703C147.672 0.720517 148.118 0.581421 148.749 0.581421H151.786C152.418 0.581421 152.864 0.720517 153.125 0.998703C153.387 1.25549 153.517 1.66207 153.517 2.21845V20.6109C152.581 21.2743 151.362 21.82 149.86 22.248C148.358 22.676 146.768 22.8899 145.092 22.8899ZM145.288 18.5245C146.028 18.5245 146.616 18.4069 147.051 18.1714V13.0036C147.051 11.5912 146.279 10.8851 144.733 10.8851C143.775 10.8851 143.056 11.2274 142.577 11.9122C142.12 12.5756 141.892 13.4851 141.892 14.6406C141.892 16.0316 142.174 17.0266 142.741 17.6258C143.307 18.2249 144.156 18.5245 145.288 18.5245ZM168.805 22.4085C168.173 22.4085 167.727 22.2801 167.466 22.0233C167.226 21.7665 167.107 21.3599 167.107 20.8035V2.21845C167.107 1.66207 167.237 1.25549 167.499 0.998703C167.76 0.720517 168.195 0.581421 168.805 0.581421H176.838C179.864 0.581421 182.096 1.202 183.533 2.44314C184.97 3.68428 185.688 5.53531 185.688 7.99619C185.688 11.0563 184.49 13.1641 182.096 14.3196L185.329 21.2208C185.416 21.392 185.46 21.5632 185.46 21.7344C185.46 21.927 185.383 22.0875 185.231 22.2159C185.1 22.3443 184.915 22.4085 184.676 22.4085H180.104C179.777 22.4085 179.516 22.3656 179.32 22.2801C179.146 22.1945 179.015 22.034 178.928 21.7986L176.218 15.2826H173.703V20.8035C173.703 21.3599 173.573 21.7665 173.311 22.0233C173.05 22.2801 172.603 22.4085 171.973 22.4085H168.805ZM176.12 10.6925C178.101 10.6925 179.092 9.79372 179.092 7.99619C179.092 6.1773 178.155 5.26781 176.283 5.26781H173.703V10.6925H176.12ZM195.153 22.8899C192.171 22.8899 189.852 22.1624 188.197 20.7072C186.543 19.2307 185.715 17.2299 185.715 14.7048C185.715 12.1797 186.543 10.1896 188.197 8.73446C189.852 7.25793 192.171 6.51966 195.153 6.51966C198.136 6.51966 200.455 7.25793 202.109 8.73446C203.786 10.1896 204.624 12.1797 204.624 14.7048C204.624 17.2299 203.786 19.2307 202.109 20.7072C200.455 22.1624 198.136 22.8899 195.153 22.8899ZM195.153 18.2998C197.069 18.2998 198.027 17.1015 198.027 14.7048C198.027 12.3509 197.069 11.174 195.153 11.174C193.238 11.174 192.279 12.3509 192.279 14.7048C192.279 15.9032 192.53 16.8019 193.03 17.4011C193.531 18.0002 194.239 18.2998 195.153 18.2998ZM214.833 22.8899C211.785 22.8899 209.433 22.1945 207.779 20.8035C206.124 19.4126 205.297 17.3904 205.297 14.7369C205.297 13.1106 205.678 11.6768 206.44 10.4357C207.202 9.19456 208.301 8.2316 209.738 7.54681C211.197 6.86202 212.916 6.51966 214.898 6.51966C216.4 6.51966 217.663 6.65877 218.686 6.93694C219.731 7.21511 220.656 7.64311 221.462 8.22088C221.701 8.37066 221.821 8.56325 221.821 8.79866C221.821 8.96987 221.734 9.19456 221.56 9.47273L220.221 11.7517C220.068 12.0513 219.883 12.2011 219.666 12.2011C219.535 12.2011 219.328 12.1155 219.045 11.9443C218.458 11.5805 217.902 11.3131 217.38 11.1419C216.879 10.9706 216.247 10.8851 215.486 10.8851C214.397 10.8851 213.515 11.2274 212.841 11.9122C212.188 12.597 211.861 13.5385 211.861 14.7369C211.861 15.9566 212.198 16.8982 212.873 17.5616C213.548 18.2035 214.474 18.5245 215.649 18.5245C216.345 18.5245 216.977 18.4282 217.543 18.2356C218.109 18.0431 218.686 17.7755 219.274 17.4332C219.578 17.262 219.797 17.1764 219.927 17.1764C220.123 17.1764 220.297 17.3262 220.45 17.6258L221.919 20.0974C222.028 20.3113 222.082 20.4825 222.082 20.6109C222.082 20.8035 221.952 20.9854 221.691 21.1566C220.776 21.7344 219.774 22.1624 218.686 22.4406C217.619 22.7402 216.335 22.8899 214.833 22.8899ZM241.956 21.1887C242.108 21.3599 242.184 21.5525 242.184 21.7665C242.184 21.9591 242.119 22.1196 241.988 22.248C241.858 22.355 241.683 22.4085 241.466 22.4085H236.404C236.099 22.4085 235.87 22.3871 235.718 22.3443C235.588 22.2801 235.446 22.1624 235.294 21.9912L230.852 16.0529V20.8035C230.852 21.3599 230.722 21.7665 230.46 22.0233C230.199 22.2801 229.752 22.4085 229.122 22.4085H225.954C225.322 22.4085 224.876 22.2801 224.615 22.0233C224.375 21.7665 224.256 21.3599 224.256 20.8035V2.21845C224.256 1.66207 224.386 1.25549 224.648 0.998703C224.909 0.720517 225.344 0.581421 225.954 0.581421H229.122C229.752 0.581421 230.199 0.720517 230.46 0.998703C230.722 1.25549 230.852 1.66207 230.852 2.21845V12.9715L235.163 7.45052C235.294 7.27931 235.435 7.16163 235.588 7.09743C235.74 7.03324 235.968 7.00114 236.273 7.00114H241.335C241.553 7.00114 241.716 7.06534 241.825 7.19373C241.956 7.30075 242.021 7.45052 242.021 7.64311C242.021 7.85708 241.944 8.04967 241.792 8.22088L236.208 14.5122L241.956 21.1887ZM62.0592 40.2171C60.085 40.2171 58.5544 39.7266 57.4675 38.7454C56.3806 37.7534 55.8372 36.309 55.8372 34.4121C55.8372 32.5044 56.364 31.0599 57.4176 30.0788C58.4823 29.0977 59.9962 28.6071 61.9593 28.6071C62.8133 28.6071 63.5842 28.6943 64.2718 28.8688C64.9594 29.0323 65.5362 29.2667 66.002 29.5719C66.124 29.6482 66.185 29.7463 66.185 29.8662C66.185 29.9425 66.1462 30.057 66.0685 30.2096L65.3532 31.4033C65.2866 31.5451 65.1979 31.6159 65.087 31.6159C65.0204 31.6159 64.9095 31.5778 64.7542 31.5014C64.0888 31.1417 63.3069 30.9618 62.4085 30.9618C61.3771 30.9618 60.5785 31.2562 60.0129 31.8448C59.4583 32.4226 59.1811 33.2784 59.1811 34.4121C59.1811 35.5459 59.4805 36.4071 60.0794 36.9958C60.6783 37.5844 61.4935 37.8788 62.525 37.8788C63.4344 37.8788 64.2385 37.6989 64.9372 37.3391C65.0925 37.2628 65.2034 37.2247 65.27 37.2247C65.3698 37.2247 65.4585 37.2901 65.5362 37.4209L66.2848 38.68C66.3513 38.789 66.3846 38.8871 66.3846 38.9744C66.3846 39.0725 66.3181 39.1706 66.185 39.2687C65.2533 39.901 63.8781 40.2171 62.0592 40.2171ZM70.8216 39.9718C70.5 39.9718 70.2726 39.9064 70.1395 39.7756C70.0175 39.6448 69.9565 39.4377 69.9565 39.1542V29.6864C69.9565 29.4029 70.023 29.1958 70.1561 29.065C70.2892 28.9233 70.511 28.8524 70.8216 28.8524H72.4353C72.757 28.8524 72.9843 28.9233 73.1174 29.065C73.2505 29.1958 73.317 29.4029 73.317 29.6864V39.1542C73.317 39.4377 73.2505 39.6448 73.1174 39.7756C72.9843 39.9064 72.757 39.9718 72.4353 39.9718H70.8216ZM81.7535 40.2171C80.8219 40.2171 79.9901 40.0645 79.2581 39.7593C78.5372 39.454 77.966 38.9962 77.5445 38.3857C77.1231 37.7752 76.9123 37.0285 76.9123 36.1454C76.9123 34.761 77.3116 33.7035 78.1102 32.9731C78.9087 32.2427 80.0566 31.8775 81.5539 31.8775C83.0179 31.8775 84.127 32.2373 84.8812 32.9568C85.6464 33.6654 86.0291 34.652 86.0291 35.9165C86.0291 36.4616 85.7851 36.7341 85.2971 36.7341H80.0733C80.0733 37.2029 80.2507 37.5626 80.6056 37.8134C80.9716 38.0641 81.5206 38.1895 82.2526 38.1895C82.7074 38.1895 83.0844 38.1513 83.3839 38.075C83.6944 37.9878 84.005 37.8624 84.3155 37.6989C84.4486 37.6444 84.5374 37.6171 84.5817 37.6171C84.6815 37.6171 84.7647 37.6825 84.8313 37.8134L85.3969 38.8599C85.4524 38.9689 85.4801 39.0507 85.4801 39.1052C85.4801 39.2033 85.4135 39.296 85.2804 39.3832C84.8257 39.6775 84.31 39.8901 83.7333 40.0209C83.1565 40.1517 82.4966 40.2171 81.7535 40.2171ZM83.0345 35.1153C83.0345 34.701 82.9125 34.3794 82.6685 34.1505C82.4245 33.9216 82.0585 33.8071 81.5705 33.8071C81.0825 33.8071 80.711 33.927 80.4559 34.1668C80.2008 34.3958 80.0733 34.7119 80.0733 35.1153H83.0345ZM92.7292 40.2171C91.6867 40.2171 90.8493 39.8901 90.2171 39.236C89.596 38.571 89.2855 37.6389 89.2855 36.4398C89.2855 35.5241 89.4962 34.7228 89.9177 34.036C90.3502 33.3492 90.9547 32.8205 91.731 32.4499C92.5185 32.0683 93.4224 31.8775 94.4428 31.8775C95.2857 31.8775 96.0288 31.9702 96.672 32.1555C97.3264 32.33 97.9253 32.5861 98.4688 32.9241V39.4649C98.4688 39.6721 98.4299 39.8083 98.3523 39.8737C98.2747 39.9391 98.1194 39.9718 97.8865 39.9718H96.1896C96.0676 39.9718 95.9733 39.9555 95.9068 39.9228C95.8402 39.8792 95.7848 39.8138 95.7404 39.7266L95.5241 39.236C95.2025 39.5739 94.8143 39.8192 94.3596 39.9718C93.916 40.1354 93.3725 40.2171 92.7292 40.2171ZM93.9769 37.9932C94.4095 37.9932 94.7478 37.8897 94.9918 37.6825C95.2358 37.4754 95.3578 37.1811 95.3578 36.7995V34.2486C95.147 34.1505 94.8809 34.1014 94.5592 34.1014C93.9714 34.1014 93.5 34.3031 93.1451 34.7065C92.8013 35.1098 92.6294 35.6767 92.6294 36.4071C92.6294 37.4645 93.0786 37.9932 93.9769 37.9932ZM103.279 39.9718C102.958 39.9718 102.73 39.9064 102.597 39.7756C102.464 39.6448 102.397 39.4377 102.397 39.1542V32.6297C102.397 32.4335 102.431 32.3027 102.497 32.2373C102.575 32.161 102.73 32.1228 102.963 32.1228H104.677C104.81 32.1228 104.91 32.1446 104.976 32.1882C105.054 32.2209 105.098 32.2863 105.109 32.3845L105.192 32.875C105.503 32.5698 105.908 32.33 106.407 32.1555C106.917 31.9702 107.483 31.8775 108.104 31.8775C109.002 31.8775 109.729 32.1283 110.283 32.6297C110.838 33.1203 111.115 33.8507 111.115 34.8209V39.1542C111.115 39.4377 111.048 39.6448 110.915 39.7756C110.793 39.9064 110.571 39.9718 110.25 39.9718H108.636C108.314 39.9718 108.082 39.9064 107.937 39.7756C107.804 39.6448 107.738 39.4377 107.738 39.1542V35.0335C107.738 34.7065 107.666 34.4721 107.521 34.3304C107.377 34.1886 107.15 34.1178 106.839 34.1178C106.507 34.1178 106.24 34.205 106.041 34.3794C105.852 34.5538 105.758 34.7937 105.758 35.0989V39.1542C105.758 39.4377 105.691 39.6448 105.558 39.7756C105.436 39.9064 105.214 39.9718 104.893 39.9718H103.279ZM116.13 31.2889C115.753 31.2889 115.465 31.1908 115.265 30.9945C115.066 30.7874 114.966 30.5476 114.966 30.275V29.8826C114.966 29.5991 115.066 29.3593 115.265 29.1631C115.465 28.956 115.753 28.8524 116.13 28.8524H117.328C117.716 28.8524 118.01 28.956 118.21 29.1631C118.41 29.3593 118.509 29.5991 118.509 29.8826V30.275C118.509 30.5476 118.41 30.7874 118.21 30.9945C118.01 31.1908 117.716 31.2889 117.328 31.2889H116.13ZM115.931 39.9718C115.609 39.9718 115.382 39.9064 115.249 39.7756C115.116 39.6448 115.049 39.4377 115.049 39.1542V32.9568C115.049 32.6733 115.116 32.4662 115.249 32.3354C115.382 32.1937 115.609 32.1228 115.931 32.1228H117.528C117.85 32.1228 118.077 32.1937 118.21 32.3354C118.354 32.4662 118.426 32.6733 118.426 32.9568V39.1542C118.426 39.4377 118.354 39.6448 118.21 39.7756C118.077 39.9064 117.85 39.9718 117.528 39.9718H115.931ZM123.314 39.9718C122.993 39.9718 122.765 39.9064 122.632 39.7756C122.499 39.6448 122.433 39.4377 122.433 39.1542V32.6297C122.433 32.4335 122.466 32.3027 122.532 32.2373C122.61 32.161 122.765 32.1228 122.998 32.1228H124.712C124.845 32.1228 124.945 32.1446 125.011 32.1882C125.089 32.2209 125.133 32.2863 125.144 32.3845L125.227 32.875C125.538 32.5698 125.943 32.33 126.442 32.1555C126.952 31.9702 127.518 31.8775 128.139 31.8775C129.037 31.8775 129.764 32.1283 130.318 32.6297C130.873 33.1203 131.15 33.8507 131.15 34.8209V39.1542C131.15 39.4377 131.083 39.6448 130.95 39.7756C130.828 39.9064 130.607 39.9718 130.285 39.9718H128.671C128.35 39.9718 128.117 39.9064 127.972 39.7756C127.839 39.6448 127.773 39.4377 127.773 39.1542V35.0335C127.773 34.7065 127.701 34.4721 127.557 34.3304C127.412 34.1886 127.185 34.1178 126.874 34.1178C126.542 34.1178 126.276 34.205 126.076 34.3794C125.887 34.5538 125.793 34.7937 125.793 35.0989V39.1542C125.793 39.4377 125.727 39.6448 125.593 39.7756C125.471 39.9064 125.25 39.9718 124.928 39.9718H123.314ZM139.376 42.7517C138.711 42.7517 138.029 42.6754 137.33 42.5228C136.642 42.3811 136.132 42.1957 135.8 41.9668C135.722 41.9014 135.683 41.8305 135.683 41.7542C135.683 41.6997 135.7 41.6452 135.733 41.5907L136.448 40.2989C136.482 40.2444 136.515 40.1953 136.548 40.1517C136.593 40.119 136.637 40.1027 136.681 40.1027C136.703 40.1027 136.77 40.1245 136.881 40.1681C137.402 40.4297 138.123 40.5605 139.044 40.5605C139.565 40.5605 139.959 40.4515 140.225 40.2335C140.491 40.0154 140.624 39.6612 140.624 39.1706C140.402 39.3232 140.125 39.4486 139.792 39.5467C139.46 39.6339 139.105 39.6775 138.728 39.6775C137.408 39.6775 136.398 39.3559 135.7 38.7127C135.012 38.0695 134.668 37.1375 134.668 35.9165C134.668 34.5865 135.09 33.5836 135.933 32.9077C136.776 32.2209 138.023 31.8775 139.676 31.8775C140.508 31.8775 141.301 31.992 142.055 32.2209C142.809 32.4499 143.436 32.7388 143.935 33.0876V38.3039C143.935 39.6339 143.547 40.7077 142.77 41.5253C141.994 42.3429 140.863 42.7517 139.376 42.7517ZM139.46 37.3719C140.258 37.3719 140.657 36.9958 140.657 36.2436V34.265C140.424 34.1668 140.036 34.1178 139.493 34.1178C139.005 34.1178 138.633 34.2377 138.378 34.4775C138.134 34.7174 138.012 35.148 138.012 35.7693C138.012 36.3253 138.129 36.7341 138.362 36.9958C138.594 37.2465 138.96 37.3719 139.46 37.3719ZM160.456 40.2171C159.525 40.2171 158.643 40.1245 157.811 39.9391C156.979 39.7429 156.308 39.4704 155.798 39.1215C155.61 39.0016 155.515 38.8762 155.515 38.7454C155.515 38.6582 155.549 38.5656 155.615 38.4674L156.43 37.192C156.519 37.0612 156.608 36.9958 156.697 36.9958C156.752 36.9958 156.846 37.0339 156.979 37.1102C157.39 37.3391 157.856 37.5245 158.377 37.6662C158.898 37.8079 159.414 37.8788 159.924 37.8788C160.445 37.8788 160.828 37.8025 161.072 37.6498C161.327 37.4972 161.455 37.2519 161.455 36.914C161.455 36.587 161.316 36.3308 161.039 36.1454C160.773 35.9601 160.268 35.7257 159.525 35.4423C158.405 35.028 157.528 34.5647 156.896 34.0524C156.275 33.5291 155.965 32.8205 155.965 31.9266C155.965 30.8474 156.358 30.0243 157.146 29.4574C157.933 28.8906 158.981 28.6071 160.29 28.6071C161.2 28.6071 161.976 28.6889 162.619 28.8524C163.274 29.005 163.828 29.2449 164.283 29.5719C164.471 29.7136 164.566 29.8444 164.566 29.9643C164.566 30.0407 164.532 30.1279 164.466 30.226L163.651 31.5014C163.551 31.6323 163.462 31.6977 163.384 31.6977C163.329 31.6977 163.235 31.6595 163.102 31.5832C162.458 31.169 161.693 30.9618 160.806 30.9618C160.329 30.9618 159.963 31.0381 159.708 31.1908C159.453 31.3434 159.325 31.5941 159.325 31.943C159.325 32.1828 159.392 32.379 159.525 32.5316C159.658 32.6842 159.835 32.8205 160.057 32.9404C160.29 33.0494 160.645 33.1912 161.122 33.3656L161.438 33.48C162.259 33.7962 162.902 34.1014 163.368 34.3958C163.845 34.6792 164.205 35.0335 164.449 35.4587C164.693 35.8729 164.815 36.3962 164.815 37.0285C164.815 37.9987 164.444 38.7727 163.701 39.3505C162.969 39.9282 161.887 40.2171 160.456 40.2171ZM172.925 40.2171C171.993 40.2171 171.162 40.0645 170.43 39.7593C169.709 39.454 169.138 38.9962 168.716 38.3857C168.295 37.7752 168.084 37.0285 168.084 36.1454C168.084 34.761 168.483 33.7035 169.282 32.9731C170.08 32.2427 171.228 31.8775 172.725 31.8775C174.189 31.8775 175.299 32.2373 176.053 32.9568C176.818 33.6654 177.201 34.652 177.201 35.9165C177.201 36.4616 176.957 36.7341 176.469 36.7341H171.245C171.245 37.2029 171.422 37.5626 171.777 37.8134C172.143 38.0641 172.692 38.1895 173.424 38.1895C173.879 38.1895 174.256 38.1513 174.555 38.075C174.866 37.9878 175.177 37.8624 175.487 37.6989C175.62 37.6444 175.709 37.6171 175.753 37.6171C175.853 37.6171 175.936 37.6825 176.003 37.8134L176.568 38.8599C176.624 38.9689 176.652 39.0507 176.652 39.1052C176.652 39.2033 176.585 39.296 176.452 39.3832C175.997 39.6775 175.482 39.8901 174.905 40.0209C174.328 40.1517 173.668 40.2171 172.925 40.2171ZM174.206 35.1153C174.206 34.701 174.084 34.3794 173.84 34.1505C173.596 33.9216 173.23 33.8071 172.742 33.8071C172.254 33.8071 171.883 33.927 171.627 34.1668C171.372 34.3958 171.245 34.7119 171.245 35.1153H174.206ZM181.672 39.9718C181.35 39.9718 181.123 39.9064 180.989 39.7756C180.856 39.6448 180.79 39.4377 180.79 39.1542V32.6297C180.79 32.4335 180.823 32.3027 180.89 32.2373C180.967 32.161 181.123 32.1228 181.355 32.1228H183.069C183.202 32.1228 183.302 32.1446 183.368 32.1882C183.446 32.2209 183.49 32.2863 183.502 32.3845L183.585 32.8587C184.25 32.2046 185.054 31.8775 185.997 31.8775C186.363 31.8775 186.662 31.9102 186.895 31.9757C187.128 32.0302 187.339 32.1228 187.528 32.2536C187.638 32.33 187.694 32.4172 187.694 32.5153C187.694 32.548 187.683 32.6079 187.661 32.6952L187.128 34.1832C187.084 34.3358 187.001 34.4121 186.879 34.4121C186.823 34.4121 186.757 34.3903 186.679 34.3467C186.38 34.1832 186.019 34.1014 185.598 34.1014C185.176 34.1014 184.827 34.2159 184.55 34.4448C184.283 34.6738 184.15 34.979 184.15 35.3605V39.1542C184.15 39.4377 184.084 39.6448 183.951 39.7756C183.829 39.9064 183.607 39.9718 183.285 39.9718H181.672ZM194.697 39.9718C194.486 39.9718 194.325 39.9337 194.214 39.8574C194.114 39.7811 194.014 39.6393 193.915 39.4322L190.704 32.7442C190.648 32.6352 190.621 32.5371 190.621 32.4499C190.621 32.3518 190.648 32.2754 190.704 32.2209C190.77 32.1555 190.859 32.1228 190.97 32.1228H193.399C193.565 32.1228 193.693 32.1555 193.782 32.2209C193.87 32.2863 193.942 32.3899 193.998 32.5316L195.429 36.2599L196.859 32.5316C196.915 32.3899 196.987 32.2863 197.076 32.2209C197.164 32.1555 197.292 32.1228 197.458 32.1228H199.904C200.015 32.1228 200.098 32.1555 200.153 32.2209C200.22 32.2754 200.253 32.3518 200.253 32.4499C200.253 32.5371 200.225 32.6352 200.17 32.7442L196.959 39.4322C196.859 39.6393 196.754 39.7811 196.643 39.8574C196.543 39.9337 196.388 39.9718 196.177 39.9718H194.697ZM205.011 31.2889C204.634 31.2889 204.346 31.1908 204.146 30.9945C203.946 30.7874 203.847 30.5476 203.847 30.275V29.8826C203.847 29.5991 203.946 29.3593 204.146 29.1631C204.346 28.956 204.634 28.8524 205.011 28.8524H206.209C206.597 28.8524 206.891 28.956 207.091 29.1631C207.29 29.3593 207.39 29.5991 207.39 29.8826V30.275C207.39 30.5476 207.29 30.7874 207.091 30.9945C206.891 31.1908 206.597 31.2889 206.209 31.2889H205.011ZM204.811 39.9718C204.49 39.9718 204.262 39.9064 204.129 39.7756C203.996 39.6448 203.93 39.4377 203.93 39.1542V32.9568C203.93 32.6733 203.996 32.4662 204.129 32.3354C204.262 32.1937 204.49 32.1228 204.811 32.1228H206.409C206.73 32.1228 206.958 32.1937 207.091 32.3354C207.235 32.4662 207.307 32.6733 207.307 32.9568V39.1542C207.307 39.4377 207.235 39.6448 207.091 39.7756C206.958 39.9064 206.73 39.9718 206.409 39.9718H204.811ZM215.839 40.2171C214.286 40.2171 213.088 39.8628 212.245 39.1542C211.403 38.4456 210.981 37.4155 210.981 36.0637C210.981 35.2352 211.175 34.5048 211.563 33.8725C211.952 33.2402 212.512 32.7497 213.244 32.4008C213.987 32.052 214.863 31.8775 215.872 31.8775C216.637 31.8775 217.281 31.9484 217.802 32.0901C218.334 32.2318 218.806 32.4499 219.216 32.7442C219.338 32.8205 219.399 32.9186 219.399 33.0385C219.399 33.1258 219.355 33.2402 219.266 33.3819L218.584 34.5429C218.506 34.6956 218.412 34.7719 218.301 34.7719C218.235 34.7719 218.129 34.7283 217.985 34.6411C217.686 34.4557 217.403 34.3195 217.137 34.2322C216.881 34.145 216.56 34.1014 216.172 34.1014C215.617 34.1014 215.168 34.2759 214.824 34.6247C214.491 34.9735 214.325 35.4532 214.325 36.0637C214.325 36.6851 214.497 37.1647 214.841 37.5027C215.185 37.8297 215.656 37.9932 216.255 37.9932C216.61 37.9932 216.931 37.9442 217.22 37.8461C217.508 37.748 217.802 37.6117 218.101 37.4373C218.257 37.3501 218.368 37.3064 218.434 37.3064C218.534 37.3064 218.623 37.3828 218.7 37.5354L219.449 38.7945C219.504 38.9035 219.532 38.9907 219.532 39.0561C219.532 39.1542 219.466 39.2469 219.333 39.3341C218.867 39.6284 218.357 39.8465 217.802 39.9882C217.259 40.1408 216.604 40.2171 215.839 40.2171ZM227.643 40.2171C226.712 40.2171 225.88 40.0645 225.148 39.7593C224.427 39.454 223.856 38.9962 223.434 38.3857C223.013 37.7752 222.802 37.0285 222.802 36.1454C222.802 34.761 223.201 33.7035 224 32.9731C224.799 32.2427 225.946 31.8775 227.444 31.8775C228.908 31.8775 230.017 32.2373 230.771 32.9568C231.536 33.6654 231.919 34.652 231.919 35.9165C231.919 36.4616 231.675 36.7341 231.187 36.7341H225.963C225.963 37.2029 226.141 37.5626 226.495 37.8134C226.861 38.0641 227.41 38.1895 228.142 38.1895C228.597 38.1895 228.974 38.1513 229.274 38.075C229.584 37.9878 229.895 37.8624 230.205 37.6989C230.338 37.6444 230.427 37.6171 230.472 37.6171C230.571 37.6171 230.655 37.6825 230.721 37.8134L231.287 38.8599C231.342 38.9689 231.37 39.0507 231.37 39.1052C231.37 39.2033 231.303 39.296 231.17 39.3832C230.716 39.6775 230.2 39.8901 229.623 40.0209C229.046 40.1517 228.386 40.2171 227.643 40.2171ZM228.924 35.1153C228.924 34.701 228.802 34.3794 228.558 34.1505C228.314 33.9216 227.948 33.8071 227.46 33.8071C226.972 33.8071 226.601 33.927 226.346 34.1668C226.091 34.3958 225.963 34.7119 225.963 35.1153H228.924ZM239.368 40.2171C237.804 40.2171 236.512 39.9337 235.491 39.3668C235.281 39.236 235.175 39.1215 235.175 39.0234C235.175 38.9689 235.203 38.8871 235.258 38.7781L235.957 37.5517C236.024 37.4209 236.107 37.3555 236.207 37.3555C236.273 37.3555 236.368 37.3882 236.49 37.4536C236.8 37.6171 237.194 37.7698 237.671 37.9115C238.159 38.0423 238.591 38.1077 238.968 38.1077C239.323 38.1077 239.578 38.075 239.734 38.0096C239.889 37.9333 239.967 37.8134 239.967 37.6498C239.967 37.4972 239.856 37.3719 239.634 37.2737C239.423 37.1647 239.035 37.0285 238.469 36.8649L238.103 36.7668C237.183 36.4943 236.517 36.1836 236.107 35.8348C235.697 35.4859 235.491 34.9899 235.491 34.3467C235.491 33.5509 235.841 32.9404 236.54 32.5153C237.238 32.0901 238.175 31.8775 239.351 31.8775C240.083 31.8775 240.721 31.943 241.264 32.0738C241.808 32.2046 242.329 32.4008 242.828 32.6624C243.028 32.7715 243.128 32.8914 243.128 33.0222C243.128 33.0985 243.094 33.1966 243.028 33.3165L242.346 34.3794C242.268 34.4993 242.19 34.5593 242.113 34.5593C242.046 34.5593 241.957 34.5266 241.846 34.4612C241.58 34.3195 241.27 34.205 240.915 34.1178C240.56 34.0306 240.216 33.987 239.883 33.987C239.118 33.987 238.735 34.1505 238.735 34.4775C238.735 34.6301 238.857 34.761 239.101 34.87C239.357 34.9681 239.745 35.0771 240.266 35.197C240.388 35.2297 240.554 35.2733 240.765 35.3278C240.987 35.3823 241.17 35.4369 241.314 35.4914C241.846 35.6767 242.257 35.8675 242.545 36.0637C242.834 36.249 243.039 36.4725 243.161 36.7341C243.283 36.9849 243.344 37.3064 243.344 37.6989C243.344 38.1677 243.2 38.5928 242.911 38.9744C242.623 39.345 242.179 39.6448 241.58 39.8737C240.981 40.1027 240.244 40.2171 239.368 40.2171Z" fill="#7C4032"/>
<path d="M16.2938 35.2501H13.2569V30.743H29.8749V35.2501H26.8365C26.6847 35.2501 26.5391 35.3093 26.4317 35.4147C26.3244 35.52 26.2641 35.6629 26.2641 35.8118C26.2641 35.9608 26.3244 36.1037 26.4317 36.209C26.5391 36.3143 26.6847 36.3736 26.8365 36.3736H29.896C30.1935 36.3731 30.4787 36.257 30.6891 36.0505C30.8995 35.8441 31.0179 35.5643 31.0183 35.2723V30.7248C31.0179 30.4328 30.8995 30.153 30.6891 29.9465C30.4787 29.7401 30.1935 29.624 29.896 29.6235H13.2351C12.9375 29.6237 12.6522 29.7398 12.4418 29.9463C12.2313 30.1528 12.113 30.4327 12.1128 30.7248V35.2723C12.1132 35.5643 12.2316 35.8441 12.442 36.0505C12.6524 36.257 12.9376 36.3731 13.2351 36.3736H16.2938C16.4456 36.3736 16.5912 36.3143 16.6985 36.209C16.8059 36.1037 16.8662 35.9608 16.8662 35.8118C16.8662 35.6629 16.8059 35.52 16.6985 35.4147C16.5912 35.3093 16.4456 35.2501 16.2938 35.2501Z" fill="#7C4032"/>
<path d="M29.3639 31.9338C29.3639 31.8968 29.3565 31.8603 29.3421 31.8262C29.3277 31.7922 29.3066 31.7612 29.28 31.7351C29.2533 31.7091 29.2217 31.6884 29.1869 31.6744C29.1522 31.6603 29.1149 31.6532 29.0773 31.6533H14.0588C13.983 31.6533 13.9103 31.6829 13.8567 31.7354C13.8031 31.788 13.7729 31.8594 13.7729 31.9338C13.7729 32.0082 13.8031 32.0795 13.8567 32.1321C13.9103 32.1846 13.983 32.2142 14.0588 32.2142H29.0773C29.1149 32.2143 29.1522 32.2072 29.1869 32.1931C29.2217 32.1791 29.2533 32.1584 29.28 32.1324C29.3066 32.1063 29.3277 32.0753 29.3421 32.0413C29.3565 32.0072 29.3639 31.9707 29.3639 31.9338Z" fill="#7C4032"/>
<path d="M9.98462 27.5328C9.90976 27.5396 9.83705 27.5609 9.77057 27.5954C9.70415 27.6298 9.6453 27.6768 9.59737 27.7336C9.54943 27.7904 9.51338 27.856 9.49133 27.9264C9.46921 27.9969 9.4615 28.071 9.46865 28.1444L10.0936 34.6758C10.1071 34.8148 10.1728 34.9439 10.278 35.038C10.3833 35.132 10.5205 35.1842 10.6628 35.1844H10.7169C10.868 35.1703 11.0072 35.098 11.1039 34.9834C11.2007 34.8686 11.2471 34.721 11.2329 34.5727L10.6079 28.0406C10.601 27.9671 10.5795 27.8956 10.5444 27.8303C10.5093 27.7649 10.4615 27.707 10.4036 27.6599C10.3457 27.6127 10.2789 27.5772 10.207 27.5554C10.1351 27.5336 10.0595 27.5259 9.98462 27.5328Z" fill="#7C4032"/>
<path d="M8.8511 19.7718C8.7975 19.8297 8.75683 19.898 8.73169 19.9722C8.70655 20.0464 8.69743 20.125 8.70495 20.2028L9.11673 24.4921C9.1394 24.6333 9.21605 24.7607 9.33115 24.8484C9.44619 24.936 9.59099 24.9773 9.73603 24.9639C9.88108 24.9505 10.0154 24.8833 10.1117 24.776C10.2081 24.6688 10.2591 24.5295 10.2544 24.3867L9.90153 20.7115H33.2287L31.8939 34.5703C31.8798 34.7186 31.9262 34.8663 32.0229 34.981C32.1196 35.0956 32.2588 35.1679 32.4099 35.182C32.4277 35.182 32.4463 35.182 32.464 35.182C32.6057 35.1808 32.7418 35.1282 32.8462 35.0343C32.9507 34.9403 33.0159 34.8118 33.0292 34.6734L34.4197 20.2004C34.427 20.1226 34.4178 20.0441 34.3925 19.9699C34.3673 19.8958 34.3265 19.8276 34.2728 19.7699C34.2192 19.7121 34.1538 19.6659 34.0809 19.6343C34.0081 19.6027 33.9292 19.5864 33.8496 19.5864H9.27416C9.19436 19.5867 9.11556 19.6034 9.04267 19.6353C8.96984 19.6672 8.90458 19.7137 8.8511 19.7718Z" fill="#7C4032"/>
<path d="M12.7805 23.9209C12.713 23.9494 12.6593 24.0022 12.6303 24.0684C12.6013 24.1346 12.5994 24.2092 12.6249 24.2768C12.6504 24.3444 12.7014 24.3998 12.7673 24.4316C12.8331 24.4634 12.909 24.4692 12.9791 24.4477C13.2203 24.3586 13.4284 24.2002 13.5762 23.9931C13.7241 23.786 13.8047 23.5399 13.8075 23.287C13.8087 23.1233 13.777 22.9609 13.7142 22.8092C13.6514 22.6574 13.5588 22.5193 13.4416 22.4027C13.3244 22.2861 13.185 22.1933 13.0312 22.1295C12.8775 22.0658 12.7124 22.0325 12.5455 22.0313H12.5367C12.2012 22.0317 11.8794 22.162 11.6412 22.3939C11.4032 22.6257 11.2679 22.9405 11.2649 23.2697C11.2647 23.344 11.2945 23.4155 11.3476 23.4685C11.4009 23.5214 11.4733 23.5516 11.5491 23.5525C11.6246 23.5522 11.6969 23.5229 11.7504 23.4707C11.804 23.4185 11.8343 23.3477 11.835 23.2736C11.8367 23.0926 11.9111 22.9197 12.042 22.7922C12.1729 22.6648 12.3498 22.5932 12.5342 22.593H12.5391C12.7244 22.5943 12.9016 22.6677 13.0318 22.7971C13.162 22.9264 13.2345 23.1013 13.2335 23.2831C13.232 23.4217 13.188 23.5568 13.1072 23.6705C13.0264 23.7843 12.9126 23.8715 12.7805 23.9209Z" fill="#7C4032"/>
<path d="M9.42211 18.1191C9.38403 18.2633 9.4059 18.4163 9.4828 18.5447C9.5597 18.673 9.68539 18.7662 9.83229 18.8036C9.87955 18.8155 9.92804 18.8216 9.97684 18.8218C10.1035 18.8217 10.2264 18.7802 10.3265 18.7041C10.4266 18.628 10.4981 18.5215 10.5299 18.4012C10.6447 17.9694 10.8571 17.5684 11.1514 17.2281C11.4457 16.8878 11.8143 16.6168 12.2298 16.4353C12.6454 16.2538 13.0972 16.1664 13.5519 16.1796C14.0065 16.1929 14.4523 16.3063 14.8562 16.5117C14.9544 16.5686 15.0678 16.5954 15.1816 16.5886C15.2954 16.5818 15.4046 16.5418 15.4951 16.4736C15.5856 16.4054 15.6532 16.3123 15.6893 16.2061C15.7254 16.0999 15.7282 15.9856 15.6976 15.8779C15.6294 15.596 15.6272 15.3027 15.6911 15.0199C15.755 14.7371 15.8834 14.4722 16.0666 14.245C16.2499 14.0179 16.4831 13.8345 16.7489 13.7085C17.0148 13.5825 17.3063 13.5173 17.6015 13.5177C17.9077 13.5164 18.2098 13.5864 18.483 13.7221C18.7562 13.8578 18.9926 14.0552 19.1728 14.2981C19.2378 14.3828 19.3259 14.4477 19.427 14.4853C19.528 14.5229 19.6378 14.5317 19.7437 14.5106C19.8497 14.4896 19.9473 14.4396 20.0254 14.3664C20.1036 14.2931 20.159 14.1997 20.1853 14.0969C20.2536 13.8156 20.3954 13.5565 20.5968 13.3454C20.7981 13.1342 21.052 12.9782 21.3336 12.8928C21.6151 12.8072 21.9145 12.7952 22.2022 12.8579C22.4899 12.9205 22.756 13.0556 22.9743 13.2499C23.0382 13.3066 23.1143 13.3484 23.197 13.3721C23.2797 13.3959 23.3668 13.401 23.4518 13.3871C23.5368 13.3733 23.6175 13.3408 23.6879 13.292C23.7583 13.2434 23.8166 13.1796 23.8584 13.1058C24.2778 12.367 24.9746 11.8181 25.8004 11.576C26.6261 11.3339 27.5156 11.4177 28.2793 11.8095C29.043 12.2014 29.6206 12.8704 29.889 13.674C30.1575 14.4775 30.0956 15.3521 29.7164 16.1116C29.6735 16.1973 29.6535 16.2923 29.6583 16.3876C29.6632 16.483 29.6928 16.5756 29.7443 16.6566C29.7957 16.7377 29.8675 16.8045 29.9526 16.8508C30.0377 16.8971 30.1335 16.9214 30.2307 16.9212C30.2799 16.9212 30.3287 16.9148 30.3761 16.9022C30.5383 16.8608 30.7051 16.8397 30.8727 16.8397C31.323 16.8403 31.7593 16.9934 32.1078 17.2731C32.4563 17.5529 32.6957 17.9421 32.7855 18.375C32.8155 18.521 32.9033 18.6492 33.0297 18.7316C33.1561 18.814 33.3106 18.8438 33.4594 18.8143C33.6081 18.7849 33.7388 18.6987 33.8228 18.5747C33.9067 18.4508 33.9371 18.2991 33.9071 18.1532C33.7712 17.4995 33.4201 16.9077 32.9078 16.469C32.3956 16.0302 31.7506 15.7688 31.0721 15.7249C31.319 14.7488 31.2149 13.719 30.7774 12.8095C30.3399 11.8999 29.5959 11.1665 28.671 10.7329C27.7461 10.2994 26.6971 10.1924 25.701 10.43C24.7051 10.6676 23.8232 11.2352 23.2044 12.037C22.5704 11.6961 21.828 11.6046 21.1279 11.7812C20.4277 11.9577 19.8222 12.3891 19.4344 12.9877C18.991 12.6649 18.4675 12.4644 17.9184 12.4073C17.3694 12.35 16.8147 12.4381 16.312 12.6623C15.8094 12.8865 15.3771 13.2387 15.06 13.6823C14.7429 14.1258 14.5527 14.6445 14.509 15.1846C14.1661 15.0978 13.8134 15.0536 13.4593 15.0531C12.5354 15.0534 11.6376 15.3546 10.9069 15.9095C10.1763 16.4644 9.65403 17.2416 9.42211 18.1191Z" fill="#7C4032"/>
<path d="M13.8995 12.979C13.8995 12.6779 13.8084 12.3835 13.638 12.133C13.4674 11.8826 13.2251 11.6875 12.9414 11.5722C12.6579 11.457 12.3459 11.4268 12.0448 11.4856C11.7437 11.5443 11.4673 11.6893 11.2502 11.9023C11.0332 12.1152 10.8854 12.3866 10.8255 12.6819C10.7656 12.9773 10.7963 13.2835 10.9138 13.5617C11.0313 13.84 11.2302 14.0778 11.4854 14.2451C11.7406 14.4125 12.0406 14.5017 12.3476 14.5017C12.5517 14.503 12.7541 14.4645 12.943 14.3884C13.1318 14.3123 13.3034 14.2002 13.4478 14.0586C13.5922 13.9169 13.7065 13.7486 13.784 13.5632C13.8615 13.3779 13.9007 13.1793 13.8995 12.979ZM11.3689 12.979C11.3686 12.7889 11.4258 12.6029 11.5333 12.4446C11.6407 12.2863 11.7937 12.1629 11.9726 12.09C12.1516 12.017 12.3486 11.9978 12.5388 12.0347C12.7289 12.0717 12.9035 12.1632 13.0406 12.2976C13.1777 12.432 13.2711 12.6033 13.309 12.7898C13.3468 12.9764 13.3274 13.1697 13.2532 13.3454C13.179 13.5211 13.0533 13.6712 12.8921 13.7768C12.7309 13.8823 12.5414 13.9386 12.3476 13.9384C12.0884 13.9378 11.8399 13.8366 11.6566 13.6568C11.4732 13.477 11.3698 13.2333 11.3689 12.979Z" fill="#7C4032"/>
<path d="M20.7319 7.87604C20.425 7.8764 20.1251 7.96597 19.8701 8.13349C19.6151 8.30107 19.4164 8.53902 19.2992 8.81731C19.182 9.09566 19.1516 9.40181 19.2117 9.69712C19.2719 9.99242 19.4199 10.2636 19.6371 10.4763C19.8542 10.6891 20.1308 10.8339 20.4319 10.8925C20.7329 10.951 21.0449 10.9206 21.3284 10.8052C21.6119 10.6898 21.8541 10.4945 22.0244 10.244C22.1947 9.99351 22.2856 9.69912 22.2854 9.39799C22.2848 8.99416 22.1209 8.60704 21.8296 8.32166C21.5383 8.03635 21.1435 7.87604 20.7319 7.87604ZM20.7319 10.359C20.5382 10.359 20.3489 10.3026 20.1878 10.197C20.0267 10.0914 19.9012 9.94137 19.827 9.76574C19.7529 9.59016 19.7336 9.3969 19.7713 9.21049C19.8091 9.02408 19.9024 8.85286 20.0394 8.71847C20.1763 8.58402 20.3509 8.49251 20.5408 8.45545C20.7309 8.41838 20.9278 8.4374 21.1067 8.51014C21.2857 8.58287 21.4387 8.70606 21.5463 8.86407C21.6539 9.02214 21.7114 9.20795 21.7114 9.39799C21.7121 9.52439 21.6873 9.6497 21.6384 9.76664C21.5894 9.88353 21.5173 9.98976 21.4262 10.0792C21.3351 10.1685 21.2268 10.2393 21.1077 10.2874C20.9885 10.3354 20.8608 10.3597 20.7319 10.359Z" fill="#7C4032"/>
<path d="M15.0187 12.0576C15.2593 12.0568 15.4897 11.9624 15.6596 11.7952C15.8293 11.628 15.9247 11.4016 15.9247 11.1655C15.9245 10.9892 15.871 10.8169 15.771 10.6703C15.671 10.5238 15.5289 10.4097 15.3628 10.3424C15.1966 10.2752 15.0139 10.2577 14.8377 10.2924C14.6615 10.3271 14.4997 10.4123 14.3728 10.5372C14.246 10.6621 14.1598 10.8212 14.125 10.9942C14.0903 11.1672 14.1087 11.3465 14.1779 11.5092C14.247 11.672 14.3638 11.811 14.5135 11.9086C14.6632 12.0062 14.839 12.0581 15.0187 12.0576ZM14.6804 11.1655C14.6804 11.0781 14.7158 10.9943 14.7788 10.9325C14.8418 10.8707 14.9272 10.8359 15.0163 10.8359C15.1052 10.8362 15.1903 10.8708 15.2533 10.9324C15.3162 10.994 15.3518 11.0775 15.3522 11.1647C15.352 11.252 15.3165 11.3356 15.2535 11.3973C15.1905 11.4589 15.1053 11.4935 15.0163 11.4935C14.9722 11.4936 14.9285 11.4852 14.8878 11.4687C14.8471 11.4522 14.81 11.4281 14.7788 11.3975C14.7476 11.3669 14.7229 11.3307 14.706 11.2908C14.6891 11.2508 14.6804 11.208 14.6804 11.1647V11.1655Z" fill="#7C4032"/>
<path d="M22.986 7.3064C23.1055 7.30621 23.2237 7.2829 23.334 7.23784C23.4442 7.19278 23.5444 7.12682 23.6287 7.04373C23.713 6.96064 23.7797 6.8621 23.8252 6.75369C23.8706 6.64529 23.8938 6.52919 23.8935 6.41193C23.8929 6.17628 23.797 5.95046 23.6268 5.7841C23.4567 5.61774 23.2262 5.52442 22.986 5.52463C22.8645 5.52107 22.7435 5.54149 22.6302 5.58466C22.5168 5.62783 22.4135 5.69288 22.3263 5.77596C22.239 5.85904 22.1696 5.95845 22.1223 6.0683C22.0749 6.17816 22.0505 6.29626 22.0505 6.41551C22.0505 6.53482 22.0749 6.65286 22.1223 6.76272C22.1696 6.87258 22.239 6.97202 22.3263 7.05506C22.4135 7.13815 22.5168 7.2032 22.6302 7.24638C22.7435 7.28956 22.8645 7.30997 22.986 7.3064ZM22.986 6.08556C23.0745 6.08574 23.1593 6.12008 23.2222 6.18119C23.285 6.24224 23.3208 6.32515 23.3219 6.41193C23.3219 6.49939 23.2865 6.58321 23.2235 6.64498C23.1605 6.70682 23.0751 6.74152 22.986 6.74152C22.897 6.74134 22.8117 6.70651 22.7487 6.6448C22.6857 6.58303 22.6503 6.49933 22.6501 6.41193C22.6512 6.32515 22.687 6.24224 22.7498 6.18119C22.8127 6.12008 22.8975 6.08574 22.986 6.08556Z" fill="#7C4032"/>
<path d="M24.7966 9.12698C24.9256 9.1268 25.0505 9.08271 25.15 9.00222C25.2495 8.92173 25.3175 8.80987 25.3424 8.68572C25.3672 8.56156 25.3474 8.4328 25.2863 8.32137C25.2252 8.20993 25.1266 8.12278 25.0073 8.07469C24.888 8.02661 24.7554 8.02061 24.6321 8.0578C24.5089 8.09492 24.4025 8.17287 24.3313 8.27831C24.26 8.38381 24.2283 8.5102 24.2414 8.63612C24.2546 8.76197 24.3118 8.87946 24.4034 8.96855C24.508 9.0703 24.6494 9.12729 24.7966 9.12698ZM24.7805 8.58112C24.7805 8.57695 24.7822 8.57289 24.7852 8.56992C24.7883 8.56695 24.7923 8.56532 24.7966 8.56532C24.8008 8.5655 24.8048 8.5672 24.8079 8.57004C24.8106 8.57325 24.8123 8.57707 24.8128 8.58112C24.8128 8.59857 24.7805 8.59857 24.7805 8.58112Z" fill="#7C4032"/>
<path d="M31.5459 10.744C31.5459 10.5995 31.4874 10.4608 31.3832 10.3586C31.279 10.2564 31.1377 10.1989 30.9904 10.1989C30.8803 10.1989 30.7727 10.231 30.6812 10.291C30.5897 10.351 30.5184 10.4363 30.4764 10.5361C30.4343 10.6359 30.4233 10.7457 30.4448 10.8516C30.4663 10.9575 30.5194 11.0547 30.5973 11.131C30.6752 11.2074 30.7744 11.2593 30.8823 11.2803C30.9903 11.3012 31.1022 11.2903 31.2039 11.2489C31.3055 11.2075 31.3923 11.1373 31.4533 11.0475C31.5144 10.9577 31.5469 10.852 31.5468 10.744H31.5459ZM30.9734 10.744C30.9734 10.742 30.9738 10.7399 30.9747 10.738C30.9755 10.7362 30.9767 10.7345 30.9782 10.7331C30.9797 10.7317 30.9815 10.7306 30.9835 10.7299C30.9854 10.7291 30.9875 10.7288 30.9896 10.729C30.9936 10.7293 30.9974 10.731 31.0003 10.7337C31.0033 10.7364 31.0052 10.74 31.0058 10.744C31.0058 10.7482 31.004 10.7522 31.001 10.7552C30.998 10.7582 30.9939 10.7599 30.9896 10.7599C30.9854 10.7595 30.9815 10.7577 30.9786 10.7548C30.9756 10.7519 30.9738 10.7481 30.9734 10.744Z" fill="#7C4032"/>
<path d="M33.4349 12.6415C33.4347 12.4052 33.3389 12.1787 33.1686 12.0118C32.9982 11.8448 32.7673 11.751 32.5265 11.751C32.3468 11.751 32.1712 11.8033 32.0218 11.9012C31.8724 11.9992 31.756 12.1385 31.6872 12.3014C31.6185 12.4643 31.6006 12.6436 31.6357 12.8165C31.6707 12.9894 31.7574 13.1482 31.8845 13.2728C32.0116 13.3974 32.1735 13.4822 32.3498 13.5165C32.526 13.5509 32.7087 13.5331 32.8747 13.4655C33.0407 13.3979 33.1825 13.2835 33.2822 13.1369C33.3819 12.9902 33.4351 12.8178 33.4349 12.6415ZM32.1906 12.6415C32.1908 12.5542 32.2263 12.4706 32.2893 12.4089C32.3523 12.3473 32.4376 12.3127 32.5265 12.3127C32.593 12.3127 32.658 12.3321 32.7132 12.3683C32.7685 12.4046 32.8115 12.4561 32.837 12.5163C32.8623 12.5766 32.8689 12.6429 32.8559 12.7068C32.8429 12.7708 32.8108 12.8296 32.7638 12.8756C32.7167 12.9217 32.6568 12.953 32.5915 12.9656C32.5264 12.9782 32.4588 12.9716 32.3974 12.9466C32.3361 12.9215 32.2836 12.8791 32.2469 12.8248C32.21 12.7705 32.1905 12.7067 32.1906 12.6415Z" fill="#7C4032"/>
<path d="M36.8205 8.01536C34.5423 5.78186 31.7832 4.07731 28.7457 3.02687C25.7083 1.97643 22.4697 1.60676 19.2676 1.94501C16.0655 2.28325 12.9814 3.32082 10.2414 4.98154C7.50146 6.64227 5.17534 8.88396 3.43382 11.5421C1.69231 14.2002 0.579605 17.2073 0.1774 20.3426C-0.224805 23.4778 0.0936996 26.6616 1.10953 29.6603C2.12537 32.659 3.81274 35.3964 6.04777 37.6716C8.28281 39.9467 11.0088 41.7019 14.0255 42.8081C14.0896 42.8314 14.1574 42.8435 14.2258 42.8438C14.3598 42.8437 14.4897 42.7974 14.5926 42.713C14.6954 42.6285 14.7648 42.5114 14.7887 42.3819C14.8125 42.2524 14.7892 42.1188 14.723 42.0044C14.6567 41.8901 14.5516 41.8022 14.426 41.756C6.48233 38.8468 1.14514 31.2982 1.14514 22.9795C1.14514 11.9307 10.3064 2.94176 21.5671 2.94176C32.8277 2.94176 41.9881 11.9291 41.9881 22.978C41.991 26.2863 41.1578 29.5437 39.5631 32.4587C37.9684 35.3736 35.662 37.8551 32.8503 39.6811C32.8147 39.7041 32.7009 39.7809 32.6742 39.7951C29.0747 41.7552 25.3475 42.4096 23.4 41.432C22.8307 41.146 22.4488 40.7253 22.2574 40.1794H22.4697C23.0497 40.1788 23.6057 39.9525 24.0158 39.5501C24.4258 39.1477 24.6565 38.6022 24.6571 38.0332V37.9349C24.8613 37.8509 25.0356 37.7096 25.1582 37.5288C25.2809 37.348 25.3465 37.1357 25.3467 36.9185V34.5417C25.3496 34.4662 25.3369 34.391 25.3095 34.3204C25.282 34.2498 25.2404 34.1854 25.187 34.131C25.1335 34.0766 25.0695 34.0333 24.9987 34.0037C24.9278 33.9742 24.8516 33.9589 24.7746 33.9589C24.6977 33.9589 24.6214 33.9742 24.5506 34.0037C24.4797 34.0333 24.4157 34.0766 24.3623 34.131C24.3089 34.1854 24.2672 34.2498 24.2398 34.3204C24.2123 34.391 24.1997 34.4662 24.2026 34.5417V36.8955H18.9308V34.5433C18.9337 34.4678 18.921 34.3925 18.8935 34.322C18.8661 34.2514 18.8244 34.187 18.771 34.1325C18.7176 34.0781 18.6536 34.0348 18.5827 34.0053C18.5118 33.9757 18.4357 33.9605 18.3587 33.9605C18.2817 33.9605 18.2055 33.9757 18.1346 34.0053C18.0638 34.0348 17.9997 34.0781 17.9463 34.1325C17.8929 34.187 17.8512 34.2514 17.8238 34.322C17.7963 34.3925 17.7837 34.4678 17.7866 34.5433V36.9201C17.7868 37.1373 17.8524 37.3496 17.975 37.5304C18.0977 37.7112 18.272 37.8525 18.4762 37.9365V38.0348C18.4768 38.6038 18.7075 39.1494 19.1175 39.5517C19.5276 39.9541 20.0836 40.1804 20.6635 40.181H21.0672C21.2958 41.1753 21.9143 41.9493 22.8743 42.4326C23.6357 42.8161 24.5869 43.0022 25.6641 43.0022C27.853 43.0022 30.5588 42.2314 33.2274 40.7784C33.2782 40.7507 33.443 40.6429 33.4809 40.6199C36.1451 38.8877 38.3837 36.5962 40.0347 33.9112C41.6858 31.2261 42.7081 28.2146 43.0277 25.0944C43.3473 21.9742 42.9562 18.8233 41.8827 15.8696C40.8092 12.9158 39.0801 10.2331 36.8205 8.01536ZM19.6219 38.0332V38.0237H23.5138V38.0372C23.5114 38.3074 23.4005 38.5658 23.205 38.7562C23.0094 38.9465 22.7452 39.0534 22.4697 39.0536H20.6635C20.3877 39.053 20.1234 38.9453 19.9283 38.7541C19.7331 38.563 19.623 38.3038 19.6219 38.0332Z" fill="#7C4032"/>
<path d="M12.6938 23.0438C12.6621 23.0238 12.6268 23.0101 12.5898 23.0036C12.5528 22.9971 12.5148 22.9977 12.478 23.0056C12.4413 23.0135 12.4064 23.0284 12.3756 23.0495C12.3447 23.0706 12.3184 23.0975 12.2981 23.1286C10.9013 25.2613 9.28638 26.3618 7.23382 27.7554L6.84225 28.0216C6.7924 28.0557 6.75494 28.1045 6.73522 28.1609C6.71551 28.2173 6.71458 28.2784 6.73257 28.3353C6.7505 28.3923 6.78649 28.4421 6.83523 28.4777C6.88397 28.5134 6.94293 28.5328 7.00369 28.5334C7.06154 28.533 7.11792 28.5153 7.16518 28.4826L7.55601 28.2173C9.57462 26.8443 11.3187 25.6591 12.7761 23.432C12.8175 23.3698 12.832 23.294 12.8166 23.2213C12.8011 23.1485 12.757 23.0848 12.6938 23.0438Z" fill="#7C4032"/>
</g>
<defs>
<clipPath id="clip0_71_122">
<rect width="244" height="43" fill="white"/>
</clipPath>
</defs>
</svg>
