<svg width="244" height="55" viewBox="0 0 244 55" fill="none" xmlns="http://www.w3.org/2000/svg">
<g clip-path="url(#clip0_71_19)">
<path d="M98.7881 31.1241L95.2604 24.4729H94.7312V31.1241H89.7925V13.0892H97.5786C99.0065 13.0892 100.216 13.345 101.207 13.8566C102.198 14.3512 102.946 15.0419 103.45 15.9287C103.954 16.7985 104.206 17.7791 104.206 18.8706C104.206 20.0985 103.87 21.1814 103.198 22.1194C102.543 23.0404 101.577 23.6969 100.3 24.0892L104.306 31.1241H98.7881ZM94.7312 21.045H97.1754C97.8474 21.045 98.3513 20.883 98.6873 20.559C99.0233 20.2349 99.1913 19.7659 99.1913 19.152C99.1913 18.5721 99.0149 18.1202 98.6621 17.7962C98.3261 17.4551 97.8306 17.2845 97.1754 17.2845H94.7312V21.045ZM113.028 31.3031C111.617 31.3031 110.349 31.0047 109.223 30.4078C108.115 29.8109 107.241 28.9582 106.603 27.8497C105.964 26.7411 105.645 25.4365 105.645 23.9357C105.645 22.452 105.964 21.1559 106.603 20.0473C107.258 18.9388 108.14 18.0861 109.249 17.4892C110.374 16.8923 111.642 16.5938 113.053 16.5938C114.465 16.5938 115.724 16.8923 116.833 17.4892C117.959 18.0861 118.841 18.9388 119.479 20.0473C120.134 21.1559 120.462 22.452 120.462 23.9357C120.462 25.4194 120.134 26.7241 119.479 27.8497C118.841 28.9582 117.959 29.8109 116.833 30.4078C115.708 31.0047 114.439 31.3031 113.028 31.3031ZM113.028 26.9543C113.717 26.9543 114.288 26.6985 114.742 26.1869C115.212 25.6582 115.447 24.9078 115.447 23.9357C115.447 22.9636 115.212 22.2218 114.742 21.7101C114.288 21.1985 113.725 20.9427 113.053 20.9427C112.382 20.9427 111.819 21.1985 111.365 21.7101C110.912 22.2218 110.685 22.9636 110.685 23.9357C110.685 24.9249 110.903 25.6752 111.34 26.1869C111.777 26.6985 112.34 26.9543 113.028 26.9543ZM136.935 16.7729V31.1241H131.971V29.0776C131.551 29.7256 130.971 30.2543 130.232 30.6636C129.493 31.0559 128.645 31.252 127.687 31.252C126.041 31.252 124.739 30.7062 123.782 29.6148C122.841 28.5062 122.37 27.0055 122.37 25.1124V16.7729H127.284V24.4729C127.284 25.2915 127.494 25.9396 127.914 26.4171C128.351 26.8776 128.922 27.1078 129.627 27.1078C130.35 27.1078 130.921 26.8776 131.341 26.4171C131.761 25.9396 131.971 25.2915 131.971 24.4729V16.7729H136.935ZM148.993 16.645C150.623 16.645 151.916 17.1993 152.874 18.3078C153.831 19.3993 154.31 20.883 154.31 22.759V31.1241H149.371V23.4241C149.371 22.6055 149.161 21.9659 148.741 21.5055C148.321 21.028 147.759 20.7892 147.053 20.7892C146.314 20.7892 145.734 21.028 145.314 21.5055C144.894 21.9659 144.684 22.6055 144.684 23.4241V31.1241H139.746V16.7729H144.684V18.8194C145.121 18.1714 145.709 17.6512 146.448 17.259C147.187 16.8497 148.036 16.645 148.993 16.645ZM156.213 23.9357C156.213 22.452 156.474 21.1559 156.994 20.0473C157.532 18.9388 158.263 18.0861 159.187 17.4892C160.111 16.8923 161.135 16.5938 162.261 16.5938C163.168 16.5938 163.974 16.79 164.68 17.1822C165.402 17.5574 165.965 18.0776 166.368 18.7427V12.1938H171.332V31.1241H166.368V29.1287C165.982 29.7938 165.436 30.3225 164.73 30.7148C164.025 31.107 163.193 31.3031 162.236 31.3031C161.11 31.3031 160.085 31.0047 159.161 30.4078C158.254 29.8109 157.532 28.9582 156.994 27.8497C156.474 26.7241 156.213 25.4194 156.213 23.9357ZM166.393 23.9357C166.393 23.0148 166.141 22.29 165.637 21.7613C165.15 21.2326 164.545 20.9683 163.823 20.9683C163.084 20.9683 162.471 21.2326 161.984 21.7613C161.497 22.2729 161.253 22.9977 161.253 23.9357C161.253 24.8566 161.497 25.59 161.984 26.1357C162.471 26.6644 163.084 26.9287 163.823 26.9287C164.545 26.9287 165.15 26.6644 165.637 26.1357C166.141 25.607 166.393 24.8737 166.393 23.9357ZM187.965 31.1241L184.438 24.4729H183.908V31.1241H178.97V13.0892H186.756C188.184 13.0892 189.393 13.345 190.384 13.8566C191.375 14.3512 192.123 15.0419 192.627 15.9287C193.131 16.7985 193.383 17.7791 193.383 18.8706C193.383 20.0985 193.047 21.1814 192.375 22.1194C191.72 23.0404 190.754 23.6969 189.477 24.0892L193.484 31.1241H187.965ZM183.908 21.045H186.353C187.025 21.045 187.528 20.883 187.864 20.559C188.2 20.2349 188.368 19.7659 188.368 19.152C188.368 18.5721 188.192 18.1202 187.839 17.7962C187.503 17.4551 187.008 17.2845 186.353 17.2845H183.908V21.045ZM202.205 31.3031C200.794 31.3031 199.526 31.0047 198.401 30.4078C197.292 29.8109 196.418 28.9582 195.78 27.8497C195.142 26.7411 194.822 25.4365 194.822 23.9357C194.822 22.452 195.142 21.1559 195.78 20.0473C196.435 18.9388 197.317 18.0861 198.426 17.4892C199.551 16.8923 200.82 16.5938 202.231 16.5938C203.642 16.5938 204.902 16.8923 206.01 17.4892C207.136 18.0861 208.018 18.9388 208.656 20.0473C209.311 21.1559 209.639 22.452 209.639 23.9357C209.639 25.4194 209.311 26.7241 208.656 27.8497C208.018 28.9582 207.136 29.8109 206.01 30.4078C204.885 31.0047 203.617 31.3031 202.205 31.3031ZM202.205 26.9543C202.894 26.9543 203.465 26.6985 203.919 26.1869C204.389 25.6582 204.624 24.9078 204.624 23.9357C204.624 22.9636 204.389 22.2218 203.919 21.7101C203.465 21.1985 202.903 20.9427 202.231 20.9427C201.559 20.9427 200.996 21.1985 200.542 21.7101C200.089 22.2218 199.862 22.9636 199.862 23.9357C199.862 24.9249 200.08 25.6752 200.517 26.1869C200.954 26.6985 201.517 26.9543 202.205 26.9543ZM210.842 23.9357C210.842 22.452 211.144 21.1559 211.749 20.0473C212.353 18.9388 213.193 18.0861 214.269 17.4892C215.36 16.8923 216.604 16.5938 217.998 16.5938C219.795 16.5938 221.307 17.0969 222.533 18.1031C223.76 19.0923 224.549 20.4822 224.902 22.2729H219.661C219.359 21.3349 218.771 20.8659 217.897 20.8659C217.275 20.8659 216.78 21.1303 216.41 21.659C216.058 22.1706 215.881 22.9295 215.881 23.9357C215.881 24.9419 216.058 25.7093 216.41 26.238C216.78 26.7667 217.275 27.0311 217.897 27.0311C218.787 27.0311 219.375 26.5621 219.661 25.6241H224.902C224.549 27.3977 223.76 28.7876 222.533 29.7938C221.307 30.8 219.795 31.3031 217.998 31.3031C216.604 31.3031 215.36 31.0047 214.269 30.4078C213.193 29.8109 212.353 28.9582 211.749 27.8497C211.144 26.7411 210.842 25.4365 210.842 23.9357ZM235.798 31.1241L231.893 25.2404V31.1241H226.954V12.1938H231.893V22.4008L235.798 16.7729H241.72L236.151 23.9869L241.821 31.1241H235.798ZM98.3484 36.6518V44.7675H96.126V40.2895L94.6179 44.7675H92.7582L91.2388 40.2549V44.7675H89.0164V36.6518H91.7037L93.7107 41.9241L95.6724 36.6518H98.3484ZM106.769 44.8481C106.134 44.8481 105.563 44.7138 105.057 44.4452C104.558 44.1766 104.165 43.7928 103.877 43.294C103.59 42.7952 103.446 42.2081 103.446 41.5327C103.446 40.865 103.59 40.2818 103.877 39.7829C104.172 39.2841 104.569 38.9004 105.068 38.6318C105.574 38.3632 106.145 38.2289 106.78 38.2289C107.415 38.2289 107.982 38.3632 108.481 38.6318C108.987 38.9004 109.384 39.2841 109.672 39.7829C109.966 40.2818 110.114 40.865 110.114 41.5327C110.114 42.2004 109.966 42.7875 109.672 43.294C109.384 43.7928 108.987 44.1766 108.481 44.4452C107.974 44.7138 107.404 44.8481 106.769 44.8481ZM106.769 42.8911C107.079 42.8911 107.336 42.776 107.54 42.5457C107.751 42.3078 107.857 41.9702 107.857 41.5327C107.857 41.0953 107.751 40.7614 107.54 40.5312C107.336 40.301 107.082 40.1859 106.78 40.1859C106.478 40.1859 106.224 40.301 106.02 40.5312C105.816 40.7614 105.714 41.0953 105.714 41.5327C105.714 41.9778 105.812 42.3155 106.009 42.5457C106.206 42.776 106.459 42.8911 106.769 42.8911ZM118.264 42.6378L119.454 38.3095H121.824L119.636 44.7675H116.869L114.68 38.3095H117.05L118.264 42.6378ZM127.895 37.7109C127.502 37.7109 127.184 37.6034 126.943 37.3885C126.708 37.166 126.591 36.8897 126.591 36.5597C126.591 36.222 126.708 35.9419 126.943 35.7193C127.184 35.4968 127.502 35.3855 127.895 35.3855C128.281 35.3855 128.591 35.4968 128.825 35.7193C129.067 35.9419 129.188 36.222 129.188 36.5597C129.188 36.8897 129.067 37.166 128.825 37.3885C128.591 37.6034 128.281 37.7109 127.895 37.7109ZM128.995 38.3095V44.7675H126.772V38.3095H128.995ZM138.617 38.2519C139.35 38.2519 139.933 38.5013 140.363 39.0002C140.794 39.4913 141.01 40.159 141.01 41.0032V44.7675H138.787V41.3025C138.787 40.9341 138.693 40.6463 138.504 40.4391C138.315 40.2242 138.062 40.1168 137.744 40.1168C137.411 40.1168 137.151 40.2242 136.962 40.4391C136.773 40.6463 136.678 40.9341 136.678 41.3025V44.7675H134.456V38.3095H136.678V39.2304C136.875 38.9388 137.139 38.7047 137.472 38.5282C137.805 38.344 138.186 38.2519 138.617 38.2519ZM148.772 38.2289C149.203 38.2289 149.577 38.3171 149.895 38.4937C150.22 38.6702 150.469 38.9081 150.643 39.2074V38.3095H152.865V44.6984C152.865 45.3047 152.752 45.8496 152.525 46.3331C152.298 46.8242 151.943 47.2156 151.459 47.5073C150.983 47.7989 150.378 47.9447 149.645 47.9447C148.662 47.9447 147.876 47.7106 147.287 47.2425C146.697 46.7743 146.361 46.1374 146.277 45.3316H148.466C148.511 45.5388 148.625 45.6999 148.806 45.815C148.987 45.9302 149.222 45.9877 149.509 45.9877C150.265 45.9877 150.643 45.5579 150.643 44.6984V43.8696C150.469 44.1689 150.22 44.4068 149.895 44.5833C149.577 44.7598 149.203 44.8481 148.772 44.8481C148.265 44.8481 147.804 44.7138 147.389 44.4452C146.98 44.1766 146.655 43.7928 146.413 43.294C146.179 42.7875 146.062 42.2004 146.062 41.5327C146.062 40.865 146.179 40.2818 146.413 39.7829C146.655 39.2841 146.98 38.9004 147.389 38.6318C147.804 38.3632 148.265 38.2289 148.772 38.2289ZM150.643 41.5327C150.643 41.1183 150.53 40.7921 150.303 40.5542C150.084 40.3163 149.811 40.1974 149.486 40.1974C149.154 40.1974 148.878 40.3163 148.659 40.5542C148.439 40.7845 148.33 41.1106 148.33 41.5327C148.33 41.9471 148.439 42.2771 148.659 42.5227C148.878 42.7606 149.154 42.8796 149.486 42.8796C149.811 42.8796 150.084 42.7606 150.303 42.5227C150.53 42.2848 150.643 41.9548 150.643 41.5327ZM167.709 44.8481C166.78 44.8481 166.016 44.6255 165.419 44.1804C164.822 43.7276 164.501 43.0829 164.455 42.2464H166.825C166.848 42.5304 166.931 42.7376 167.074 42.8681C167.218 42.9985 167.403 43.0638 167.63 43.0638C167.834 43.0638 168.001 43.0139 168.129 42.9141C168.265 42.8067 168.333 42.6609 168.333 42.4767C168.333 42.2388 168.224 42.0546 168.004 41.9241C167.785 41.7936 167.43 41.6478 166.938 41.4867C166.417 41.3102 165.993 41.1413 165.668 40.9802C165.351 40.8113 165.071 40.5696 164.829 40.2549C164.595 39.9326 164.478 39.5143 164.478 39.0002C164.478 38.4783 164.606 38.0332 164.863 37.6648C165.12 37.2888 165.476 37.0048 165.929 36.813C166.383 36.6211 166.897 36.5252 167.471 36.5252C168.401 36.5252 169.142 36.7477 169.694 37.1928C170.253 37.6303 170.552 38.2481 170.59 39.0462H168.174C168.167 38.8006 168.091 38.6164 167.948 38.4937C167.812 38.3709 167.634 38.3095 167.415 38.3095C167.248 38.3095 167.112 38.3593 167.006 38.4591C166.901 38.5589 166.848 38.7009 166.848 38.885C166.848 39.0385 166.904 39.1728 167.018 39.288C167.139 39.3954 167.286 39.4913 167.46 39.5757C167.634 39.6525 167.891 39.7523 168.231 39.875C168.738 40.0516 169.153 40.2281 169.478 40.4046C169.811 40.5734 170.094 40.8152 170.329 41.1298C170.571 41.4368 170.692 41.8282 170.692 42.304C170.692 42.7875 170.571 43.2211 170.329 43.6048C170.094 43.9885 169.751 44.2917 169.297 44.5142C168.851 44.7368 168.322 44.8481 167.709 44.8481ZM181.998 41.4636C181.998 41.6402 181.987 41.8167 181.964 41.9932H177.757C177.78 42.3462 177.874 42.611 178.041 42.7875C178.214 42.9563 178.434 43.0407 178.698 43.0407C179.069 43.0407 179.333 42.8719 179.492 42.5342H181.862C181.764 42.9793 181.571 43.3784 181.284 43.7314C181.004 44.0768 180.649 44.3492 180.218 44.5488C179.787 44.7483 179.311 44.8481 178.789 44.8481C178.162 44.8481 177.602 44.7138 177.111 44.4452C176.627 44.1766 176.245 43.7928 175.966 43.294C175.693 42.7952 175.557 42.2081 175.557 41.5327C175.557 40.8574 175.693 40.2741 175.966 39.7829C176.238 39.2841 176.616 38.9004 177.099 38.6318C177.591 38.3632 178.154 38.2289 178.789 38.2289C179.416 38.2289 179.972 38.3593 180.456 38.6203C180.94 38.8812 181.318 39.2573 181.59 39.7484C181.862 40.2319 181.998 40.8036 181.998 41.4636ZM179.73 40.8996C179.73 40.6233 179.639 40.4084 179.458 40.2549C179.277 40.0938 179.05 40.0132 178.778 40.0132C178.506 40.0132 178.283 40.0899 178.109 40.2434C177.935 40.3892 177.821 40.608 177.768 40.8996H179.73ZM189.326 39.4491C189.575 39.0807 189.877 38.7891 190.233 38.5742C190.588 38.3593 190.97 38.2519 191.378 38.2519V40.6578H190.754C190.27 40.6578 189.911 40.7538 189.677 40.9456C189.443 41.1375 189.326 41.4713 189.326 41.9471V44.7675H187.103V38.3095H189.326V39.4491ZM199.42 42.6378L200.611 38.3095H202.981L200.792 44.7675H198.026L195.837 38.3095H198.207L199.42 42.6378ZM209.052 37.7109C208.659 37.7109 208.341 37.6034 208.099 37.3885C207.865 37.166 207.748 36.8897 207.748 36.5597C207.748 36.222 207.865 35.9419 208.099 35.7193C208.341 35.4968 208.659 35.3855 209.052 35.3855C209.437 35.3855 209.747 35.4968 209.981 35.7193C210.223 35.9419 210.344 36.222 210.344 36.5597C210.344 36.8897 210.223 37.166 209.981 37.3885C209.747 37.6034 209.437 37.7109 209.052 37.7109ZM210.152 38.3095V44.7675H207.929V38.3095H210.152ZM215.25 41.5327C215.25 40.865 215.386 40.2818 215.658 39.7829C215.93 39.2841 216.308 38.9004 216.792 38.6318C217.283 38.3632 217.843 38.2289 218.47 38.2289C219.279 38.2289 219.959 38.4553 220.511 38.9081C221.063 39.3532 221.418 39.9786 221.577 40.7845H219.219C219.083 40.3624 218.818 40.1513 218.425 40.1513C218.145 40.1513 217.922 40.2703 217.756 40.5082C217.597 40.7384 217.518 41.0799 217.518 41.5327C217.518 41.9855 217.597 42.3309 217.756 42.5688C217.922 42.8067 218.145 42.9256 218.425 42.9256C218.826 42.9256 219.09 42.7146 219.219 42.2925H221.577C221.418 43.0906 221.063 43.7161 220.511 44.1689C219.959 44.6217 219.279 44.8481 218.47 44.8481C217.843 44.8481 217.283 44.7138 216.792 44.4452C216.308 44.1766 215.93 43.7928 215.658 43.294C215.386 42.7952 215.25 42.2081 215.25 41.5327ZM232.773 41.4636C232.773 41.6402 232.762 41.8167 232.739 41.9932H228.533C228.555 42.3462 228.65 42.611 228.816 42.7875C228.99 42.9563 229.209 43.0407 229.474 43.0407C229.844 43.0407 230.109 42.8719 230.268 42.5342H232.637C232.539 42.9793 232.346 43.3784 232.059 43.7314C231.779 44.0768 231.424 44.3492 230.993 44.5488C230.562 44.7483 230.086 44.8481 229.564 44.8481C228.937 44.8481 228.378 44.7138 227.886 44.4452C227.403 44.1766 227.021 43.7928 226.741 43.294C226.469 42.7952 226.333 42.2081 226.333 41.5327C226.333 40.8574 226.469 40.2741 226.741 39.7829C227.013 39.2841 227.391 38.9004 227.875 38.6318C228.366 38.3632 228.93 38.2289 229.564 38.2289C230.192 38.2289 230.748 38.3593 231.231 38.6203C231.715 38.8812 232.093 39.2573 232.365 39.7484C232.637 40.2319 232.773 40.8036 232.773 41.4636ZM230.506 40.8996C230.506 40.6233 230.415 40.4084 230.234 40.2549C230.052 40.0938 229.825 40.0132 229.553 40.0132C229.281 40.0132 229.058 40.0899 228.884 40.2434C228.71 40.3892 228.597 40.608 228.544 40.8996H230.506ZM240.589 44.8481C240.014 44.8481 239.5 44.7521 239.046 44.5603C238.6 44.3607 238.245 44.0921 237.981 43.7545C237.724 43.4091 237.58 43.0216 237.55 42.5918H239.704C239.734 42.799 239.829 42.9602 239.988 43.0753C240.146 43.1904 240.343 43.2479 240.577 43.2479C240.759 43.2479 240.902 43.2096 241.008 43.1328C241.114 43.0561 241.167 42.9563 241.167 42.8335C241.167 42.6724 241.08 42.5534 240.906 42.4767C240.732 42.3999 240.445 42.3155 240.044 42.2234C239.591 42.1313 239.213 42.0277 238.91 41.9126C238.608 41.7975 238.343 41.6095 238.117 41.3485C237.897 41.0876 237.788 40.7346 237.788 40.2895C237.788 39.9057 237.89 39.5604 238.094 39.2534C238.298 38.9388 238.597 38.6893 238.99 38.5052C239.39 38.321 239.87 38.2289 240.43 38.2289C241.261 38.2289 241.915 38.4361 242.392 38.8505C242.868 39.2649 243.144 39.8098 243.219 40.4852H241.212C241.174 40.278 241.084 40.1206 240.94 40.0132C240.804 39.8981 240.619 39.8405 240.384 39.8405C240.203 39.8405 240.063 39.875 239.965 39.9441C239.874 40.0132 239.829 40.1091 239.829 40.2319C239.829 40.3854 239.916 40.5043 240.09 40.5888C240.264 40.6655 240.543 40.7461 240.929 40.8305C241.39 40.9303 241.772 41.0416 242.074 41.1643C242.384 41.2871 242.652 41.4867 242.879 41.763C243.113 42.0316 243.231 42.3999 243.231 42.8681C243.231 43.2441 243.121 43.5818 242.902 43.8811C242.69 44.1804 242.384 44.4183 241.983 44.5948C241.59 44.7636 241.125 44.8481 240.589 44.8481Z" fill="#7C4032"/>
<path d="M17.0694 39.5947C16.8554 39.5934 16.6463 39.529 16.4675 39.4094C16.2887 39.2897 16.1479 39.1198 16.062 38.9203C15.9761 38.7209 15.9489 38.5004 15.9837 38.2855C16.0185 38.0706 16.1138 37.8706 16.2579 37.7097C17.0815 36.7968 17.8342 35.8204 18.5094 34.7891C18.674 34.545 18.9262 34.3765 19.2118 34.3199C19.4973 34.2633 19.7933 34.3232 20.0359 34.4866C20.2784 34.6502 20.4481 34.904 20.5083 35.1937C20.5685 35.4833 20.5143 35.7853 20.3575 36.0347C19.6187 37.1623 18.7954 38.2302 17.895 39.2288C17.7904 39.3455 17.6629 39.4384 17.5206 39.5015C17.3783 39.5645 17.2246 39.5963 17.0694 39.5947Z" fill="#7C4032"/>
<path d="M25.7616 34.4329C24.0417 34.4329 21.7872 33.9891 18.8946 33.1062C15.3798 32.0945 13.3645 30.6994 12.1574 28.439C12.0409 28.1788 12.0258 27.8832 12.1154 27.6121C12.2049 27.3411 12.3923 27.1147 12.6396 26.9789C12.887 26.843 13.1758 26.8079 13.4477 26.8805C13.7195 26.9531 13.9541 27.1281 14.104 27.3701C15.0124 29.069 16.5775 30.1061 19.506 30.9476H19.5232C24.2857 32.4015 27.1844 32.5733 27.924 31.4471C27.9694 31.3648 27.9977 31.2739 28.0068 31.1799C28.0159 31.086 28.0058 30.9912 27.9772 30.9014C27.863 30.4847 27.4268 30.0727 26.7498 29.7418C25.7992 29.2884 25.2566 29.0658 24.5687 28.7874C23.9542 28.5345 23.2569 28.2481 22.103 27.728C18.2083 26.0052 17.9393 22.8619 17.9299 22.7283L20.1408 22.5692V22.5518C20.1486 22.6313 20.3737 24.5099 22.9958 25.6696C24.1215 26.177 24.8016 26.4554 25.4005 26.702C26.0916 26.9851 26.6872 27.2301 27.702 27.7152C29.3265 28.5106 29.9081 29.5605 30.1129 30.3033C30.2263 30.7025 30.2552 31.1216 30.1975 31.533C30.1398 31.9443 29.9969 32.3385 29.7783 32.6895C29.0153 33.8523 27.7332 34.4329 25.7616 34.4329Z" fill="#7C4032"/>
<path d="M15.3332 54.6022C15.1533 54.6022 14.9829 54.6022 14.8297 54.586C14.4357 54.5766 9.79355 54.4666 8.2973 54.3745H8.28479C6.0255 54.1997 4.66989 53.5346 4.143 52.3446C3.42847 50.7287 4.67304 49.0583 5.08112 48.5095L5.0983 48.4874C5.5283 47.9399 5.51423 47.7395 5.43133 47.3976C5.33911 47.0889 5.03891 46.709 4.66208 46.2298C3.8475 45.1946 2.64984 43.6738 1.84775 40.7595C1.4423 40.7024 1.06114 40.5293 0.748635 40.2603C0.43613 39.9914 0.205132 39.6377 0.0825333 39.2404C-0.00461656 38.9323 -0.0230308 38.6084 0.028636 38.2922C0.0803029 37.9759 0.200746 37.6754 0.381166 37.4127C0.58833 37.1059 0.857536 36.8477 1.17075 36.6555C1.36306 31.7115 4.27592 25.0273 4.61987 24.2478C5.34797 22.6112 5.78372 20.8557 5.90665 19.0637V18.9778L5.92231 18.8919C7.97989 7.35594 14.6452 3.30279 16.1915 2.50743C17.8066 0.216795 19.8892 -0.227017 21.2198 0.110216C21.4593 0.166262 21.6828 0.278022 21.8726 0.436723C22.0626 0.595421 22.2137 0.796742 22.3143 1.02488C22.5847 1.63254 22.4706 2.35155 22.2877 2.91784C22.6145 3.26939 23.0522 3.75774 23.4807 4.28745C24.8769 6.01816 25.3319 7.15077 25.002 8.06066C24.8988 8.35493 25.89 9.45254 27.0033 10.6456L27.0643 10.7155C27.3003 11.0162 27.7538 11.8545 26.8704 13.1573C26.1871 14.1579 24.572 15.5688 23.1383 15.0932C22.874 15.0058 22.5128 14.8785 22.0766 14.7099C21.8561 15.2189 21.8593 15.8679 22.0766 16.6012C22.1298 16.773 22.1986 16.9783 22.2767 17.2121C22.9041 18.9758 23.3414 20.8036 23.5807 22.6635C23.5979 22.8104 23.5864 22.9594 23.547 23.1018C23.5075 23.2443 23.4409 23.3774 23.3509 23.4937C23.2608 23.6099 23.1492 23.707 23.0223 23.7794C22.8954 23.8517 22.7558 23.8979 22.6113 23.9154C22.4669 23.9328 22.3205 23.9211 22.1805 23.881C22.0405 23.8409 21.9096 23.7731 21.7953 23.6815C21.6811 23.5899 21.5856 23.4764 21.5145 23.3472C21.4434 23.2181 21.398 23.0761 21.3808 22.9291C21.161 21.226 20.7578 19.5525 20.1785 17.939C20.0941 17.6829 20.0222 17.4618 19.9627 17.2725C19.4186 15.5037 19.7892 14.2358 20.1972 13.4834C20.2889 13.3106 20.3934 13.1452 20.5099 12.9887C20.64 12.8162 20.7855 12.6565 20.9446 12.5115L21.4497 12.0597L22.075 12.3047C22.8068 12.5926 23.3837 12.8074 23.7496 12.9314C24.081 12.8758 24.7768 12.2824 25.0598 11.8514C23.4041 10.0697 22.4253 8.90374 22.8709 7.42594C22.7145 6.85488 21.509 5.28644 20.2019 3.97885L19.6203 3.39506L19.9956 2.65696C20.0548 2.53448 20.107 2.4086 20.1519 2.27996C19.5265 2.36109 18.6603 2.78899 17.8645 4.02976L17.6816 4.30497L17.3689 4.43859C17.3532 4.44494 15.5551 5.25937 13.5226 7.4864C11.6464 9.53364 9.20258 13.2289 8.11747 19.2259C7.9775 21.2871 7.4766 23.3061 6.6384 25.188C5.41886 27.9288 3.35499 33.5424 3.37688 37.1899C3.3872 37.4796 3.30589 37.765 3.14489 38.0041C2.9839 38.2432 2.75173 38.4234 2.48254 38.5182C2.73285 38.4924 2.98492 38.5454 3.20469 38.67C3.42447 38.7946 3.60136 38.9848 3.71147 39.2149L3.76619 39.3295L3.7959 39.4536C4.47604 42.3932 5.53611 43.739 6.38667 44.819C6.90575 45.4777 7.35292 46.0469 7.56245 46.7947L7.57181 46.8297C7.84697 47.9527 7.62653 48.866 6.8354 49.8807C6.00983 50.9943 6.1412 51.3776 6.15837 51.419C6.17559 51.4604 6.42417 51.9677 8.44114 52.125C9.93899 52.2193 14.8516 52.3335 14.9 52.3352H14.9422C15.2374 52.3502 15.5332 52.3429 15.8272 52.3131C15.0142 51.7196 13.7634 51.7498 12.8362 51.772C12.4384 51.8019 12.0385 51.7844 11.6448 51.7196C10.4346 51.4459 10.1751 50.7125 10.1282 50.3007C9.99216 49.0791 11.2789 48.1945 13.4006 47.1622L13.4444 47.1414C14.1449 46.8391 17.6049 45.1882 17.2735 42.2866C16.7325 39.4233 15.5536 38.1507 13.6774 36.401C13.4874 36.1941 13.3809 35.922 13.3792 35.6389C13.3775 35.3558 13.4807 35.0824 13.6682 34.8732C13.8557 34.664 14.1137 34.5343 14.391 34.51C14.6682 34.4856 14.9443 34.5684 15.1643 34.7418C17.2563 36.692 18.7885 38.348 19.4515 41.9001L19.4624 41.9701C19.8939 45.4696 17.0984 47.9988 14.3294 49.2045C14.1042 49.3107 13.9025 49.4126 13.7243 49.5102C14.8828 49.5371 16.3354 49.7421 17.4548 50.759L17.4877 50.7888C18.3789 51.6688 18.6587 52.5117 18.3194 53.2992C17.8566 54.3839 16.4151 54.6022 15.3332 54.6022ZM22.9147 7.28913V7.30345V7.28913Z" fill="#7C4032"/>
<path d="M62.9354 39.5947C62.7809 39.595 62.6284 39.5624 62.4873 39.4991C62.3462 39.4358 62.2198 39.3432 62.1161 39.2272C61.2157 38.2289 60.393 37.1609 59.6551 36.0331C59.4926 35.7839 59.4342 35.4794 59.4926 35.1865C59.5509 34.8935 59.7214 34.6361 59.9663 34.471C60.2111 34.3058 60.5101 34.2464 60.7982 34.3057C61.0863 34.3651 61.3391 34.5384 61.5017 34.7875C62.177 35.8189 62.93 36.7959 63.7531 37.7097C63.898 37.871 63.9937 38.0717 64.0286 38.2874C64.0635 38.5031 64.0357 38.7245 63.9492 38.9245C63.8627 39.1245 63.7203 39.2945 63.5406 39.4138C63.3604 39.5331 63.15 39.5965 62.9354 39.5963V39.5947Z" fill="#7C4032"/>
<path d="M54.2387 34.4328C52.2686 34.4328 50.9911 33.8538 50.2326 32.683C50.0109 32.3305 49.866 31.9338 49.8072 31.5195C49.7484 31.1053 49.7774 30.683 49.892 30.2811C50.0966 29.5398 50.6736 28.4883 52.2934 27.6993C53.3177 27.2094 53.9149 26.9644 54.6057 26.6813C55.2046 26.4347 55.8833 26.1563 57.0029 25.652C59.631 24.4892 59.8561 22.6106 59.8641 22.5311V22.5485L62.0748 22.7076C62.0656 22.8412 61.7964 25.9845 57.8941 27.7104C56.748 28.2274 56.0521 28.5137 55.436 28.7667C54.7481 29.0498 54.2055 29.2725 53.2471 29.7307C52.5794 30.0568 52.1435 30.4688 52.0292 30.8855C52.0003 30.9771 51.9906 31.0737 52.0007 31.1693C52.0108 31.2649 52.0402 31.3573 52.0872 31.4407C52.8158 32.5542 55.7207 32.3856 60.4831 30.9317H60.5004C63.4288 30.0902 64.994 29.053 65.9024 27.3541C66.0481 27.1022 66.2846 26.9177 66.5617 26.8397C66.8385 26.7616 67.1346 26.7961 67.387 26.9358C67.6394 27.0755 67.8288 27.3095 67.9149 27.5885C68.0014 27.8674 67.9774 28.1695 67.8489 28.431C66.6419 30.6914 64.6265 32.0897 61.1118 33.0998C58.2145 33.989 55.9614 34.4328 54.2387 34.4328Z" fill="#7C4032"/>
<path d="M64.6707 54.6018C63.5888 54.6018 62.1471 54.3835 61.678 53.3005C61.3387 52.5131 61.6188 51.6697 62.5099 50.7902L62.5398 50.7535C63.659 49.7371 65.1116 49.532 66.2716 49.5051C66.0918 49.4109 65.8903 49.3094 65.6652 49.1994C62.8963 47.9937 60.1006 45.4645 60.5319 41.9649L60.5428 41.8949C61.206 38.3413 62.7321 36.6853 64.8303 34.7367C64.9374 34.6367 65.0629 34.5592 65.1998 34.5087C65.3363 34.4581 65.4816 34.4354 65.6269 34.4419C65.7722 34.4484 65.915 34.4839 66.0469 34.5465C66.1788 34.6091 66.2972 34.6975 66.3955 34.8066C66.4933 34.9158 66.5698 35.0436 66.6193 35.1826C66.6693 35.3218 66.6916 35.4695 66.6848 35.6173C66.6785 35.7652 66.6437 35.9103 66.5824 36.0444C66.5206 36.1785 66.4337 36.299 66.3266 36.399C64.4502 38.1488 63.2684 39.4214 62.7304 42.2846C62.4003 45.1861 65.8575 46.8374 66.5593 47.1397L66.6034 47.1602C68.725 48.1928 70.0135 49.0771 69.8757 50.2986C69.8287 50.7109 69.5708 51.4442 68.3592 51.7175C67.9653 51.7823 67.5655 51.8002 67.1678 51.7699C66.2405 51.7478 64.9899 51.7175 64.1768 52.311C64.4712 52.3417 64.7677 52.3489 65.0633 52.3331H65.1037C65.1524 52.3331 70.0664 52.2172 71.5627 52.1234C73.5798 51.9643 73.8343 51.4391 73.8457 51.4169C73.8566 51.3947 74.0019 50.9922 73.1683 49.8786C72.3775 48.8639 72.157 47.9506 72.4321 46.8276L72.4413 46.7926C72.6509 46.0452 73.0998 45.4756 73.6172 44.8169C74.4676 43.7369 75.5276 42.3912 76.208 39.4516L76.2378 39.3275L76.2924 39.2114C76.4028 38.9818 76.5792 38.7921 76.7989 38.6678C77.0181 38.5435 77.2701 38.4906 77.5199 38.5162C77.2491 38.4198 77.0164 38.2374 76.8556 37.9959C76.6947 37.7544 76.6145 37.4667 76.6271 37.1752C76.6443 33.5405 74.5852 27.9268 73.3656 25.1844C72.527 23.3032 72.026 21.2846 71.8865 19.2239C69.7943 7.66576 62.696 4.46365 62.6305 4.4382L62.3176 4.30458L62.1345 4.01982C61.3387 2.78701 60.4647 2.35911 59.8457 2.27003C59.8902 2.39985 59.9423 2.52681 60.0019 2.65021L60.3711 3.38513L59.794 3.96892C58.4854 5.2765 57.2751 6.84652 57.1252 7.41762C57.5581 8.90015 56.5809 10.063 54.9283 11.8414C55.2114 12.2725 55.9072 12.8658 56.2386 12.9215C56.6044 12.7974 57.1768 12.5811 57.913 12.2948L58.5388 12.0498L59.0436 12.5015C59.2027 12.6468 59.3489 12.8066 59.4799 12.9788C59.5958 13.1361 59.7004 13.302 59.7924 13.4751C60.1989 14.2259 60.5743 15.4937 60.0271 17.2642C59.9692 17.4503 59.894 17.6746 59.8083 17.9291C59.2313 19.5433 58.829 21.2165 58.6072 22.9192C58.5728 23.216 58.4237 23.4866 58.1927 23.6716C57.9621 23.8566 57.6686 23.9407 57.3767 23.9054C57.0853 23.8702 56.819 23.7185 56.6372 23.4838C56.4557 23.249 56.373 22.9503 56.4074 22.6536C56.6468 20.7942 57.084 18.9669 57.7114 17.2037C57.7895 16.9683 57.8584 16.7631 57.9117 16.5913C58.1369 15.858 58.1385 15.209 57.9117 14.6999C57.4708 14.8685 57.1142 14.9958 56.8513 15.0833C55.41 15.5605 53.7965 14.148 53.1162 13.1474C52.233 11.843 52.6861 11.0063 52.9238 10.7056L52.9835 10.6356C54.0968 9.44261 55.0879 8.34499 54.98 8.03797C54.6549 7.13606 55.1097 6.00822 56.5061 4.27751C56.9345 3.74781 57.3721 3.25946 57.6988 2.90791C57.5174 2.34161 57.4019 1.62261 57.6724 1.01495C57.7727 0.786811 57.9239 0.58549 58.1142 0.426791C58.304 0.26809 58.5274 0.15633 58.7668 0.100284C60.0972 -0.236949 62.1799 0.206863 63.7938 2.50386C65.3401 3.29923 72.0054 7.35397 74.0628 18.8883L74.0783 18.9742V19.0633C74.2001 20.8544 74.6352 22.609 75.3638 24.2443C75.7078 25.0174 78.6253 31.7111 78.8126 36.6519C79.1263 36.8431 79.3955 37.1008 79.6026 37.4075C79.7831 37.6707 79.9037 37.9718 79.9549 38.2887C80.0066 38.6055 79.9872 38.93 79.8995 39.2384C79.7773 39.6335 79.5475 39.9853 79.2372 40.2533C78.9268 40.5213 78.548 40.6945 78.1453 40.7528C77.3398 43.667 76.1408 45.1878 75.3307 46.2234C74.954 46.7005 74.6537 47.0821 74.5617 47.3908C74.4786 47.7327 74.4664 47.9331 74.8947 48.4806L74.912 48.5028C75.3197 49.0515 76.5645 50.7219 75.8497 52.3378C75.3231 53.5278 73.9738 54.1929 71.708 54.3677H71.6908C70.1945 54.4602 65.5526 54.5698 65.1587 54.5792C65.0209 54.5954 64.8504 54.6018 64.6707 54.6018ZM57.0861 7.27603V7.29351V7.27603Z" fill="#7C4032"/>
<path d="M54.3081 24.968C54.1628 24.9682 54.0183 24.9392 53.884 24.8826C53.7491 24.826 53.6269 24.7429 53.524 24.6381C53.4212 24.5334 53.3393 24.409 53.2838 24.272C53.228 24.1351 53.1994 23.9884 53.1998 23.8402V22.6281C53.1998 22.1159 52.8697 21.6832 52.4804 21.6832H27.5157C27.1264 21.6832 26.7981 22.1159 26.7981 22.6281V23.8402C26.8037 23.9917 26.7792 24.1429 26.726 24.2846C26.6729 24.4263 26.5922 24.5557 26.4888 24.6649C26.3853 24.7742 26.2613 24.8611 26.1241 24.9204C25.9869 24.9798 25.8394 25.0104 25.6903 25.0104C25.5412 25.0104 25.3937 24.9798 25.2565 24.9204C25.1193 24.8611 24.9953 24.7742 24.8919 24.6649C24.7884 24.5557 24.7078 24.4263 24.6546 24.2846C24.6015 24.1429 24.5769 23.9917 24.5826 23.8402V22.6281C24.5826 20.864 25.899 19.4291 27.5157 19.4291H52.4804C54.0986 19.4291 55.4168 20.8608 55.4168 22.6281V23.8402C55.4168 24.1393 55.3001 24.4262 55.0922 24.6377C54.8843 24.8492 54.6021 24.968 54.3081 24.968Z" fill="#7C4032"/>
<path d="M52.4806 42.7188H27.5159C25.8992 42.7188 24.5828 41.2873 24.5828 39.5215V37.0909C24.5935 36.7993 24.7149 36.5234 24.9215 36.321C25.1281 36.1185 25.4037 36.0055 25.6905 36.0055C25.9773 36.0055 26.2529 36.1185 26.4595 36.321C26.666 36.5234 26.7875 36.7993 26.7983 37.0909V39.5215C26.7983 40.0322 27.1266 40.4649 27.5159 40.4649H52.4806C52.8699 40.4649 53.2 40.0322 53.2 39.5215V37.0909C53.2 36.7918 53.3167 36.505 53.5246 36.2934C53.7325 36.082 54.0143 35.9631 54.3083 35.9631C54.6022 35.9631 54.8845 36.082 55.0923 36.2934C55.3002 36.505 55.417 36.7918 55.417 37.0909V39.5215C55.417 41.2841 54.0958 42.7188 52.4806 42.7188Z" fill="#7C4032"/>
</g>
<defs>
<clipPath id="clip0_71_19">
<rect width="244" height="55" fill="white"/>
</clipPath>
</defs>
</svg>
