<svg width="244" height="50" viewBox="0 0 244 50" fill="none" xmlns="http://www.w3.org/2000/svg">
<g clip-path="url(#clip0_71_63)">
<path d="M64.5656 29.6875L60.1484 21.5625H59.4858V29.6875H53.3017V7.65625H63.0511C64.8391 7.65625 66.3535 7.96875 67.5946 8.59375C68.8356 9.19792 69.7717 10.0417 70.4027 11.125C71.0337 12.1875 71.3492 13.3854 71.3492 14.7188C71.3492 16.2188 70.9286 17.5417 70.0872 18.6875C69.2668 19.8125 68.0573 20.6146 66.4587 21.0938L71.4754 29.6875H64.5656ZM59.4858 17.375H62.5463C63.3877 17.375 64.0187 17.1771 64.4394 16.7813C64.8601 16.3854 65.0704 15.8125 65.0704 15.0625C65.0704 14.3542 64.8496 13.8021 64.4079 13.4062C63.9872 12.9896 63.3667 12.7813 62.5463 12.7813H59.4858V17.375ZM82.3966 29.9063C80.6297 29.9063 79.0416 29.5417 77.6322 28.8125C76.244 28.0833 75.1502 27.0417 74.3509 25.6875C73.5515 24.3333 73.1519 22.7396 73.1519 20.9063C73.1519 19.0938 73.5515 17.5104 74.3509 16.1563C75.1712 14.8021 76.2755 13.7604 77.6638 13.0313C79.0731 12.3021 80.6612 11.9375 82.4281 11.9375C84.195 11.9375 85.7726 12.3021 87.1609 13.0313C88.5702 13.7604 89.6745 14.8021 90.4738 16.1563C91.2941 17.5104 91.7043 19.0938 91.7043 20.9063C91.7043 22.7188 91.2941 24.3125 90.4738 25.6875C89.6745 27.0417 88.5702 28.0833 87.1609 28.8125C85.7515 29.5417 84.1634 29.9063 82.3966 29.9063ZM82.3966 24.5938C83.259 24.5938 83.9741 24.2813 84.5421 23.6563C85.131 23.0104 85.4255 22.0938 85.4255 20.9063C85.4255 19.7188 85.131 18.8125 84.5421 18.1875C83.9741 17.5625 83.2695 17.25 82.4281 17.25C81.5867 17.25 80.8821 17.5625 80.3141 18.1875C79.7462 18.8125 79.4622 19.7188 79.4622 20.9063C79.4622 22.1146 79.7357 23.0313 80.2826 23.6563C80.8295 24.2813 81.5341 24.5938 82.3966 24.5938ZM112.331 12.1563V29.6875H106.116V27.1875C105.59 27.9792 104.864 28.625 103.938 29.125C103.013 29.6042 101.951 29.8438 100.752 29.8438C98.6904 29.8438 97.0602 29.1771 95.8612 27.8438C94.6833 26.4896 94.0943 24.6563 94.0943 22.3438V12.1563H100.247V21.5625C100.247 22.5625 100.51 23.3542 101.036 23.9375C101.583 24.5 102.298 24.7813 103.181 24.7813C104.086 24.7813 104.801 24.5 105.327 23.9375C105.853 23.3542 106.116 22.5625 106.116 21.5625V12.1563H112.331ZM127.43 12C129.47 12 131.09 12.6771 132.289 14.0313C133.488 15.3646 134.087 17.1771 134.087 19.4688V29.6875H127.903V20.2812C127.903 19.2812 127.64 18.5 127.114 17.9375C126.588 17.3542 125.884 17.0625 125 17.0625C124.075 17.0625 123.349 17.3542 122.823 17.9375C122.297 18.5 122.034 19.2812 122.034 20.2812V29.6875H115.85V12.1563H122.034V14.6562C122.581 13.8646 123.318 13.2292 124.243 12.75C125.169 12.25 126.231 12 127.43 12ZM136.471 20.9063C136.471 19.0938 136.797 17.5104 137.449 16.1563C138.122 14.8021 139.037 13.7604 140.194 13.0313C141.351 12.3021 142.634 11.9375 144.043 11.9375C145.179 11.9375 146.189 12.1771 147.072 12.6562C147.977 13.1146 148.681 13.75 149.186 14.5625V6.5625H155.402V29.6875H149.186V27.25C148.702 28.0625 148.019 28.7083 147.135 29.1875C146.252 29.6667 145.211 29.9063 144.012 29.9063C142.602 29.9063 141.319 29.5417 140.162 28.8125C139.027 28.0833 138.122 27.0417 137.449 25.6875C136.797 24.3125 136.471 22.7188 136.471 20.9063ZM149.218 20.9063C149.218 19.7812 148.902 18.8958 148.271 18.25C147.661 17.6042 146.904 17.2813 146 17.2813C145.074 17.2813 144.306 17.6042 143.696 18.25C143.086 18.875 142.781 19.7604 142.781 20.9063C142.781 22.0313 143.086 22.9271 143.696 23.5938C144.306 24.2396 145.074 24.5625 146 24.5625C146.904 24.5625 147.661 24.2396 148.271 23.5938C148.902 22.9479 149.218 22.0521 149.218 20.9063ZM176.229 29.6875L171.812 21.5625H171.149V29.6875H164.965V7.65625H174.715C176.503 7.65625 178.017 7.96875 179.258 8.59375C180.499 9.19792 181.435 10.0417 182.066 11.125C182.697 12.1875 183.013 13.3854 183.013 14.7188C183.013 16.2188 182.592 17.5417 181.751 18.6875C180.93 19.8125 179.721 20.6146 178.122 21.0938L183.139 29.6875H176.229ZM171.149 17.375H174.21C175.051 17.375 175.682 17.1771 176.103 16.7813C176.524 16.3854 176.734 15.8125 176.734 15.0625C176.734 14.3542 176.513 13.8021 176.072 13.4062C175.651 12.9896 175.03 12.7813 174.21 12.7813H171.149V17.375ZM194.06 29.9063C192.293 29.9063 190.705 29.5417 189.296 28.8125C187.908 28.0833 186.814 27.0417 186.015 25.6875C185.215 24.3333 184.816 22.7396 184.816 20.9063C184.816 19.0938 185.215 17.5104 186.015 16.1563C186.835 14.8021 187.939 13.7604 189.327 13.0313C190.737 12.3021 192.325 11.9375 194.092 11.9375C195.859 11.9375 197.436 12.3021 198.825 13.0313C200.234 13.7604 201.338 14.8021 202.137 16.1563C202.958 17.5104 203.368 19.0938 203.368 20.9063C203.368 22.7188 202.958 24.3125 202.137 25.6875C201.338 27.0417 200.234 28.0833 198.825 28.8125C197.415 29.5417 195.827 29.9063 194.06 29.9063ZM194.06 24.5938C194.923 24.5938 195.638 24.2813 196.206 23.6563C196.795 23.0104 197.089 22.0938 197.089 20.9063C197.089 19.7188 196.795 18.8125 196.206 18.1875C195.638 17.5625 194.933 17.25 194.092 17.25C193.25 17.25 192.546 17.5625 191.978 18.1875C191.41 18.8125 191.126 19.7188 191.126 20.9063C191.126 22.1146 191.399 23.0313 191.946 23.6563C192.493 24.2813 193.198 24.5938 194.06 24.5938ZM204.874 20.9063C204.874 19.0938 205.253 17.5104 206.01 16.1563C206.767 14.8021 207.819 13.7604 209.165 13.0313C210.532 12.3021 212.089 11.9375 213.835 11.9375C216.085 11.9375 217.979 12.5521 219.514 13.7812C221.05 14.9896 222.038 16.6875 222.48 18.875H215.917C215.539 17.7292 214.802 17.1562 213.709 17.1562C212.93 17.1562 212.31 17.4792 211.847 18.125C211.405 18.75 211.184 19.6771 211.184 20.9063C211.184 22.1354 211.405 23.0729 211.847 23.7188C212.31 24.3646 212.93 24.6875 213.709 24.6875C214.823 24.6875 215.56 24.1146 215.917 22.9688H222.48C222.038 25.1354 221.05 26.8333 219.514 28.0625C217.979 29.2917 216.085 29.9063 213.835 29.9063C212.089 29.9063 210.532 29.5417 209.165 28.8125C207.819 28.0833 206.767 27.0417 206.01 25.6875C205.253 24.3333 204.874 22.7396 204.874 20.9063ZM236.124 29.6875L231.233 22.5V29.6875H225.049V6.5625H231.233V19.0313L236.124 12.1563H243.539L236.566 20.9688L243.665 29.6875H236.124ZM61.431 36.4401L57.9098 43.2042V46.3542H55.1127V43.2042L51.5916 36.4401H54.772L56.5326 40.2651L58.2931 36.4401H61.431ZM65.5227 42.4026C65.5227 41.587 65.6694 40.8745 65.9628 40.2651C66.2657 39.6557 66.6728 39.187 67.1839 38.8589C67.7045 38.5307 68.2819 38.3667 68.9161 38.3667C69.4651 38.3667 69.9384 38.4745 70.3359 38.6901C70.7335 38.9057 71.0411 39.1964 71.2588 39.562V38.4651H74.0417V46.3542H71.2588V45.2573C71.0411 45.6229 70.7287 45.9135 70.3217 46.1292C69.9242 46.3448 69.4556 46.4526 68.9161 46.4526C68.2819 46.4526 67.7045 46.2885 67.1839 45.9604C66.6728 45.6323 66.2657 45.1635 65.9628 44.5542C65.6694 43.9354 65.5227 43.2182 65.5227 42.4026ZM71.2588 42.4026C71.2588 41.8964 71.1168 41.4979 70.8328 41.2073C70.5583 40.9167 70.2176 40.7714 69.8106 40.7714C69.3941 40.7714 69.0486 40.9167 68.7741 41.2073C68.4996 41.4885 68.3623 41.887 68.3623 42.4026C68.3623 42.9089 68.4996 43.312 68.7741 43.612C69.0486 43.9026 69.3941 44.0479 69.8106 44.0479C70.2176 44.0479 70.5583 43.9026 70.8328 43.612C71.1168 43.3214 71.2588 42.9182 71.2588 42.4026ZM82.1015 39.8573C82.4139 39.4073 82.7925 39.051 83.2374 38.7885C83.6823 38.526 84.1603 38.3948 84.6714 38.3948V41.3339H83.8905C83.2847 41.3339 82.8351 41.451 82.5417 41.6854C82.2483 41.9198 82.1015 42.3276 82.1015 42.9089V46.3542H79.3187V38.4651H82.1015V39.8573ZM88.9062 42.4026C88.9062 41.587 89.0529 40.8745 89.3463 40.2651C89.6492 39.6557 90.061 39.187 90.5816 38.8589C91.1022 38.5307 91.6796 38.3667 92.3138 38.3667C92.8249 38.3667 93.2793 38.4745 93.6768 38.6901C94.0838 38.8964 94.4009 39.1823 94.6281 39.5479V35.9479H97.4252V46.3542H94.6281V45.2573C94.4104 45.6229 94.1028 45.9135 93.7052 46.1292C93.3077 46.3448 92.8391 46.4526 92.2996 46.4526C91.6654 46.4526 91.088 46.2885 90.5674 45.9604C90.0563 45.6323 89.6492 45.1635 89.3463 44.5542C89.0529 43.9354 88.9062 43.2182 88.9062 42.4026ZM94.6423 42.4026C94.6423 41.8964 94.5003 41.4979 94.2163 41.2073C93.9418 40.9167 93.6011 40.7714 93.1941 40.7714C92.7776 40.7714 92.4321 40.9167 92.1576 41.2073C91.8831 41.4885 91.7458 41.887 91.7458 42.4026C91.7458 42.9089 91.8831 43.312 92.1576 43.612C92.4321 43.9026 92.7776 44.0479 93.1941 44.0479C93.6011 44.0479 93.9418 43.9026 94.2163 43.612C94.5003 43.3214 94.6423 42.9182 94.6423 42.4026ZM120.797 36.4401V46.3542H118.014V40.8839L116.126 46.3542H113.797L111.895 40.8417V46.3542H109.112V36.4401H112.477L114.99 42.8807L117.446 36.4401H120.797ZM125.618 42.4026C125.618 41.587 125.765 40.8745 126.058 40.2651C126.361 39.6557 126.768 39.187 127.279 38.8589C127.8 38.5307 128.377 38.3667 129.012 38.3667C129.561 38.3667 130.034 38.4745 130.431 38.6901C130.829 38.9057 131.137 39.1964 131.354 39.562V38.4651H134.137V46.3542H131.354V45.2573C131.137 45.6229 130.824 45.9135 130.417 46.1292C130.02 46.3448 129.551 46.4526 129.012 46.4526C128.377 46.4526 127.8 46.2885 127.279 45.9604C126.768 45.6323 126.361 45.1635 126.058 44.5542C125.765 43.9354 125.618 43.2182 125.618 42.4026ZM131.354 42.4026C131.354 41.8964 131.212 41.4979 130.928 41.2073C130.654 40.9167 130.313 40.7714 129.906 40.7714C129.49 40.7714 129.144 40.9167 128.87 41.2073C128.595 41.4885 128.458 41.887 128.458 42.4026C128.458 42.9089 128.595 43.312 128.87 43.612C129.144 43.9026 129.49 44.0479 129.906 44.0479C130.313 44.0479 130.654 43.9026 130.928 43.612C131.212 43.3214 131.354 42.9182 131.354 42.4026ZM140.82 37.7339C140.328 37.7339 139.931 37.6026 139.628 37.3401C139.334 37.0682 139.188 36.7307 139.188 36.3276C139.188 35.9151 139.334 35.5729 139.628 35.301C139.931 35.0292 140.328 34.8932 140.82 34.8932C141.303 34.8932 141.691 35.0292 141.985 35.301C142.287 35.5729 142.439 35.9151 142.439 36.3276C142.439 36.7307 142.287 37.0682 141.985 37.3401C141.691 37.6026 141.303 37.7339 140.82 37.7339ZM142.198 38.4651V46.3542H139.415V38.4651H142.198ZM152.685 38.3948C153.603 38.3948 154.332 38.6995 154.871 39.3089C155.411 39.9089 155.681 40.7245 155.681 41.7557V46.3542H152.898V42.1214C152.898 41.6714 152.78 41.3198 152.543 41.0667C152.306 40.8042 151.989 40.6729 151.592 40.6729C151.175 40.6729 150.849 40.8042 150.612 41.0667C150.375 41.3198 150.257 41.6714 150.257 42.1214V46.3542H147.474V38.4651H150.257V39.5901C150.503 39.2339 150.834 38.9479 151.251 38.7323C151.667 38.5073 152.145 38.3948 152.685 38.3948ZM165.598 44.0057V46.3542H164.392C162.357 46.3542 161.339 45.3557 161.339 43.3589V40.7573H160.359V38.4651H161.339V36.5526H164.136V38.4651H165.584V40.7573H164.136V43.401C164.136 43.6167 164.183 43.7714 164.278 43.8651C164.382 43.9589 164.552 44.0057 164.789 44.0057H165.598ZM178.177 42.3182C178.177 42.5339 178.163 42.7495 178.134 42.9651H172.867C172.895 43.3964 173.014 43.7198 173.222 43.9354C173.44 44.1417 173.714 44.2448 174.045 44.2448C174.509 44.2448 174.84 44.0385 175.039 43.626H178.007C177.884 44.1698 177.642 44.6573 177.283 45.0885C176.932 45.5104 176.487 45.8432 175.948 46.087C175.408 46.3307 174.812 46.4526 174.159 46.4526C173.373 46.4526 172.673 46.2885 172.058 45.9604C171.452 45.6323 170.974 45.1635 170.624 44.5542C170.283 43.9448 170.112 43.2276 170.112 42.4026C170.112 41.5776 170.283 40.8651 170.624 40.2651C170.964 39.6557 171.438 39.187 172.043 38.8589C172.659 38.5307 173.364 38.3667 174.159 38.3667C174.945 38.3667 175.64 38.526 176.246 38.8448C176.852 39.1635 177.325 39.6229 177.666 40.2229C178.007 40.8135 178.177 41.512 178.177 42.3182ZM175.337 41.6292C175.337 41.2917 175.224 41.0292 174.997 40.8417C174.769 40.6448 174.486 40.5464 174.145 40.5464C173.804 40.5464 173.525 40.6401 173.307 40.8276C173.089 41.0057 172.947 41.2729 172.881 41.6292H175.337ZM188.218 38.3948C189.136 38.3948 189.865 38.6995 190.404 39.3089C190.944 39.9089 191.214 40.7245 191.214 41.7557V46.3542H188.431V42.1214C188.431 41.6714 188.313 41.3198 188.076 41.0667C187.839 40.8042 187.522 40.6729 187.125 40.6729C186.708 40.6729 186.382 40.8042 186.145 41.0667C185.908 41.3198 185.79 41.6714 185.79 42.1214V46.3542H183.007V38.4651H185.79V39.5901C186.036 39.2339 186.367 38.9479 186.784 38.7323C187.2 38.5073 187.678 38.3948 188.218 38.3948ZM195.978 42.4026C195.978 41.587 196.125 40.8745 196.418 40.2651C196.721 39.6557 197.128 39.187 197.639 38.8589C198.16 38.5307 198.737 38.3667 199.371 38.3667C199.92 38.3667 200.394 38.4745 200.791 38.6901C201.189 38.9057 201.496 39.1964 201.714 39.562V38.4651H204.497V46.3542H201.714V45.2573C201.496 45.6229 201.184 45.9135 200.777 46.1292C200.379 46.3448 199.911 46.4526 199.371 46.4526C198.737 46.4526 198.16 46.2885 197.639 45.9604C197.128 45.6323 196.721 45.1635 196.418 44.5542C196.125 43.9354 195.978 43.2182 195.978 42.4026ZM201.714 42.4026C201.714 41.8964 201.572 41.4979 201.288 41.2073C201.014 40.9167 200.673 40.7714 200.266 40.7714C199.849 40.7714 199.504 40.9167 199.229 41.2073C198.955 41.4885 198.818 41.887 198.818 42.4026C198.818 42.9089 198.955 43.312 199.229 43.612C199.504 43.9026 199.849 44.0479 200.266 44.0479C200.673 44.0479 201.014 43.9026 201.288 43.612C201.572 43.3214 201.714 42.9182 201.714 42.4026ZM214.985 38.3948C215.903 38.3948 216.632 38.6995 217.172 39.3089C217.711 39.9089 217.981 40.7245 217.981 41.7557V46.3542H215.198V42.1214C215.198 41.6714 215.08 41.3198 214.843 41.0667C214.607 40.8042 214.29 40.6729 213.892 40.6729C213.476 40.6729 213.149 40.8042 212.912 41.0667C212.676 41.3198 212.557 41.6714 212.557 42.1214V46.3542H209.775V38.4651H212.557V39.5901C212.803 39.2339 213.135 38.9479 213.551 38.7323C213.968 38.5073 214.446 38.3948 214.985 38.3948ZM222.745 42.4026C222.745 41.587 222.915 40.8745 223.256 40.2651C223.597 39.6557 224.07 39.187 224.676 38.8589C225.291 38.5307 225.992 38.3667 226.777 38.3667C227.79 38.3667 228.642 38.6432 229.333 39.1964C230.024 39.7401 230.469 40.5042 230.668 41.4885H227.714C227.544 40.9729 227.213 40.7151 226.72 40.7151C226.37 40.7151 226.091 40.8604 225.883 41.151C225.684 41.4323 225.585 41.8495 225.585 42.4026C225.585 42.9557 225.684 43.3776 225.883 43.6682C226.091 43.9589 226.37 44.1042 226.72 44.1042C227.222 44.1042 227.553 43.8464 227.714 43.3307H230.668C230.469 44.3057 230.024 45.0698 229.333 45.6229C228.642 46.176 227.79 46.4526 226.777 46.4526C225.992 46.4526 225.291 46.2885 224.676 45.9604C224.07 45.6323 223.597 45.1635 223.256 44.5542C222.915 43.9448 222.745 43.2276 222.745 42.4026ZM243.126 42.3182C243.126 42.5339 243.112 42.7495 243.083 42.9651H237.816C237.844 43.3964 237.962 43.7198 238.171 43.9354C238.388 44.1417 238.663 44.2448 238.994 44.2448C239.458 44.2448 239.789 44.0385 239.988 43.626H242.955C242.832 44.1698 242.591 44.6573 242.231 45.0885C241.881 45.5104 241.436 45.8432 240.897 46.087C240.357 46.3307 239.761 46.4526 239.108 46.4526C238.322 46.4526 237.622 46.2885 237.006 45.9604C236.401 45.6323 235.923 45.1635 235.572 44.5542C235.232 43.9448 235.061 43.2276 235.061 42.4026C235.061 41.5776 235.232 40.8651 235.572 40.2651C235.913 39.6557 236.386 39.187 236.992 38.8589C237.607 38.5307 238.313 38.3667 239.108 38.3667C239.893 38.3667 240.589 38.526 241.195 38.8448C241.801 39.1635 242.274 39.6229 242.615 40.2229C242.955 40.8135 243.126 41.512 243.126 42.3182ZM240.286 41.6292C240.286 41.2917 240.173 41.0292 239.945 40.8417C239.718 40.6448 239.434 40.5464 239.093 40.5464C238.753 40.5464 238.473 40.6401 238.256 40.8276C238.038 41.0057 237.896 41.2729 237.83 41.6292H240.286Z" fill="#7C4032"/>
<path d="M7.37427 24.9375C7.30249 25.0599 7.27609 25.2037 7.29965 25.3437C7.32321 25.4837 7.3952 25.6109 7.503 25.7028C11.5279 29.1238 12.4894 34.5669 12.6411 35.6231C12.6617 35.7663 12.7329 35.8974 12.8417 35.9924C12.9506 36.0873 13.0899 36.1397 13.2341 36.1401C13.2625 36.1398 13.2907 36.1375 13.3188 36.1333C13.476 36.1106 13.6178 36.0262 13.7131 35.8986C13.8084 35.7711 13.8494 35.6109 13.8271 35.453C13.6408 34.1553 12.8901 30.2752 10.3131 26.9307C11.8922 27.7071 13.4629 28.7318 14.914 30.316C16.4661 32.1171 17.4106 34.7974 17.42 34.8229C17.4451 34.8985 17.485 34.9683 17.5373 35.0283C17.5896 35.0884 17.6532 35.1373 17.7244 35.1725C17.7958 35.2076 17.8733 35.2282 17.9525 35.233C18.0318 35.2378 18.1112 35.2268 18.1862 35.2006C18.2612 35.1744 18.3303 35.1334 18.3894 35.0802C18.4485 35.027 18.4965 34.9625 18.5305 34.8905C18.5647 34.8185 18.5841 34.7404 18.5879 34.6608C18.5917 34.5811 18.5797 34.5015 18.5526 34.4266C18.5128 34.311 17.5742 31.6434 15.9467 29.6765C15.823 27.9308 15.3885 24.4443 13.8729 21.2181C15.2612 22.508 16.4692 23.9805 17.464 25.5957L17.475 25.6152C18.474 27.2459 19.2727 28.9919 19.8539 30.8151V30.8211V30.8296C20.108 31.623 20.4147 32.9249 20.6163 33.879C20.645 34.0139 20.719 34.1349 20.8258 34.2218C20.9326 34.3086 21.0659 34.356 21.2034 34.356C21.2455 34.356 21.2875 34.3517 21.3288 34.3433C21.4845 34.3098 21.6206 34.2158 21.7073 34.0817C21.794 33.9476 21.8242 33.7845 21.7913 33.6282C21.5982 32.72 21.3127 31.5022 21.0585 30.6587C21.699 28.861 22.5541 27.1478 23.6051 25.5565L23.6517 25.4877C24.6603 23.9676 25.866 22.5889 27.2369 21.3881C25.568 24.7045 25.0622 28.3304 24.9131 29.9971V30.0056C24.9131 30.0099 24.9131 30.015 24.9131 30.0192C24.7683 32.7863 25.3283 34.7149 25.352 34.7957C25.4021 34.9426 25.5068 35.0645 25.6443 35.1359C25.7818 35.2072 25.9414 35.2225 26.0898 35.1787C26.2383 35.1348 26.3641 35.0351 26.4411 34.9004C26.5182 34.7657 26.5404 34.6063 26.5033 34.4556C26.4982 34.4385 26.0102 32.7378 26.1017 30.3118C27.3841 29.0026 28.8603 27.9003 30.4782 27.0438C29.5226 28.3389 28.8033 29.8798 28.3552 31.612C27.7935 33.7897 27.8596 35.493 27.863 35.5644C27.8697 35.7193 27.9358 35.8657 28.0474 35.9729C28.1589 36.0801 28.3074 36.14 28.4619 36.1401H28.489C28.6481 36.1331 28.7978 36.0628 28.9054 35.945C29.0129 35.8272 29.0695 35.6713 29.0626 35.5117C29.0626 35.4487 28.8414 29.157 33.4729 25.7326C33.5888 25.647 33.6702 25.5224 33.7023 25.3817C33.7344 25.2409 33.7151 25.0932 33.6479 24.9655C33.5807 24.8377 33.4701 24.7385 33.3361 24.6858C33.2021 24.6331 33.0538 24.6303 32.918 24.6782C30.346 25.5838 28.2137 26.804 26.3211 28.4605C26.7049 25.9945 27.6436 22.2163 29.9241 19.4281C30.0142 19.3187 30.0629 19.1811 30.0616 19.0393C30.0605 18.8975 30.0095 18.7607 29.9176 18.653C29.8258 18.5452 29.699 18.4735 29.5596 18.4504C29.4203 18.4273 29.2772 18.4543 29.1557 18.5267C27.6173 19.4297 25.4418 21.0582 23.3815 23.8006C22.3928 20.349 22.2691 18.303 23.1824 14.6754C23.2145 14.547 23.2036 14.4114 23.1514 14.2898C23.0992 14.1682 23.0085 14.0673 22.8934 14.0025C22.7784 13.9378 22.6452 13.9129 22.5146 13.9317C22.384 13.9505 22.2632 14.0119 22.1709 14.1065C19.0202 17.3378 17.8588 20.7775 17.5114 23.5081C15.5782 20.8456 13.5179 19.2206 12.0354 18.292C11.9157 18.2174 11.7738 18.1873 11.6344 18.2071C11.4949 18.2269 11.3668 18.2952 11.2725 18.4001C11.1781 18.505 11.1235 18.6399 11.1181 18.7812C11.1128 18.9225 11.1571 19.0611 11.2433 19.173C13.4578 22.0335 14.293 25.8533 14.6073 28.3296C12.4971 26.4639 10.2487 25.5021 8.10196 24.6807C7.96997 24.6306 7.82457 24.6288 7.69142 24.6759C7.55832 24.7228 7.446 24.8155 7.37427 24.9375ZM22.5046 25.0583C21.7085 26.2817 21.0233 27.5743 20.457 28.9206C19.9451 27.6073 19.3215 26.3408 18.5933 25.1348C18.65 22.8831 19.2532 19.7775 21.5439 16.6916C21.1111 19.5556 21.4796 21.701 22.5046 25.0583Z" fill="#7C4032"/>
<path d="M39.1489 34.0167C38.3271 33.3917 36.8522 34.0405 34.9978 35.8441C34.983 35.858 34.9692 35.8728 34.9562 35.8883C33.572 37.5372 28.4949 40.8102 25.0893 41.5781L25.0698 41.5823C23.2374 42.0594 22.5359 42.0211 22.2987 41.9718C22.3834 41.777 22.6418 41.4182 23.0781 41.0168C24.1735 40.0083 25.3579 38.726 24.7843 37.7523C24.3006 36.9325 22.8765 36.5057 15.795 38.9164C12.475 40.0466 9.01092 39.2438 5.49942 36.5295C3.82943 35.2207 2.34907 33.685 1.10093 31.9665C1.02959 31.8584 0.925449 31.7763 0.803954 31.7324C0.682453 31.6884 0.550078 31.6849 0.426451 31.7224C0.302826 31.7599 0.19454 31.8364 0.117653 31.9406C0.0407676 32.0448 -0.000623161 32.171 -0.00037929 32.3007C-0.00449266 32.3858 0.0126909 32.4706 0.0496035 32.5473C1.4605 36.4019 3.92377 39.78 7.15762 42.2952C10.3915 44.8105 14.2654 46.3613 18.3362 46.7703C22.4069 47.1793 26.5102 46.4299 30.1766 44.6079C33.8429 42.7859 36.9244 39.9648 39.0684 36.4674C39.0695 36.4647 39.0709 36.4621 39.0726 36.4598L39.2234 36.2047L39.2361 36.1825C39.7385 35.2506 39.7054 34.4402 39.1489 34.0167ZM38.1856 35.6L38.0433 35.8382C34.2607 41.9947 27.7079 45.6691 20.5069 45.6691C13.3908 45.6691 6.84978 41.948 3.12312 36.0788C3.81009 36.7292 4.53881 37.3337 5.30459 37.8884C6.92183 39.0517 8.56872 39.8535 10.2012 40.2694C12.1716 40.7911 14.2516 40.7175 16.1805 40.0576C22.092 38.0457 23.4483 38.26 23.7203 38.3697C23.6779 38.5304 23.4526 39.0363 22.2657 40.1291C21.5337 40.8017 20.7526 41.772 21.1856 42.5721C21.6185 43.3723 22.8214 43.4114 25.3612 42.7516C29.0286 41.9216 34.3073 38.5049 35.8526 36.6894C37.2987 35.2897 38.1238 34.9886 38.3889 34.9886C38.3873 35.0864 38.3491 35.2931 38.1856 35.6Z" fill="#7C4032"/>
<path d="M40.9674 17.4552C39.5573 13.6 37.0945 10.2211 33.8607 7.70508C30.627 5.18913 26.7529 3.63775 22.6818 3.22848C18.6108 2.8192 14.5072 3.56855 10.8406 5.39081C7.17393 7.21304 4.0924 10.0346 1.9486 13.5325L1.94437 13.5393L1.79357 13.7944L1.78086 13.8174C1.2785 14.7527 1.31069 15.5606 1.86558 15.984C2.68733 16.6091 4.16225 15.9611 6.01671 14.1575C6.0316 14.1435 6.04548 14.1285 6.0582 14.1124C7.44669 12.4619 12.5238 9.18888 15.9268 8.42185L15.9463 8.41674C17.7787 7.94054 18.4802 7.97883 18.7174 8.0281C18.6327 8.22284 18.3743 8.58169 17.9388 8.98221C16.8426 9.99075 15.6583 11.2731 16.2327 12.2476C16.7164 13.0673 18.1396 13.4942 25.2211 11.0835C28.5411 9.95331 32.0052 10.7561 35.5176 13.4696C37.1877 14.7783 38.6678 16.3143 39.9152 18.0334C39.9702 18.1156 40.0445 18.183 40.1314 18.2297C40.2185 18.2764 40.3155 18.301 40.4142 18.3013C40.4494 18.3011 40.4846 18.298 40.5192 18.292C40.6585 18.2673 40.7846 18.194 40.8753 18.0851C40.9659 17.9762 41.0154 17.8386 41.0148 17.6967C41.0191 17.6135 41.0028 17.5305 40.9674 17.4552ZM35.7107 12.1107C34.0943 10.9483 32.4466 10.1464 30.8149 9.72883C28.8452 9.20789 26.7661 9.28211 24.8382 9.94226C18.9267 11.9542 17.5712 11.7399 17.2984 11.6302C17.3408 11.4695 17.5661 10.9636 18.753 9.87086C19.4849 9.19737 20.2652 8.22711 19.8323 7.42778C19.3994 6.62841 18.1964 6.58763 15.6566 7.24836C11.9901 8.07831 6.71054 11.4942 5.16784 13.3097C3.72172 14.7094 2.89658 15.0104 2.63142 15.0104C2.63142 14.9101 2.67039 14.7043 2.83474 14.3964L2.97622 14.1592C6.75965 8.00263 13.3116 4.32737 20.5126 4.32737C27.6287 4.32737 34.1689 8.04851 37.8956 13.9186C37.2078 13.2682 36.4779 12.6643 35.7107 12.1107Z" fill="#7C4032"/>
</g>
<defs>
<clipPath id="clip0_71_63">
<rect width="244" height="50" fill="white"/>
</clipPath>
</defs>
</svg>
