<svg width="244" height="48" viewBox="0 0 244 48" fill="none" xmlns="http://www.w3.org/2000/svg">
<path d="M37.9925 11.5498C37.966 11.5371 37.9386 11.5263 37.9105 11.5176C36.614 11.0105 35.235 10.751 33.8442 10.7523H32.6882C32.6118 10.7522 32.5362 10.7672 32.4657 10.7966C32.3951 10.826 32.3309 10.8691 32.277 10.9235C32.223 10.9779 32.1801 11.0424 32.151 11.1135C32.1218 11.1846 32.1068 11.2607 32.1069 11.3376V26.9336C32.1126 27.0849 32.1763 27.2282 32.2846 27.3332C32.3929 27.4383 32.5374 27.497 32.6878 27.497C32.8382 27.497 32.9827 27.4383 33.091 27.3332C33.1993 27.2282 33.263 27.0849 33.2686 26.9336V11.9222H33.8425C34.9727 11.9216 36.0948 12.1125 37.162 12.4869V23.5131C37.1625 23.9982 37.354 24.4634 37.6946 24.8066C38.0352 25.1497 38.497 25.3428 38.9788 25.3434H43.9428V27.8203H39.706C39.6278 27.8174 39.55 27.8303 39.4769 27.8584C39.4039 27.8864 39.3372 27.929 39.2809 27.9836C39.2246 28.0383 39.1798 28.1037 39.1492 28.1762C39.1186 28.2486 39.1029 28.3265 39.1029 28.4052C39.1029 28.484 39.1186 28.5619 39.1492 28.6343C39.1798 28.7068 39.2246 28.7723 39.2809 28.8269C39.3372 28.8815 39.4039 28.9241 39.4769 28.9522C39.55 28.9802 39.6278 28.9931 39.706 28.9902H43.9428V31.4019H37.9179C37.8398 31.3989 37.7619 31.4118 37.6889 31.4399C37.6158 31.468 37.5492 31.5106 37.4929 31.5652C37.4366 31.6198 37.3918 31.6853 37.3612 31.7577C37.3306 31.8302 37.3148 31.908 37.3148 31.9868C37.3148 32.0655 37.3306 32.1434 37.3612 32.2158C37.3918 32.2883 37.4366 32.3538 37.4929 32.4084C37.5492 32.463 37.6158 32.5056 37.6889 32.5337C37.7619 32.5618 37.8398 32.5747 37.9179 32.5718H44.5241C44.678 32.5718 44.8257 32.5102 44.9345 32.4005C45.0434 32.2909 45.1045 32.1422 45.1045 31.9872V22.0938C45.1021 19.8216 44.4231 17.6023 43.1553 15.7227C41.8875 13.8431 40.0891 12.3895 37.9925 11.5498ZM38.9763 24.1727C38.8024 24.1727 38.6355 24.1031 38.5126 23.9793C38.3895 23.8554 38.3205 23.6874 38.3205 23.5122V12.9806C40.0071 13.822 41.427 15.1209 42.4203 16.7309C43.4136 18.341 43.9409 20.1983 43.9428 22.0938V24.1727H38.9763Z" fill="#7C4032"/>
<path d="M5.92165 27.8913C4.75046 27.8913 3.60556 28.241 2.63175 28.8963C1.65795 29.5516 0.898958 30.4829 0.450761 31.5726C0.00256559 32.6623 -0.114702 33.8614 0.113785 35.0182C0.342273 36.175 0.906256 37.2376 1.73441 38.0716C2.56257 38.9056 3.6177 39.4735 4.76639 39.7036C5.91507 39.9337 7.10573 39.8156 8.18775 39.3642C9.26983 38.9129 10.1946 38.1485 10.8453 37.1678C11.496 36.1872 11.8433 35.0342 11.8433 33.8548C11.8416 32.2736 11.2171 30.7579 10.107 29.6399C8.99681 28.5219 7.49162 27.893 5.92165 27.8913ZM5.92165 38.6483C4.98022 38.6483 4.05993 38.3671 3.27716 37.8404C2.4944 37.3137 1.8843 36.5651 1.52403 35.6892C1.16377 34.8132 1.0695 33.8494 1.25317 32.9196C1.43683 31.9897 1.89017 31.1356 2.55586 30.4652C3.22155 29.7948 4.06969 29.3382 4.99303 29.1533C5.91638 28.9684 6.87341 29.0633 7.74322 29.4261C8.61298 29.7889 9.35634 30.4033 9.87939 31.1916C10.4024 31.9799 10.6816 32.9066 10.6816 33.8548C10.6803 35.1257 10.1784 36.3442 9.28602 37.2428C8.3936 38.1415 7.18365 38.647 5.92165 38.6483Z" fill="#7C4032"/>
<path d="M5.92177 32.2736C5.61125 32.2736 5.30773 32.3663 5.04955 32.5401C4.79137 32.7138 4.59014 32.9607 4.47132 33.2497C4.35248 33.5385 4.3214 33.8565 4.38198 34.1631C4.44255 34.4698 4.59208 34.7516 4.81165 34.9727C5.03121 35.1938 5.31095 35.3444 5.61549 35.4054C5.92003 35.4664 6.23571 35.4351 6.52259 35.3154C6.80946 35.1957 7.05466 34.9931 7.2272 34.7331C7.39968 34.4731 7.49174 34.1674 7.49174 33.8547C7.4913 33.4355 7.32577 33.0336 7.03145 32.7372C6.73713 32.4408 6.33804 32.2741 5.92177 32.2736ZM5.92177 34.2658C5.84069 34.2658 5.76146 34.2416 5.69407 34.1963C5.62663 34.1509 5.57408 34.0864 5.54305 34.011C5.51202 33.9356 5.50393 33.8526 5.51974 33.7725C5.53555 33.6925 5.57463 33.6189 5.63196 33.5612C5.68924 33.5034 5.76227 33.4641 5.84183 33.4482C5.92133 33.4322 6.00377 33.4404 6.07866 33.4717C6.15354 33.5029 6.21756 33.5558 6.26261 33.6237C6.30766 33.6916 6.33168 33.7714 6.33168 33.853C6.33168 33.9625 6.28853 34.0675 6.21163 34.145C6.13474 34.2224 6.03051 34.2658 5.92177 34.2658Z" fill="#7C4032"/>
<path d="M31.1538 27.8913C29.9826 27.8913 28.8378 28.241 27.8639 28.8963C26.8901 29.5516 26.1311 30.4829 25.6829 31.5726C25.2348 32.6623 25.1175 33.8614 25.3459 35.0182C25.5745 36.175 26.1384 37.2376 26.9666 38.0716C27.7947 38.9056 28.8499 39.4735 29.9986 39.7036C31.1473 39.9337 32.3379 39.8156 33.42 39.3642C34.502 38.9129 35.4268 38.1485 36.0775 37.1678C36.7282 36.1872 37.0754 35.0342 37.0754 33.8548C37.0737 32.2736 36.4493 30.7579 35.3391 29.6399C34.229 28.5219 32.7238 27.893 31.1538 27.8913ZM31.1538 38.6483C30.2122 38.6492 29.2914 38.3689 28.508 37.8428C27.7246 37.3167 27.1137 36.5684 26.7527 35.6926C26.3917 34.8168 26.2967 33.8528 26.4798 32.9226C26.6629 31.9924 27.1159 31.1378 27.7814 30.4669C28.4469 29.7961 29.295 29.339 30.2184 29.1536C31.1419 28.9683 32.0993 29.0629 32.9693 29.4256C33.8394 29.7883 34.5831 30.4027 35.1063 31.1911C35.6295 31.9795 35.9089 32.9064 35.9089 33.8548C35.9076 35.1248 35.4063 36.3426 34.515 37.2411C33.6237 38.1396 32.415 38.6456 31.1538 38.6483Z" fill="#7C4032"/>
<path d="M31.154 32.2736C30.8435 32.2736 30.5399 32.3663 30.2817 32.5401C30.0235 32.7138 29.8223 32.9607 29.7035 33.2497C29.5847 33.5385 29.5536 33.8565 29.6142 34.1631C29.6747 34.4698 29.8243 34.7516 30.0438 34.9727C30.2634 35.1938 30.5431 35.3444 30.8476 35.4054C31.1522 35.4664 31.4679 35.4351 31.7547 35.3154C32.0416 35.1957 32.2868 34.9931 32.4593 34.7331C32.6318 34.4731 32.7239 34.1674 32.7239 33.8547C32.7235 33.4355 32.5579 33.0336 32.2636 32.7372C31.9693 32.4408 31.5702 32.2741 31.154 32.2736ZM31.154 34.2658C31.0729 34.2658 30.9936 34.2416 30.9262 34.1963C30.8588 34.1509 30.8063 34.0864 30.7753 34.011C30.7442 33.9356 30.7361 33.8526 30.7519 33.7725C30.7678 33.6925 30.8068 33.6189 30.8641 33.5612C30.9214 33.5034 30.9945 33.4641 31.074 33.4482C31.1535 33.4322 31.2359 33.4404 31.3108 33.4717C31.3857 33.5029 31.4498 33.5558 31.4948 33.6237C31.5398 33.6916 31.5639 33.7714 31.5639 33.853C31.5639 33.9625 31.5207 34.0675 31.4438 34.145C31.3669 34.2224 31.2627 34.2658 31.154 34.2658Z" fill="#7C4032"/>
<path d="M24.3163 31.4051H12.6903C12.6121 31.4022 12.5342 31.4151 12.4612 31.4432C12.3882 31.4712 12.3215 31.5138 12.2652 31.5685C12.2089 31.6231 12.1641 31.6886 12.1335 31.761C12.1029 31.8335 12.0872 31.9114 12.0872 31.9901C12.0872 32.0688 12.1029 32.1467 12.1335 32.2192C12.1641 32.2916 12.2089 32.3571 12.2652 32.4117C12.3215 32.4663 12.3882 32.5089 12.4612 32.537C12.5342 32.5651 12.6121 32.578 12.6903 32.575H24.3163C24.3944 32.578 24.4723 32.5651 24.5453 32.537C24.6184 32.5089 24.685 32.4663 24.7413 32.4117C24.7976 32.3571 24.8424 32.2916 24.873 32.2192C24.9036 32.1467 24.9194 32.0688 24.9194 31.9901C24.9194 31.9114 24.9036 31.8335 24.873 31.761C24.8424 31.6886 24.7976 31.6231 24.7413 31.5685C24.685 31.5138 24.6184 31.4712 24.5453 31.4432C24.4723 31.4151 24.3944 31.4022 24.3163 31.4051Z" fill="#7C4032"/>
<path d="M4.80174 14.2652H4.99194L6.80457 27.0524C6.81006 27.1327 6.83196 27.211 6.86886 27.2824C6.9057 27.3538 6.95684 27.4168 7.01895 27.4674C7.08107 27.518 7.15291 27.5551 7.22997 27.5765C7.30697 27.5979 7.38756 27.6031 7.46669 27.5917C7.54575 27.5803 7.62173 27.5526 7.68971 27.5104C7.75769 27.4681 7.81633 27.4122 7.86192 27.3461C7.90752 27.28 7.93903 27.2051 7.95463 27.1262C7.97017 27.0473 7.96941 26.9659 7.95235 26.8873L6.16593 14.2652H28.9499L27.0085 27.8277C26.9915 27.9064 26.9907 27.9876 27.0062 28.0666C27.0218 28.1455 27.0534 28.2204 27.099 28.2865C27.1446 28.3526 27.2031 28.4085 27.2712 28.4508C27.3392 28.493 27.4151 28.5207 27.4942 28.5321C27.5733 28.5434 27.6539 28.5383 27.7309 28.5169C27.808 28.4955 27.8798 28.4584 27.9419 28.4077C28.004 28.3571 28.0552 28.2942 28.092 28.2228C28.1289 28.1514 28.1508 28.0731 28.1563 27.9929L30.1239 14.2636H30.3149C30.4689 14.2634 30.6166 14.2016 30.7254 14.0919C30.8342 13.9821 30.8954 13.8334 30.8954 13.6782V12.8634C30.8947 12.1718 30.6216 11.5087 30.1361 11.0196C29.6506 10.5305 28.9922 10.2553 28.3055 10.2544H20.845C20.6696 9.50883 20.2496 8.84468 19.6528 8.36948C19.056 7.89423 18.3175 7.63568 17.5567 7.63568C16.7959 7.63568 16.0573 7.89423 15.4605 8.36948C14.8637 8.84468 14.4437 9.50883 14.2683 10.2544H6.80788C6.1211 10.2553 5.46279 10.5305 4.97724 11.0196C4.49171 11.5087 4.21867 12.1718 4.21802 12.8634V13.6799C4.21791 13.7567 4.23284 13.8328 4.26197 13.9038C4.29109 13.9748 4.33382 14.0394 4.38774 14.0938C4.44164 14.1481 4.50567 14.1913 4.57614 14.2207C4.64662 14.2501 4.72216 14.2652 4.79846 14.2652H4.80174ZM17.5583 8.80628C18.0094 8.80743 18.4495 8.94652 18.8202 9.20512C19.1911 9.46372 19.4752 9.82961 19.6349 10.2544H15.4817C15.6414 9.82961 15.9256 9.46372 16.2964 9.20512C16.6672 8.94652 17.1072 8.80743 17.5583 8.80628ZM5.383 12.8634C5.38343 12.482 5.53403 12.1165 5.80178 11.8469C6.06953 11.5772 6.43248 11.4256 6.81115 11.4251H28.3055C28.6842 11.4258 29.0472 11.5776 29.3149 11.8474C29.5826 12.1171 29.7332 12.4828 29.7336 12.8642V13.0954H5.38464L5.383 12.8634Z" fill="#7C4032"/>
<path d="M16.6205 26.6669C16.7747 26.6669 16.9226 26.6052 17.0315 26.4954C17.1405 26.3857 17.2018 26.2367 17.2018 26.0815C17.2018 25.9263 17.1405 25.7774 17.0315 25.6676C16.9226 25.5578 16.7747 25.4961 16.6205 25.4961H13.3855L14.2873 23.9159L14.4677 24.5723C14.5015 24.6957 14.5746 24.8044 14.6757 24.882C14.7769 24.9595 14.9005 25.0015 15.0276 25.0016C15.0802 25.0017 15.1327 24.9945 15.1834 24.9801C15.2568 24.9596 15.3256 24.9247 15.3857 24.8774C15.4458 24.8301 15.4961 24.7714 15.5336 24.7045C15.5712 24.6376 15.5952 24.564 15.6045 24.4877C15.6137 24.4115 15.608 24.3342 15.5875 24.2602L15.0448 22.2861C15.0282 22.2061 14.995 22.1304 14.9472 22.0642C14.8994 21.998 14.8382 21.9428 14.7677 21.9022C14.687 21.8559 14.5965 21.8296 14.5037 21.8254H14.4717C14.4211 21.8255 14.3707 21.8322 14.3217 21.8452L12.3287 22.4009C12.1934 22.4389 12.0764 22.5248 11.9991 22.643C11.9219 22.7611 11.8898 22.9034 11.9087 23.0435C11.9276 23.1837 11.9962 23.3122 12.1019 23.4053C12.2076 23.4985 12.3432 23.5499 12.4837 23.5502C12.536 23.5503 12.5882 23.5431 12.6386 23.5287L13.2682 23.3536L11.8745 25.7893C11.8237 25.8783 11.7971 25.9793 11.7974 26.082C11.7976 26.1847 11.8246 26.2855 11.8758 26.3744C11.927 26.4632 12.0005 26.537 12.0889 26.5881C12.1773 26.6393 12.2775 26.6662 12.3795 26.666L16.6205 26.6669Z" fill="#7C4032"/>
<path d="M22.9005 26.6685C23.0024 26.6684 23.1024 26.6413 23.1906 26.59C23.2788 26.5387 23.3521 26.465 23.4031 26.3762C23.454 26.2874 23.4809 26.1866 23.4811 26.0841C23.4813 25.9815 23.4546 25.8807 23.4039 25.7917L21.2895 22.0905C21.2516 22.0239 21.2009 21.9655 21.1405 21.9187C21.0801 21.8718 21.0111 21.8374 20.9375 21.8174C20.8639 21.7974 20.7871 21.7922 20.7114 21.802C20.6359 21.8119 20.5629 21.8367 20.4968 21.875C20.4307 21.9133 20.3727 21.9643 20.3262 22.0251C20.2796 22.086 20.2455 22.1554 20.2256 22.2296C20.2057 22.3037 20.2006 22.381 20.2104 22.4572C20.2202 22.5333 20.2448 22.6068 20.2828 22.6734L21.8954 25.4978H20.0861L20.5616 25.0123C20.6154 24.9577 20.658 24.8928 20.6869 24.8215C20.7159 24.7502 20.7306 24.6739 20.7303 24.5969C20.7299 24.5199 20.7145 24.4437 20.6849 24.3727C20.6554 24.3017 20.6122 24.2372 20.5579 24.183C20.5036 24.1288 20.4392 24.0859 20.3684 24.0567C20.2976 24.0276 20.2218 24.0128 20.1454 24.0131C20.0689 24.0134 19.9933 24.029 19.9227 24.0588C19.8522 24.0885 19.7882 24.132 19.7344 24.1867L18.3062 25.644C18.2456 25.6986 18.1971 25.7655 18.1639 25.8404C18.1307 25.9152 18.1135 25.9963 18.1135 26.0782C18.1133 26.1705 18.1353 26.2614 18.1775 26.3432C18.1791 26.3478 18.181 26.3522 18.1832 26.3564L18.1915 26.3689C18.2171 26.4157 18.2494 26.4585 18.2874 26.496L19.7581 27.9631C19.8678 28.0726 20.0162 28.1337 20.1706 28.133C20.3251 28.1323 20.4729 28.0699 20.5816 27.9594C20.6904 27.8489 20.7511 27.6995 20.7504 27.5439C20.7497 27.3884 20.6876 27.2395 20.578 27.13L20.1131 26.6677L22.9005 26.6685Z" fill="#7C4032"/>
<path d="M17.1758 19.9043C17.1372 20.0545 17.1594 20.214 17.2374 20.3477C17.3155 20.4815 17.4432 20.5786 17.5923 20.6176L19.5599 21.1312C19.6373 21.1572 19.7193 21.1663 19.8004 21.1579C19.8816 21.1495 19.96 21.1237 20.0305 21.0825C20.1055 21.0386 20.1699 20.9786 20.219 20.9066C20.2208 20.9027 20.2229 20.8991 20.2256 20.8959C20.2411 20.8725 20.2548 20.8479 20.2666 20.8224L20.274 20.805C20.2849 20.7796 20.294 20.7534 20.301 20.7266C20.301 20.7266 20.301 20.7266 20.301 20.7216L20.8225 18.7055C20.8441 18.6303 20.8506 18.5515 20.8414 18.4738C20.8323 18.3961 20.8078 18.321 20.7694 18.253C20.7309 18.1849 20.6793 18.1254 20.6176 18.0778C20.5559 18.0302 20.4854 17.9956 20.4102 17.9759C20.3349 17.9562 20.2566 17.952 20.1797 17.9634C20.1028 17.9747 20.0289 18.0015 19.9625 18.0422C19.8961 18.0828 19.8384 18.1364 19.7929 18.1998C19.7474 18.2633 19.715 18.3353 19.6977 18.4115L19.5337 19.0489L18.1358 16.6158C18.0849 16.527 18.0117 16.4533 17.9234 16.4021C17.8352 16.351 17.7351 16.3242 17.6333 16.3244C17.5313 16.3245 17.4311 16.3515 17.3428 16.4027C17.2545 16.4541 17.181 16.5278 17.1299 16.6167L15.0082 20.3129C14.9678 20.3795 14.9411 20.4536 14.9296 20.5308C14.918 20.6079 14.9219 20.6866 14.9411 20.7622C14.9602 20.8378 14.9941 20.9088 15.0409 20.9711C15.0876 21.0333 15.1462 21.0855 15.2132 21.1245C15.2803 21.1636 15.3545 21.1888 15.4313 21.1986C15.5081 21.2084 15.5862 21.2026 15.6608 21.1816C15.7354 21.1606 15.8051 21.1248 15.8658 21.0763C15.9265 21.0278 15.9769 20.9676 16.0141 20.8991L17.6333 18.078L18.5401 19.6558L17.8842 19.4849C17.735 19.4459 17.5766 19.4683 17.4438 19.5469C17.311 19.6255 17.2146 19.7541 17.1758 19.9043Z" fill="#7C4032"/>
<path d="M70.7108 31.0909L65.07 21.5346H60.8639V31.0909H58.5815V8.21456H65.4287C67.9719 8.21456 69.8957 8.82547 71.1999 10.0473C72.5259 11.2691 73.1888 12.8727 73.1888 14.8582C73.1888 16.5164 72.7106 17.9346 71.7542 19.1127C70.8195 20.2691 69.4283 21.0218 67.5806 21.3709L73.4497 31.0909H70.7108ZM60.8639 19.6691H65.4613C67.2437 19.6691 68.5806 19.2327 69.4718 18.36C70.3847 17.4873 70.8412 16.32 70.8412 14.8582C70.8412 13.3527 70.4065 12.1964 69.537 11.3891C68.6675 10.56 67.2981 10.1455 65.4287 10.1455H60.8639V19.6691ZM85.5111 31.3527C83.8373 31.3527 82.3266 30.9818 80.9789 30.24C79.6529 29.4764 78.5987 28.4073 77.8162 27.0327C77.0554 25.6364 76.6749 24.0109 76.6749 22.1564C76.6749 20.3018 77.0662 18.6873 77.8488 17.3127C78.6313 15.9164 79.6964 14.8473 81.0441 14.1055C82.3918 13.3418 83.9026 12.96 85.5763 12.96C87.2501 12.96 88.7608 13.3418 90.1085 14.1055C91.478 14.8473 92.5431 15.9164 93.3039 17.3127C94.0864 18.6873 94.4777 20.3018 94.4777 22.1564C94.4777 23.9891 94.0864 25.6037 93.3039 27C92.5214 28.3964 91.4454 29.4764 90.0759 30.24C88.7065 30.9818 87.1849 31.3527 85.5111 31.3527ZM85.5111 29.3564C86.6849 29.3564 87.7718 29.0946 88.7717 28.5709C89.7716 28.0255 90.5759 27.2182 91.1845 26.1491C91.8149 25.0582 92.1301 23.7273 92.1301 22.1564C92.1301 20.5855 91.8258 19.2655 91.2171 18.1964C90.6085 17.1055 89.8042 16.2982 88.8043 15.7746C87.8044 15.2291 86.7175 14.9564 85.5437 14.9564C84.3699 14.9564 83.2831 15.2291 82.2831 15.7746C81.2832 16.2982 80.479 17.1055 79.8703 18.1964C79.2834 19.2655 78.99 20.5855 78.99 22.1564C78.99 23.7273 79.2834 25.0582 79.8703 26.1491C80.479 27.2182 81.2724 28.0255 82.2505 28.5709C83.2504 29.0946 84.3373 29.3564 85.5111 29.3564ZM114.061 13.2218V31.0909H111.778V27.9491C111.257 29.0618 110.452 29.9127 109.366 30.5018C108.279 31.0909 107.061 31.3855 105.714 31.3855C103.583 31.3855 101.844 30.7309 100.497 29.4218C99.149 28.0909 98.4752 26.1709 98.4752 23.6618V13.2218H100.725V23.4C100.725 25.3418 101.203 26.8255 102.16 27.8509C103.138 28.8764 104.464 29.3891 106.138 29.3891C107.855 29.3891 109.224 28.8437 110.246 27.7527C111.268 26.6618 111.778 25.0582 111.778 22.9418V13.2218H114.061ZM127.619 12.8946C129.749 12.8946 131.488 13.56 132.836 14.8909C134.183 16.2 134.857 18.1091 134.857 20.6182V31.0909H132.607V20.88C132.607 18.9382 132.118 17.4546 131.14 16.4291C130.184 15.4037 128.869 14.8909 127.195 14.8909C125.478 14.8909 124.108 15.4364 123.087 16.5273C122.065 17.6182 121.554 19.2218 121.554 21.3382V31.0909H119.272V13.2218H121.554V16.2655C122.119 15.1746 122.934 14.3455 124 13.7782C125.065 13.1891 126.271 12.8946 127.619 12.8946ZM138.861 22.1237C138.861 20.2909 139.231 18.6873 139.97 17.3127C140.709 15.9164 141.72 14.8473 143.002 14.1055C144.306 13.3418 145.774 12.96 147.404 12.96C148.969 12.96 150.382 13.3418 151.643 14.1055C152.903 14.8691 153.827 15.8618 154.414 17.0837V6.87274H156.697V31.0909H154.414V27.0982C153.871 28.3418 152.98 29.3673 151.741 30.1746C150.502 30.96 149.045 31.3527 147.371 31.3527C145.741 31.3527 144.274 30.9709 142.97 30.2073C141.687 29.4437 140.676 28.3636 139.937 26.9673C139.22 25.5709 138.861 23.9564 138.861 22.1237ZM154.414 22.1564C154.414 20.7164 154.121 19.4509 153.534 18.36C152.947 17.2691 152.143 16.4291 151.121 15.84C150.121 15.2509 149.013 14.9564 147.795 14.9564C146.534 14.9564 145.404 15.24 144.404 15.8073C143.404 16.3746 142.611 17.2037 142.024 18.2946C141.459 19.3637 141.176 20.64 141.176 22.1237C141.176 23.5855 141.459 24.8727 142.024 25.9855C142.611 27.0764 143.404 27.9164 144.404 28.5055C145.404 29.0727 146.534 29.3564 147.795 29.3564C149.013 29.3564 150.121 29.0618 151.121 28.4727C152.143 27.8836 152.947 27.0437 153.534 25.9527C154.121 24.8618 154.414 23.5964 154.414 22.1564ZM182.984 31.0909L177.344 21.5346H173.138V31.0909H170.855V8.21456H177.702C180.246 8.21456 182.169 8.82547 183.474 10.0473C184.8 11.2691 185.463 12.8727 185.463 14.8582C185.463 16.5164 184.984 17.9346 184.028 19.1127C183.093 20.2691 181.702 21.0218 179.854 21.3709L185.723 31.0909H182.984ZM173.138 19.6691H177.735C179.517 19.6691 180.854 19.2327 181.745 18.36C182.658 17.4873 183.115 16.32 183.115 14.8582C183.115 13.3527 182.68 12.1964 181.811 11.3891C180.941 10.56 179.572 10.1455 177.702 10.1455H173.138V19.6691ZM197.784 31.3527C196.111 31.3527 194.6 30.9818 193.252 30.24C191.926 29.4764 190.872 28.4073 190.089 27.0327C189.328 25.6364 188.948 24.0109 188.948 22.1564C188.948 20.3018 189.339 18.6873 190.122 17.3127C190.904 15.9164 191.97 14.8473 193.317 14.1055C194.665 13.3418 196.176 12.96 197.849 12.96C199.523 12.96 201.034 13.3418 202.382 14.1055C203.751 14.8473 204.816 15.9164 205.577 17.3127C206.36 18.6873 206.751 20.3018 206.751 22.1564C206.751 23.9891 206.36 25.6037 205.577 27C204.795 28.3964 203.719 29.4764 202.349 30.24C200.98 30.9818 199.458 31.3527 197.784 31.3527ZM197.784 29.3564C198.958 29.3564 200.045 29.0946 201.045 28.5709C202.045 28.0255 202.849 27.2182 203.458 26.1491C204.088 25.0582 204.403 23.7273 204.403 22.1564C204.403 20.5855 204.099 19.2655 203.49 18.1964C202.882 17.1055 202.077 16.2982 201.077 15.7746C200.078 15.2291 198.991 14.9564 197.817 14.9564C196.643 14.9564 195.556 15.2291 194.556 15.7746C193.556 16.2982 192.752 17.1055 192.143 18.1964C191.557 19.2655 191.263 20.5855 191.263 22.1564C191.263 23.7273 191.557 25.0582 192.143 26.1491C192.752 27.2182 193.546 28.0255 194.524 28.5709C195.524 29.0946 196.61 29.3564 197.784 29.3564ZM209.869 22.1564C209.869 20.3018 210.238 18.6873 210.977 17.3127C211.716 15.9164 212.738 14.8473 214.042 14.1055C215.346 13.3418 216.835 12.96 218.509 12.96C220.704 12.96 222.509 13.5055 223.922 14.5964C225.356 15.6873 226.28 17.1709 226.693 19.0473H224.248C223.943 17.76 223.28 16.7564 222.259 16.0364C221.259 15.2946 220.009 14.9237 218.509 14.9237C217.314 14.9237 216.238 15.1964 215.281 15.7418C214.325 16.2873 213.564 17.1055 212.999 18.1964C212.455 19.2655 212.184 20.5855 212.184 22.1564C212.184 23.7273 212.455 25.0582 212.999 26.1491C213.564 27.24 214.325 28.0582 215.281 28.6036C216.238 29.1491 217.314 29.4218 218.509 29.4218C220.009 29.4218 221.259 29.0618 222.259 28.3418C223.28 27.6 223.943 26.5746 224.248 25.2655H226.693C226.28 27.0982 225.356 28.5709 223.922 29.6837C222.487 30.7964 220.683 31.3527 218.509 31.3527C216.835 31.3527 215.346 30.9818 214.042 30.24C212.738 29.4764 211.716 28.4073 210.977 27.0327C210.238 25.6364 209.869 24.0109 209.869 22.1564ZM240.527 31.0909L233.19 23.0727V31.0909H230.908V6.87274H233.19V21.2073L240.364 13.2218H243.559L235.114 22.1237L243.624 31.0909H240.527ZM62.6718 36.6518V38.4387H60.5264V44.7273H58.2896V38.4387H56.167V36.6518H62.6718ZM74.3523 39.4353C74.6034 39.0687 74.9077 38.7786 75.2653 38.5647C75.6229 38.3509 76.0071 38.244 76.4179 38.244V40.638H75.7902C75.3033 40.638 74.9419 40.7335 74.7061 40.9244C74.4703 41.1153 74.3523 41.4475 74.3523 41.9209V44.7273H72.1156V38.3013H74.3523V39.4353ZM92.386 38.3013V44.7273H90.1379V43.8109C89.9477 44.1011 89.6852 44.3378 89.3504 44.5211C89.0157 44.6967 88.6315 44.7846 88.1978 44.7846C87.4522 44.7846 86.8626 44.5402 86.429 44.0515C86.0029 43.5551 85.7899 42.8831 85.7899 42.0355V38.3013H88.0152V41.7491C88.0152 42.1157 88.1103 42.4058 88.3005 42.6197C88.4984 42.8258 88.757 42.9289 89.0766 42.9289C89.4037 42.9289 89.6624 42.8258 89.8526 42.6197C90.0428 42.4058 90.1379 42.1157 90.1379 41.7491V38.3013H92.386ZM105.003 44.8075C104.425 44.8075 103.907 44.712 103.451 44.5211C103.002 44.3226 102.644 44.0553 102.378 43.7193C102.119 43.3757 101.975 42.99 101.944 42.5624H104.113C104.143 42.7686 104.238 42.9289 104.398 43.0435C104.558 43.158 104.756 43.2153 104.991 43.2153C105.174 43.2153 105.319 43.1771 105.425 43.1007C105.532 43.0244 105.585 42.9251 105.585 42.8029C105.585 42.6426 105.497 42.5242 105.322 42.4478C105.147 42.3715 104.858 42.2875 104.455 42.1958C103.999 42.1042 103.618 42.0011 103.314 41.8866C103.01 41.772 102.743 41.5849 102.515 41.3253C102.294 41.0657 102.184 40.7144 102.184 40.2715C102.184 39.8897 102.287 39.546 102.492 39.2406C102.698 38.9275 102.998 38.6793 103.394 38.496C103.797 38.3127 104.28 38.2211 104.843 38.2211C105.68 38.2211 106.338 38.4273 106.817 38.8397C107.297 39.252 107.574 39.7942 107.65 40.4662H105.631C105.592 40.26 105.501 40.1035 105.357 39.9966C105.22 39.882 105.033 39.8247 104.797 39.8247C104.615 39.8247 104.474 39.8591 104.375 39.9278C104.284 39.9966 104.238 40.092 104.238 40.2142C104.238 40.3669 104.326 40.4853 104.501 40.5693C104.676 40.6457 104.957 40.7258 105.345 40.8098C105.809 40.9091 106.194 41.0198 106.498 41.142C106.81 41.2642 107.08 41.4627 107.308 41.7377C107.544 42.0049 107.662 42.3715 107.662 42.8373C107.662 43.2115 107.552 43.5475 107.331 43.8453C107.118 44.1431 106.81 44.3798 106.407 44.5555C106.011 44.7235 105.543 44.8075 105.003 44.8075ZM121.588 38.244C122.319 38.244 122.897 38.4922 123.323 38.9886C123.757 39.4773 123.973 40.1417 123.973 40.9817V44.7273H121.737V41.2795C121.737 40.9129 121.642 40.6266 121.451 40.4204C121.261 40.2066 121.006 40.0997 120.687 40.0997C120.352 40.0997 120.09 40.2066 119.899 40.4204C119.709 40.6266 119.614 40.9129 119.614 41.2795V44.7273H117.377V36.2509H119.614V39.2177C119.812 38.9275 120.078 38.6946 120.413 38.5189C120.755 38.3357 121.147 38.244 121.588 38.244ZM151.818 36.6518V44.7273H149.582V41.4857H146.854V44.7273H144.617V36.6518H146.854V39.6873H149.582V36.6518H151.818ZM161.349 41.5086C161.349 40.8442 161.467 40.2638 161.703 39.7675C161.947 39.2711 162.274 38.8893 162.685 38.622C163.103 38.3547 163.567 38.2211 164.077 38.2211C164.518 38.2211 164.899 38.3089 165.218 38.4846C165.538 38.6602 165.785 38.8969 165.96 39.1947V38.3013H168.197V44.7273H165.96V43.8338C165.785 44.1317 165.534 44.3684 165.207 44.544C164.887 44.7197 164.511 44.8075 164.077 44.8075C163.567 44.8075 163.103 44.6738 162.685 44.4066C162.274 44.1393 161.947 43.7575 161.703 43.2611C161.467 42.7571 161.349 42.1729 161.349 41.5086ZM165.96 41.5086C165.96 41.0962 165.846 40.7717 165.618 40.5349C165.397 40.2982 165.123 40.1798 164.796 40.1798C164.461 40.1798 164.183 40.2982 163.963 40.5349C163.742 40.764 163.632 41.0886 163.632 41.5086C163.632 41.9209 163.742 42.2493 163.963 42.4937C164.183 42.7304 164.461 42.8487 164.796 42.8487C165.123 42.8487 165.397 42.7304 165.618 42.4937C165.846 42.2569 165.96 41.9286 165.96 41.5086ZM184.638 38.3013V44.7273H182.389V43.8109C182.199 44.1011 181.937 44.3378 181.602 44.5211C181.267 44.6967 180.883 44.7846 180.449 44.7846C179.704 44.7846 179.114 44.5402 178.681 44.0515C178.254 43.5551 178.041 42.8831 178.041 42.0355V38.3013H180.267V41.7491C180.267 42.1157 180.362 42.4058 180.552 42.6197C180.75 42.8258 181.009 42.9289 181.328 42.9289C181.655 42.9289 181.914 42.8258 182.104 42.6197C182.294 42.4058 182.389 42.1157 182.389 41.7491V38.3013H184.638ZM196.764 36.2509V44.7273H194.527V36.2509H196.764ZM207.783 37.7057C207.388 37.7057 207.068 37.5987 206.825 37.3849C206.589 37.1635 206.471 36.8886 206.471 36.5602C206.471 36.2242 206.589 35.9455 206.825 35.724C207.068 35.5026 207.388 35.3918 207.783 35.3918C208.171 35.3918 208.483 35.5026 208.719 35.724C208.963 35.9455 209.084 36.2242 209.084 36.5602C209.084 36.8886 208.963 37.1635 208.719 37.3849C208.483 37.5987 208.171 37.7057 207.783 37.7057ZM208.89 38.3013V44.7273H206.654V38.3013H208.89ZM222.968 38.244C223.706 38.244 224.292 38.4922 224.726 38.9886C225.16 39.4773 225.376 40.1417 225.376 40.9817V44.7273H223.14V41.2795C223.14 40.9129 223.045 40.6266 222.854 40.4204C222.664 40.2066 222.409 40.0997 222.09 40.0997C221.755 40.0997 221.492 40.2066 221.302 40.4204C221.112 40.6266 221.017 40.9129 221.017 41.2795V44.7273H218.78V38.3013H221.017V39.2177C221.215 38.9275 221.481 38.6946 221.816 38.5189C222.151 38.3357 222.535 38.244 222.968 38.244ZM237.582 38.2211C238.015 38.2211 238.392 38.3089 238.712 38.4846C239.039 38.6602 239.29 38.8969 239.465 39.1947V38.3013H241.702V44.6586C241.702 45.2618 241.587 45.804 241.359 46.2851C241.131 46.7738 240.773 47.1633 240.286 47.4535C239.807 47.7437 239.199 47.8887 238.461 47.8887C237.471 47.8887 236.68 47.6558 236.087 47.19C235.493 46.7242 235.155 46.0904 235.071 45.2886H237.274C237.319 45.4947 237.433 45.6551 237.616 45.7697C237.799 45.8842 238.034 45.9415 238.324 45.9415C239.084 45.9415 239.465 45.5138 239.465 44.6586V43.8338C239.29 44.1317 239.039 44.3684 238.712 44.544C238.392 44.7197 238.015 44.8075 237.582 44.8075C237.072 44.8075 236.608 44.6738 236.19 44.4066C235.779 44.1393 235.452 43.7575 235.208 43.2611C234.972 42.7571 234.854 42.1729 234.854 41.5086C234.854 40.8442 234.972 40.2638 235.208 39.7675C235.452 39.2711 235.779 38.8893 236.19 38.622C236.608 38.3547 237.072 38.2211 237.582 38.2211ZM239.465 41.5086C239.465 41.0962 239.351 40.7717 239.122 40.5349C238.902 40.2982 238.628 40.1798 238.301 40.1798C237.966 40.1798 237.688 40.2982 237.468 40.5349C237.247 40.764 237.137 41.0886 237.137 41.5086C237.137 41.9209 237.247 42.2493 237.468 42.4937C237.688 42.7304 237.966 42.8487 238.301 42.8487C238.628 42.8487 238.902 42.7304 239.122 42.4937C239.351 42.2569 239.465 41.9286 239.465 41.5086Z" fill="#7C4032"/>
</svg>
